<?xml version="1.0" standalone="no"?>
<!DOCTYPE svg PUBLIC "-//W3C//DTD SVG 1.1//EN" "http://www.w3.org/Graphics/SVG/1.1/DTD/svg11.dtd" >
<svg xmlns="http://www.w3.org/2000/svg">
<metadata></metadata>
<defs>
<font id="introregular_italic" horiz-adv-x="1441" >
<font-face units-per-em="2048" ascent="1536" descent="-512" />
<missing-glyph horiz-adv-x="534" />
<glyph horiz-adv-x="0" />
<glyph horiz-adv-x="0" />
<glyph unicode="&#xd;" horiz-adv-x="448" />
<glyph unicode=" "  horiz-adv-x="534" />
<glyph unicode="&#x09;" horiz-adv-x="534" />
<glyph unicode="&#xa0;" horiz-adv-x="534" />
<glyph unicode="!" horiz-adv-x="520" d="M47 51q0 49 37 80t84 31q37 0 60.5 -21.5t23.5 -56.5q0 -47 -38 -79t-87 -32q-35 0 -57.5 21.5t-22.5 56.5zM121 301l229 1133h178l-252 -1133h-155z" />
<glyph unicode="&#x22;" horiz-adv-x="737" d="M233 977l97 457h153l-116 -457h-134zM526 977l97 457h151l-117 -457h-131z" />
<glyph unicode="#" horiz-adv-x="1406" d="M53 410l25 116h256l121 336h-242l25 117h260l164 453h143l-162 -453h404l163 453h146l-164 -453h207l-25 -117h-223l-121 -336h209l-25 -116h-227l-145 -410h-152l150 410h-402l-147 -410h-152l152 410h-238zM475 522h412l121 344h-410z" />
<glyph unicode="$" horiz-adv-x="1310" d="M49 391h166q-8 -61 12.5 -107t60.5 -78t94 -49.5t112 -23.5l112 535q-78 12 -150.5 31.5t-128 54t-88 88t-32.5 133.5q0 113 51 199t132 145t182.5 93t201.5 42l29 139h139l-29 -141q80 -10 154 -38t126 -76t77.5 -117.5t11.5 -163.5h-162q8 57 -10 99t-53 70.5t-82 46 t-96 23.5l-107 -501q94 -14 179 -36t144.5 -65t86 -113.5t2.5 -181.5q-23 -100 -82.5 -174.5t-140 -127t-175 -81t-186.5 -36.5l-31 -142h-139l31 142q-90 8 -171 36.5t-140.5 78.5t-88 124t-12.5 172zM383 1006q0 -51 22.5 -85t58.5 -55.5t81 -33t92 -19.5l104 487 q-61 -6 -124.5 -26.5t-115.5 -57t-85 -88.5t-33 -122zM633 133q66 6 134.5 27.5t124.5 59.5t92 94t36 132q0 53 -23.5 88t-61.5 57.5t-88 36t-106 23.5z" />
<glyph unicode="%" horiz-adv-x="1732" d="M186 1047q0 100 38 176.5t99.5 128t136.5 78t148 26.5q55 0 105.5 -17.5t87.5 -51t59.5 -83.5t22.5 -118q0 -100 -38 -177t-98.5 -128.5t-135 -78t-148.5 -26.5q-55 0 -104.5 17.5t-88.5 51.5t-61.5 84t-22.5 118zM309 -2l1006 1432h160l-1004 -1432h-162zM324 1069 q0 -86 49 -130t114 -46q45 0 92.5 17.5t85 51t61.5 85t24 118.5q0 86 -49.5 130t-116.5 44q-45 0 -91.5 -17t-84 -52t-61 -85t-23.5 -116zM905 244q0 100 39 176t99.5 127t135 77.5t146.5 26.5q55 0 105.5 -17.5t88 -51t60.5 -83.5t23 -118q0 -100 -38 -176t-98.5 -128 t-134.5 -79t-147 -27q-55 0 -105.5 17.5t-89.5 51.5t-61.5 85t-22.5 119zM1038 262q0 -88 51.5 -132t118.5 -42q45 0 90 18.5t82 53.5t60.5 85t23.5 113q0 86 -49 130t-115 47q-47 0 -93 -17.5t-84 -51.5t-61.5 -85t-23.5 -119z" />
<glyph unicode="&#x26;" horiz-adv-x="1331" d="M66 342q0 180 104 299t285 172q-74 25 -112 86.5t-38 138.5q0 106 45 186.5t121 133.5t171 79.5t198 26.5q94 0 168.5 -19.5t123 -60.5t65.5 -102t-3 -143h-145q12 57 -6.5 93t-54.5 55.5t-84 26.5t-97 7q-55 0 -116.5 -13.5t-112 -45t-83 -83t-32.5 -124.5 q0 -98 74.5 -143.5t210.5 -45.5l-29 -133h-39t-41 -2q-164 -12 -274.5 -99t-128.5 -259q-6 -59 12 -106.5t55 -81t90 -52t119 -18.5q74 0 140.5 19.5t120.5 62.5t94 109.5t61 158.5l86 401h303l-31 -137h-145l-58 -266q-53 -248 -201.5 -371t-381.5 -123q-104 0 -185.5 29 t-136.5 78t-83.5 117.5t-28.5 148.5z" />
<glyph unicode="'" horiz-adv-x="448" d="M233 977l97 457h155l-116 -457h-136z" />
<glyph unicode="(" horiz-adv-x="632" d="M53 180.5q-6 190.5 36 398t129 398t213 348.5t288 250l51 -117q-121 -80 -221 -212t-174 -293.5t-116 -340t-45 -349.5t36 -323.5t127 -261.5l-82 -98q-117 92 -176.5 251t-65.5 349.5z" />
<glyph unicode=")" horiz-adv-x="636" d="M-152 -315q117 82 219.5 216t180.5 296.5t125 342t54 350.5t-32 323.5t-133 263.5l78 98q121 -90 180.5 -247t64.5 -348.5t-40 -399t-133 -399t-214 -350.5t-282 -251z" />
<glyph unicode="*" horiz-adv-x="833" d="M240 1204l57 109l203 -78l41 225h118l-57 -223l227 82l15 -107l-232 -71l119 -189l-104 -67l-101 192l-180 -192l-90 67l193 187z" />
<glyph unicode="+" horiz-adv-x="954" d="M135 686l27 127h297l63 297h133l-63 -297h297l-27 -127h-297l-63 -295h-133l63 295h-297z" />
<glyph unicode="," horiz-adv-x="485" d="M8 -182l80 159q-25 8 -40 28t-15 48q0 49 36.5 80t86.5 31q35 0 57.5 -18.5t24.5 -51.5q-1 -21 -5 -33q-8 -23 -22 -49l-102 -194h-101z" />
<glyph unicode="-" horiz-adv-x="948" d="M143 612l31 142h666l-31 -142h-666z" />
<glyph unicode="." horiz-adv-x="491" d="M33 61q0 53 39 84t88 31q39 0 63.5 -21.5t24.5 -58.5q0 -49 -39 -81.5t-90 -32.5q-39 0 -62.5 22.5t-23.5 56.5z" />
<glyph unicode="/" horiz-adv-x="1011" d="M-47 2l997 1432h168l-997 -1432h-168z" />
<glyph unicode="0" horiz-adv-x="1349" d="M120.5 262q-22.5 90 2.5 207l104 492q25 115 85.5 205.5t145.5 154t189 97.5t215 34t199 -34t146.5 -97.5t80 -154.5t-3.5 -205l-104 -492q-25 -117 -85.5 -207t-144.5 -152.5t-186 -95t-213 -32.5t-201 32.5t-148.5 95t-81 152.5zM275 356.5q4 -69.5 36.5 -120t96 -78 t165.5 -27.5q123 0 230.5 57.5t165.5 167.5q20 35 32.5 74t22.5 80l94 410q18 82 14 152.5t-35.5 122.5t-95 81t-163.5 29q-129 0 -235.5 -60.5t-164.5 -171.5q-20 -35 -32.5 -73.5t-22.5 -79.5l-94 -410q-18 -84 -14 -153.5z" />
<glyph unicode="1" horiz-adv-x="870" d="M-31 0l29 135h283l247 1163h-249l28 136h412l-277 -1299h285l-29 -135h-729z" />
<glyph unicode="2" horiz-adv-x="1103" d="M-29 0l9 37l770 764q82 80 131 170t50 164.5t-53.5 125t-177.5 50.5q-129 0 -211.5 -58.5t-119.5 -193.5h-146q94 393 512 393q88 0 153.5 -22.5t108.5 -62.5t63.5 -93t20.5 -115q0 -100 -50 -210.5t-161 -221.5l-587 -575h624l-33 -152h-903z" />
<glyph unicode="3" horiz-adv-x="1173" d="M47 391h150q-10 -131 62.5 -195.5t201.5 -64.5q150 0 259 82t142 236q20 94 -10.5 161.5t-95 104.5t-153.5 44t-185 -18l8 39l498 508h-623l31 146h901l-6 -27l-522 -541q164 -6 246.5 -101t82.5 -241q0 -111 -44 -210t-123 -172.5t-190.5 -116.5t-246.5 -43 q-96 0 -173 27.5t-127 79.5t-72.5 129t-10.5 173z" />
<glyph unicode="4" horiz-adv-x="1202" d="M4 322l16 73l947 1039h168l-207 -973h147l-28 -139h-148l-68 -322h-155l67 322h-739zM252 455h530l76 360l96 426h-2z" />
<glyph unicode="5" horiz-adv-x="1183" d="M74 373h157q-6 -72 10.5 -118t51.5 -73.5t85 -38t111 -10.5q51 0 109.5 12.5t113 43t98.5 79.5t67 123q35 113 18.5 190.5t-68 127t-128 72t-165 24.5t-178.5 -15.5t-166 -48.5l148 693h840l-33 -154h-690l-78 -367q59 14 114.5 18.5t114.5 4.5q106 0 196.5 -33 t152 -95.5t88 -151.5t10.5 -201q-10 -109 -62.5 -196t-133.5 -148.5t-184.5 -95t-213.5 -33.5q-92 0 -169 24.5t-129 73.5t-76 121.5t-11 171.5z" />
<glyph unicode="6" horiz-adv-x="1206" d="M43 358q0 106 42 200.5t120 182.5l606 699h188l-493 -578q92 49 192 49q92 0 168 -24.5t130.5 -72.5t85 -116.5t30.5 -156.5q0 -135 -53 -238.5t-141.5 -175.5t-204 -108.5t-238.5 -36.5q-94 0 -173 24.5t-136 72.5t-90 117.5t-33 161.5zM209 389q-4 -66 17.5 -114 t62.5 -80.5t97 -49t122 -16.5q86 0 165 29.5t139 81t97 122t37 154.5q0 125 -86 191.5t-217 66.5q-86 0 -161.5 -26.5t-134 -75.5t-95.5 -121t-43 -162z" />
<glyph unicode="7" horiz-adv-x="1056" d="M63 0l869 1286h-719q10 43 16.5 74t16.5 74h956l-6 -25l-954 -1409h-179z" />
<glyph unicode="8" horiz-adv-x="1265" d="M63 338q0 92 30 166t82 131t121 98t146 70q-61 33 -100 93t-39 142q0 88 41 164t111.5 131.5t164 87t197.5 31.5q80 0 147.5 -21.5t115.5 -60.5t75 -94t27 -123q0 -63 -21.5 -119.5t-58.5 -102.5t-86.5 -81.5t-104.5 -58.5q98 -39 157.5 -112t59.5 -190 q0 -111 -50 -203.5t-136 -160.5t-199.5 -105.5t-238.5 -37.5q-98 0 -179 23.5t-139.5 68.5t-90.5 111.5t-32 152.5zM231 373q-2 -59 19.5 -105.5t60.5 -78t92.5 -48t114.5 -16.5q78 0 156 23.5t141.5 68.5t103 110.5t44.5 147.5q4 123 -79 186.5t-208 63.5q-80 0 -158 -24.5 t-140.5 -69.5t-102 -110.5t-44.5 -147.5zM451 1047q-4 -92 60.5 -139.5t162.5 -47.5q61 0 121.5 17.5t110.5 51.5t82 83t34 112q2 92 -63.5 141.5t-163.5 49.5q-61 0 -122 -18.5t-109 -52.5t-79.5 -84t-33.5 -113z" />
<glyph unicode="9" horiz-adv-x="1202" d="M143 893q0 135 53.5 239.5t141.5 175t203.5 107.5t238.5 37q92 0 172 -24.5t138.5 -71.5t91 -118t32.5 -163t-35.5 -184t-134.5 -203l-591 -688h-189l494 571q-47 -23 -98.5 -36t-98.5 -13q-92 0 -169 24.5t-132 73t-86 117t-31 156.5zM311 926q-8 -125 70 -196t207 -71 q84 0 163.5 27t143 76t104.5 120.5t48 161.5q8 123 -70 194t-207 71q-86 0 -166 -27t-142.5 -76t-103.5 -120.5t-47 -159.5z" />
<glyph unicode=":" horiz-adv-x="491" d="M31 61q0 53 39 84t88 31q39 0 63.5 -21.5t24.5 -58.5q0 -49 -39 -81.5t-90 -32.5q-39 0 -62.5 22.5t-23.5 56.5zM176 743q0 53 39 84t88 31q39 0 63.5 -21.5t24.5 -58.5q0 -49 -39 -81.5t-90 -32.5q-39 0 -62.5 22.5t-23.5 56.5z" />
<glyph unicode=";" horiz-adv-x="489" d="M16 -166l72 143q-25 8 -40 28t-15 48q0 49 36.5 80t86.5 31q35 0 58.5 -18.5t25.5 -51.5q0 -21 -4 -33q-4 -10 -9.5 -22t-13.5 -27l-96 -178h-101zM176 743q0 51 38 82t85 31q37 0 60.5 -21.5t23.5 -56.5q0 -49 -38 -79.5t-85 -30.5q-37 0 -60.5 20.5t-23.5 54.5z" />
<glyph unicode="&#x3c;" horiz-adv-x="1081" d="M109 651l26 121l883 354l-33 -153l-676 -262l563 -275l-32 -153z" />
<glyph unicode="=" horiz-adv-x="1093" d="M121 451l29 135h788l-29 -135h-788zM188 772l29 135h789l-29 -135h-789z" />
<glyph unicode="&#x3e;" horiz-adv-x="1079" d="M111 283l30 145l680 283l-563 270l33 145l733 -354l-27 -121z" />
<glyph unicode="?" horiz-adv-x="1024" d="M182 1067q27 98 78 169t118.5 117t148.5 67.5t167 21.5q76 0 140.5 -20.5t110.5 -59.5t72.5 -97.5t26.5 -134.5q0 -100 -33.5 -168.5t-86 -122t-117 -100.5t-123.5 -105.5t-106.5 -137t-67.5 -193.5h-154q27 137 76 227.5t107.5 154t119 107.5t109.5 90t81 102t32 142 t-56.5 127t-160.5 41q-49 2 -98.5 -11t-93.5 -43t-79 -73t-55 -100h-156zM283 51q0 51 37.5 82t87.5 31q39 0 61.5 -20.5t22.5 -55.5q0 -49 -37 -82t-88 -33q-37 0 -60.5 21.5t-23.5 56.5z" />
<glyph unicode="@" horiz-adv-x="1853" d="M71 91q-42 175 17 411q45 182 144.5 333.5t237.5 261t307 170t351 60.5q186 0 324.5 -58.5t220.5 -165t103.5 -258t-25.5 -337.5q-25 -96 -63.5 -190.5t-95 -170t-133.5 -121.5t-175 -46q-88 0 -124 57t-9 143l10 33q-72 -111 -182.5 -168t-233.5 -59q-113 0 -186.5 42 t-112 112.5t-45 163.5t18.5 198q31 125 96.5 222t153.5 162.5t192.5 99.5t210.5 34q117 0 217.5 -44t163.5 -114l-151 -608q-16 -66 -15.5 -110t51.5 -44q53 -2 102.5 39t89.5 103.5t68.5 134.5t42.5 131q45 174 30 308t-85.5 224t-193.5 136.5t-291 46.5 q-160 0 -306.5 -53.5t-267 -148.5t-208 -227t-127.5 -292q-55 -217 -18.5 -375t145 -245t276.5 -97t375 70l-27 -107q-223 -74 -407.5 -53.5t-304 121t-161.5 275.5zM559.5 358.5q-2.5 -67.5 20 -118t72.5 -79t134 -28.5q76 0 142.5 28.5t121 77t92.5 111t58 131.5l86 320 q-47 47 -111.5 64.5t-146.5 17.5q-74 0 -143.5 -26t-129 -74t-105.5 -118.5t-70 -162.5q-18 -76 -20.5 -143.5z" />
<glyph unicode="A" d="M-100 0l4 23l968 1417h78l361 -1417l-4 -23h-170l-90 354h-723l-240 -354h-184zM412 502h608l-160 669z" />
<glyph unicode="B" horiz-adv-x="1370" d="M66 0l305 1434h559q84 0 153.5 -18.5t119.5 -55.5t78 -95.5t28 -138.5q0 -135 -74 -240.5t-193 -148.5q92 -29 143.5 -92t51.5 -168q0 -111 -42 -200t-115.5 -150t-175 -94t-218.5 -33h-620zM266 147h439q127 0 224 58.5t126 189.5q8 37 8 67q1 30 -7 55q-16 50 -54.5 82 t-98 46t-129.5 14h-399zM406 803h378q61 0 120 14t106 45t80.5 78t48.5 115q7 36 7 65q0 28 -6 50q-14 44 -48.5 71t-87 38t-115.5 11h-379z" />
<glyph unicode="C" horiz-adv-x="1556" d="M122 412q-12 60 -12 127q0 84 19 178q35 174 120 311t203 232q116 96 260 145q138 47 284 47h12q104 0 198 -27.5t168 -84t120 -140.5t56 -196h-164q-12 76 -49 131t-91 90t-123.5 52t-147.5 17h-11q-127 0 -238 -46q-116 -48 -205 -132t-147.5 -197.5t-76.5 -242.5 q-10 -60 -10 -119q0 -43 5 -83q13 -98 62 -172.5t139.5 -118.5t225.5 -44q80 0 159.5 18.5t151.5 57.5t132.5 98.5t103.5 143.5h182q-57 -133 -142 -224.5t-184.5 -146.5t-210 -79.5t-217.5 -24.5q-152 0 -271.5 51t-196 147t-104.5 232z" />
<glyph unicode="D" horiz-adv-x="1505" d="M66 0l305 1434h508q139 0 244.5 -44t176 -121t106.5 -181.5t36 -223.5q0 -172 -57.5 -328.5t-168 -275.5t-272.5 -189.5t-371 -70.5h-507zM270 156h332q143 0 266 55t211 148.5t138.5 218t50.5 264.5q0 94 -22.5 174t-74 137t-132.5 90t-199 33h-332z" />
<glyph unicode="E" horiz-adv-x="1161" d="M66 0q76 360 151.5 716.5t153.5 717.5h833l-33 -150h-661l-98 -469h639q-10 -37 -17.5 -75t-15.5 -74h-639l-109 -508h684q-8 -41 -16 -81t-16 -77h-856z" />
<glyph unicode="F" horiz-adv-x="1130" d="M66 0l305 1434h852q-10 -41 -16.5 -76t-16.5 -76h-680l-113 -526h625l-31 -152h-624l-129 -604h-172z" />
<glyph unicode="G" horiz-adv-x="1591" d="M111 569q8 203 83.5 366t197.5 277.5t279.5 177t329.5 62.5q104 0 200.5 -24.5t171.5 -77t121 -133t52 -193.5h-164q-10 80 -46 132t-91 84t-125.5 44t-150.5 12q-147 0 -268 -57t-209.5 -154.5t-141.5 -224.5t-65 -266q-2 -25 -2 -50q0 -68 17 -130q22 -84 75 -145.5 t137 -97.5t201 -36q106 0 205.5 29t183.5 88t149.5 149.5t102.5 212.5h-510l30 140h668q-23 -166 -92.5 -307.5t-180 -245t-257 -161.5t-324.5 -58q-131 0 -239.5 40.5t-185.5 116.5t-117 185q-36 96 -36 211q0 17 1 34z" />
<glyph unicode="H" horiz-adv-x="1480" d="M66 0l305 1434h170l-129 -605h757l129 605h172l-305 -1434h-172l144 672h-758l-143 -672h-170z" />
<glyph unicode="I" horiz-adv-x="811" d="M-53 0q10 41 15 68.5t13 68.5h248l248 1161h-231q8 41 13 68t15 68h635q-10 -41 -15 -68t-14 -68h-231l-248 -1161h248q-8 -41 -13 -68.5t-16 -68.5h-667z" />
<glyph unicode="J" horiz-adv-x="1302" d="M36 272q-9 40 -9 86q0 58 14 123l33 150h155l-30 -148q-11 -54 -11 -100q0 -99 52 -159q77 -87 239 -87q82 0 156 22.5t133 66.5t102 108.5t62 148.5l176 805h-356l30 146h525l-203 -953q-25 -119 -83 -212t-143 -156.5t-191.5 -97t-229.5 -33.5q-115 0 -203 33.5 t-143.5 98t-74.5 158.5z" />
<glyph unicode="K" horiz-adv-x="1355" d="M66 0l305 1434h170l-142 -656q104 0 191.5 7.5t140.5 35.5q39 20 74 57t66.5 83.5t59 99.5t52.5 104q37 70 80 127.5t99 93.5q58 36 132 50q32 6 68 6q48 0 104 -10l-24 -115q-23 2 -45 2q-87 0 -141 -39q-68 -49 -126 -164q-55 -111 -119.5 -215t-154.5 -170l350 -706 l-6 -25h-172l-321 662q-31 -8 -76 -13.5t-93.5 -8.5t-93.5 -4t-75 -1l-133 -635h-170z" />
<glyph unicode="L" horiz-adv-x="1054" d="M66 0l305 1434h172l-273 -1280h676q-10 -41 -16 -77t-17 -77h-847z" />
<glyph unicode="M" horiz-adv-x="1693" d="M66 0l305 1436h57l420 -801l760 801h75l-305 -1436h-172l219 1034l-608 -647h-26l-334 647l-219 -1034h-172z" />
<glyph unicode="N" horiz-adv-x="1527" d="M66 0l305 1438h59l703 -1100l69 426l144 672h172l-306 -1438h-55l-702 1108l-72 -416l-147 -690h-170z" />
<glyph unicode="O" horiz-adv-x="1669" d="M115 567q0 199 72.5 363t194.5 279.5t281.5 179t335.5 63.5q129 0 241 -41t194 -116.5t129 -184.5t47 -244q0 -188 -70 -350t-191.5 -280.5t-284.5 -186t-349 -67.5q-129 0 -239.5 39.5t-190.5 115.5t-125 184.5t-45 245.5zM281 598v-24q1 -96 29 -173q32 -86 92.5 -144 t144.5 -88t184 -30q137 0 263 52.5t222.5 144.5t156 220t63.5 280v13q0 103 -30 183q-32 86 -92.5 144.5t-145.5 89t-187 30.5q-135 0 -260 -51t-221.5 -144t-155.5 -221t-63 -282z" />
<glyph unicode="P" horiz-adv-x="1331" d="M66 2l305 1432h282.5t282.5 -2q125 0 213 -51.5t137 -134.5q48 -82 58 -188q2 -24 3 -48q0 -82 -26 -164q-27 -88 -84 -160t-135 -123t-172 -78.5t-195 -27.5h-403l-96 -455h-170zM362 610h406q82 0 157.5 31t133 85t91.5 128t34 160q0 119 -76 194.5t-205 75.5h-403z " />
<glyph unicode="Q" horiz-adv-x="1658" d="M111 573q6 186 77.5 347t192.5 280t282.5 185.5t350.5 66.5q129 0 237.5 -40t186.5 -115.5t122 -184t44 -246.5q0 -190 -78 -352t-209 -285l96 -217l-4 -24h-160l-65 139q-111 -72 -236 -108.5t-254 -36.5q-143 0 -253.5 42t-185.5 118.5t-112 185.5q-33 97 -33 213 q0 16 1 32zM279 590v-26q0 -93 25 -168q28 -85 84 -143t137 -89t182 -31q137 0 265 51.5t229.5 144.5t165 224t69.5 291v25q0 91 -25 165q-29 84 -86 142.5t-139 88t-182 29.5q-137 0 -265.5 -49t-228.5 -140t-162.5 -222t-68.5 -293z" />
<glyph unicode="R" horiz-adv-x="1374" d="M66 0q78 362 152.5 716.5t152.5 717.5h571q111 0 190.5 -36t129.5 -98q48 -63 66 -147q10 -48 11 -100q0 -38 -6 -78q-14 -92 -53 -165t-96.5 -126t-129 -87t-153.5 -48l295 -524l-6 -25h-168l-297 530h-373l-114 -530h-172zM377 670l401 2q78 0 149.5 25.5t127 73.5 t88.5 114.5t33 148.5q0 113 -68 183.5t-199 70.5h-401q-33 -154 -64.5 -308.5t-66.5 -309.5z" />
<glyph unicode="S" horiz-adv-x="1320" d="M57 397h166q-4 -24 -4 -46q-1 -46 17 -81q26 -51 74 -81.5t112.5 -44t132.5 -13.5q66 2 139.5 15.5t139 43t115.5 81t69 128.5q7 35 7 63q1 42 -15 72q-26 48 -81 73.5t-125.5 34.5t-139.5 20q-86 10 -167 29.5t-143.5 57t-101.5 96t-39 144.5q0 123 54.5 210 t142.5 143.5t197.5 83t219.5 26.5q92 0 182.5 -21.5t156.5 -69.5t100 -123q22 -49 22 -110q0 -33 -6 -69h-156q2 18 2 35q0 46 -16 79q-22 46 -66.5 74.5t-109 40.5t-137.5 12q-68 0 -141.5 -16t-134 -52t-99.5 -94.5t-39 -140.5q0 -63 30.5 -99t80 -55.5t109 -26.5 t116.5 -13q104 -12 199.5 -36t163.5 -70q68 -47 98 -123q16 -41 16 -94q0 -46 -12 -101q-25 -115 -91.5 -190.5t-156.5 -120.5t-193.5 -64.5t-201.5 -21.5h-16q-91 0 -179 22q-96 24 -166.5 73.5t-106.5 129.5q-24 53 -24 120q0 33 6 70z" />
<glyph unicode="T" horiz-adv-x="1110" d="M174 1280l33 154h1050l-32 -154h-443l-272 -1280h-166l272 1280h-442z" />
<glyph unicode="U" horiz-adv-x="1445" d="M152 272q-11 45 -11 96q0 56 13 119l200 947h174l-200 -945q-13 -62 -13 -112q0 -27 4 -51q11 -68 49 -110t100 -61.5t144 -19.5t159 23.5t140.5 68.5t108.5 110.5t63 151.5l201 945h166l-201 -947q-25 -121 -86 -215t-148 -158.5t-193.5 -98t-223.5 -33.5t-210 33.5 t-153.5 98t-82.5 158.5z" />
<glyph unicode="V" horiz-adv-x="1357" d="M213 1409l6 25h174l119 -605l92 -536h2l316 536l374 605h191l-6 -25l-897 -1415h-72z" />
<glyph unicode="W" horiz-adv-x="1970" d="M233 1407l7 27h182l53 -531l31 -610h2l604 1114h84l137 -1114h4l283 610q68 135 138.5 265t142.5 266h178l-6 -23l-742 -1419h-119l-129 1052h-2l-573 -1052h-129z" />
<glyph unicode="X" horiz-adv-x="1286" d="M-102 0l6 25l674 731l-328 653l6 25h170l129 -267l135 -301h4l267 305l239 263h197l-6 -23l-607 -655l365 -733l-4 -23h-178l-166 336l-133 299h-6l-256 -295l-312 -340h-196z" />
<glyph unicode="Y" horiz-adv-x="1282" d="M205 1411l4 23h174l139 -334l131 -350h6l281 348l281 336h194l-4 -25l-690 -821l-125 -588h-172l125 588z" />
<glyph unicode="Z" horiz-adv-x="1193" d="M-82 0l4 23l1079 1259h-755q10 43 16 76t17 76h1024l-7 -27l-1067 -1251h803q-8 -41 -16 -79t-17 -77h-1081z" />
<glyph unicode="[" horiz-adv-x="610" d="M-33 -360l406 1906h360l-28 -133h-209l-346 -1626h208l-30 -147h-361z" />
<glyph unicode="\" horiz-adv-x="970" d="M242 1434h155l387 -1432h-155z" />
<glyph unicode="]" horiz-adv-x="610" d="M-121 -360l31 147h209l346 1626h-209l29 133h360l-405 -1906h-361z" />
<glyph unicode="^" horiz-adv-x="1062" d="M180 852l477 584h117l236 -584h-138l-180 440l-358 -440h-154z" />
<glyph unicode="_" horiz-adv-x="1261" d="M-25 -166l29 139h987l-28 -139h-988z" />
<glyph unicode="`" horiz-adv-x="688" d="M483 1403l2 14l162 60l96 -271l-4 -14h-135z" />
<glyph unicode="a" horiz-adv-x="1220" d="M58 305q-2 25 -3 52q0 71 17 147q27 121 88 215t147 157.5t193.5 96.5t228.5 33q104 0 196.5 -25t178.5 -66l-139 -651q-8 -37 -12.5 -65.5t3.5 -48.5q8 -19 30 -28q16 -6 41 -6q12 0 26 1l-25 -121q-42 -7 -78 -7q-14 0 -27 1q-46 4 -74 27.5t-37 68.5q-3 16 -3 36 q0 35 10 81q-70 -113 -181.5 -167t-229.5 -54q-113 0 -188 43t-114.5 114.5t-47.5 165.5zM215 344q4 -65 29.5 -113.5t77 -75t129.5 -26.5q76 0 142 27.5t119.5 78t92.5 119t57 150.5l68 315q-57 29 -119.5 40t-120.5 11q-82 0 -156.5 -26.5t-136 -76.5t-105.5 -121 t-65 -159q-13 -62 -13 -116q0 -14 1 -27z" />
<glyph unicode="b" horiz-adv-x="1179" d="M39 74l299 1411h149l-137 -649q76 86 172 128t207 42q86 0 161 -31t124 -95q48 -66 66 -164q6 -36 7 -75q0 -71 -20 -156q-31 -131 -91.5 -226t-145.5 -156.5t-191.5 -91t-226.5 -29.5q-104 0 -197.5 25.5t-175.5 66.5zM217 174q59 -27 114.5 -41t117.5 -14 q74 0 146.5 23.5t132.5 69.5t106.5 113.5t68.5 157.5q19 82 19 148q0 83 -30 137q-54 98 -226 98q-80 0 -143.5 -34.5t-113 -89t-81 -123t-45.5 -136.5z" />
<glyph unicode="c" horiz-adv-x="1159" d="M59 446q18 143 82 249t155 175q90 70 198 104q102 32 203 32h12q74 0 141.5 -20.5t119.5 -62.5t83.5 -102.5t36.5 -140.5h-148q-14 98 -92 142t-172 44q-72 0 -144.5 -24.5t-134 -72.5t-107.5 -118.5t-65 -163.5q-10 -47 -11 -91q0 -24 4 -47q9 -64 43 -114.5t91.5 -80 t137.5 -31.5q49 0 101 10t101 35t93 63.5t77 98.5h170q-41 -92 -103.5 -159t-137 -109t-156.5 -61t-162 -19q-96 0 -177 34.5t-138.5 96t-85.5 146.5q-19 59 -19 127q0 29 4 60z" />
<glyph unicode="d" horiz-adv-x="1236" d="M61 383q0 119 39 231.5t112 199.5t177.5 139.5t237.5 52.5q117 0 202.5 -50.5t110.5 -144.5l147 696h150l-266 -1243q-8 -37 -12.5 -65.5t3.5 -48.5q8 -19 30 -28q16 -6 42 -6q12 0 27 1l-27 -121q-42 -7 -77 -7q-14 0 -27 1q-45 4 -73 27.5t-36 66.5q-3 16 -3 35 q0 34 9 78q-68 -113 -175 -164t-226 -51q-92 0 -160.5 32.5t-114 88t-68 128t-22.5 152.5zM226 348q7 -60 34 -109t72.5 -79.5t113.5 -30.5q92 0 171 38t137.5 103.5t92.5 150.5t36 181q0 119 -57.5 192.5t-186.5 73.5q-94 0 -167 -33.5t-125 -89t-81.5 -128t-38.5 -150.5 q-4 -31 -4 -63q0 -28 3 -56z" />
<glyph unicode="e" horiz-adv-x="1097" d="M58 318q-3 25 -2 53q0 86 28 186q33 113 92.5 197t138 139t173 83t198.5 30q76 0 147.5 -18.5t122.5 -58.5q52 -41 76 -103q14 -35 14 -77q0 -33 -8 -71q-18 -80 -66 -135.5t-110.5 -88t-134.5 -47t-137 -14.5q-98 0 -200.5 22.5t-168.5 78.5q-16 -67 -16 -123 q0 -104 57 -165q88 -95 281 -95q86 0 176 25.5t168 58.5l-21 -140q-92 -41 -182 -56t-176 -17h-13q-125 0 -217 38q-98 40 -153 115t-67 183zM262 618q25 -25 64 -43t83 -30.5t90 -17.5t89 -5t89 7.5t87 25.5t73.5 50t47.5 79q6 23 6 44q-1 24 -9 43q-16 36 -50.5 59.5 t-82 33.5t-92.5 10q-129 0 -234.5 -62.5t-160.5 -193.5z" />
<glyph unicode="f" horiz-adv-x="804" d="M-213 -500l29 125q40 -7 73 -7q31 0 57 6q52 14 86 49.5t54 93t37 131.5l205 958h-232l27 123h233l35 166q20 100 59 170.5t91.5 117t116 67t133.5 20.5q106 0 225 -52l-47 -118q-45 20 -88 31.5t-84 11.5h-6q-82 0 -145 -53q-66 -54 -95 -185l-37 -176h358l-26 -123 h-359l-204 -960q-49 -233 -165 -335q-83 -73 -216 -73q-53 0 -115 12z" />
<glyph unicode="g" horiz-adv-x="1179" d="M-45 -406l49 130q68 -43 152 -70t170 -27q76 0 143.5 14.5t122.5 51.5t96 99.5t62 158.5l49 231q-63 -106 -162.5 -153t-226.5 -47q-100 0 -172 40.5t-115 106.5t-59 147q-9 50 -9 100q0 32 4 64q18 139 78 246t149 178.5t202 107.5q108 34 228 34h13q104 -2 194.5 -27 t176.5 -66l-203 -962q-27 -125 -79 -213t-124.5 -143.5t-161 -81t-188.5 -25.5q-186 0 -389 106zM220 348q7 -63 34 -114.5t75 -83t120 -31.5q80 0 147.5 33.5t120.5 88t89 122t52 135.5l72 319q-57 29 -116.5 40t-123.5 11q-88 0 -167 -25.5t-141.5 -76.5t-103 -125 t-53.5 -168q-8 -39 -8 -78q0 -23 3 -47z" />
<glyph unicode="h" horiz-adv-x="1208" d="M27 -4l319 1499h162l-139 -645q29 37 70.5 65.5t91 49t102.5 31t104 10.5q113 -2 180.5 -43t100.5 -109t34 -155v-8q0 -83 -20 -173l-55 -268q-8 -37 -11 -63.5t6 -42.5q8 -17 34 -22q12 -2 28 -2q19 0 45 3l-24 -123q-57 -9 -101 -9q-90 1 -124 41q-30 36 -30 104 q0 45 13 104l59 278q17 80 17 142q0 72 -23 118q-43 86 -198 86q-66 0 -124.5 -22.5t-105.5 -62.5t-80.5 -95t-48.5 -123l-119 -565h-163z" />
<glyph unicode="i" horiz-adv-x="475" d="M33 0l211 987h159l-210 -987h-160zM289 1292q0 59 41 90t84 31q33 0 58.5 -19.5t25.5 -60.5q0 -59 -41 -90t-86 -31q-33 0 -57.5 19.5t-24.5 60.5z" />
<glyph unicode="j" horiz-adv-x="475" d="M-328 -512l31 125q40 -7 74 -7q31 0 56 6q52 13 86 49t54.5 93.5t36.5 130.5l236 1102h157l-235 -1104q-49 -233 -165 -335q-83 -72 -215 -72q-54 0 -116 12zM289 1292q0 59 41 90t84 31q35 0 59.5 -19.5t24.5 -60.5q0 -59 -41 -90t-86 -31q-33 0 -57.5 19.5t-24.5 60.5z " />
<glyph unicode="k" horiz-adv-x="1085" d="M29 0l317 1497h162l-195 -913h131q197 0 317 111.5t161 291.5h153q-33 -168 -124 -296t-263 -189l227 -484l-4 -18h-157l-207 461q-29 -6 -65 -9t-66 -3h-129l-97 -449h-161z" />
<glyph unicode="l" horiz-adv-x="557" d="M96 356l244 1145h162l-244 -1145q-16 -72 -16 -121q0 -39 10 -64q22 -56 124 -56h7q31 0 74 6l-23 -127q-78 -12 -135 -12q-152 2 -198 91q-24 47 -24 123q0 69 19 160z" />
<glyph unicode="m" horiz-adv-x="1851" d="M66 0l147 690q12 57 18.5 96t-1.5 62q-10 22 -34 30q-14 5 -37 5q-17 0 -38 -2l24 110q50 13 93 13q10 0 20 -1q50 -4 83.5 -26.5t45.5 -58.5q7 -20 7 -44q0 -20 -5 -43q86 96 173 135.5t204 39.5q63 0 109.5 -18.5t76 -49.5t45 -70t17.5 -82q80 123 187.5 171.5 t230.5 48.5q98 0 157.5 -34t86.5 -92q28 -56 29 -132v-8q0 -72 -17 -154l-70 -328q-8 -41 -12 -69.5t5 -45t35 -22.5q13 -3 32.5 -3t45.5 3l-26 -119q-64 -13 -112 -13q-72 -1 -110 29q-39 32 -39 109q0 44 13 102l76 357q11 56 11 105v9q-1 52 -19.5 89.5t-56.5 59 t-99 21.5q-125 0 -214 -80.5t-118 -216.5l-123 -573h-162l123 573q14 61 14 114q0 57 -22 98q-20 40 -61 62.5t-105 22.5q-63 0 -119.5 -20.5t-101.5 -59t-78 -94t-47 -123.5l-123 -573h-159z" />
<glyph unicode="n" horiz-adv-x="1228" d="M57 0l150 707q12 55 19 93t1 60q-5 21 -29 27q-12 3 -31 3t-44 -3l20 104q53 12 95 12q60 0 98 -25q47 -31 48 -101q0 -26 -7 -58q68 102 174 144.5t217 42.5q98 0 165.5 -32t104.5 -88q36 -56 46 -132q3 -26 3 -52q0 -54 -12 -114l-78 -371q-6 -35 -7 -57.5t10 -34.5 q10 -11 34 -15q8 -1 17 -2q20 0 47 5l-25 -113q-58 -10 -102 -10q-11 0 -22 1q-52 3 -82.5 26.5t-40.5 70.5q-3 17 -3 38q0 37 11 87l79 375q9 43 9 80q0 78 -42 130q-62 76 -184 76q-61 0 -118.5 -20t-105.5 -59t-82 -93.5t-48 -121.5l-123 -580h-162z" />
<glyph unicode="o" horiz-adv-x="1230" d="M61 393q0 154 57.5 268.5t149.5 191.5t205 115t223 38q84 0 162 -26t138.5 -76t97 -127t36.5 -177q0 -152 -53 -266.5t-142 -193.5t-205 -118.5t-241 -39.5q-86 0 -162.5 25.5t-136 77.5t-94.5 129t-35 179zM217 416q0 -74 22.5 -129.5t62.5 -93t92 -56t112 -18.5 q80 0 161 26.5t147.5 83t110.5 142.5t50 204q1 11 1 21q0 58 -20 106q-22 56 -63 94t-95.5 57t-113.5 19q-80 0 -163 -28.5t-150.5 -86t-110.5 -143t-43 -198.5z" />
<glyph unicode="p" horiz-adv-x="1222" d="M-49 -504l266 1247q6 31 10 55.5t-2 42t-27 27.5q-17 7 -47 7q-9 0 -20 -1l23 117q42 7 78 7q14 0 27 -1q46 -4 73.5 -26.5t37.5 -65.5q3 -17 3 -39q0 -31 -8 -71q68 100 163 151t205 60q16 1 32 1q98 0 166 -33q79 -38 124 -105.5t59 -157.5q8 -53 8 -108q0 -40 -4 -81 q-12 -111 -59 -209t-121 -171.5t-171 -116.5t-208 -43t-188.5 42t-124.5 152l-146 -680h-149zM309 397q0 -119 61.5 -195.5t180.5 -76.5q90 0 162.5 36t126 94t85 132t40.5 152q3 29 3 55q0 111 -48 180q-60 86 -211 86q-88 -2 -162 -42t-126 -103.5t-82 -146.5t-30 -171z " />
<glyph unicode="q" horiz-adv-x="1187" d="M60 311q-3 31 -3 62q0 62 13 125q25 125 87 221t150 160.5t197 96.5q104 30 215 30h14q104 -2 197.5 -27t179.5 -66l-303 -1417h-150l148 680q-84 -109 -177 -151.5t-214 -42.5q-113 0 -187.5 45t-115.5 118.5t-51 165.5zM233 498q-15 -68 -15 -125q0 -93 40 -155 q64 -99 205 -99q80 0 146.5 33.5t117.5 88t85 122t48 135.5l68 315q-115 55 -238 55q-82 0 -155.5 -23.5t-134 -70.5t-103.5 -115.5t-64 -160.5z" />
<glyph unicode="r" horiz-adv-x="882" d="M57 0q20 94 34.5 159.5t25 117t19.5 94.5t19.5 94t25 116.5t34.5 159.5q8 33 12 60.5t-4 44.5q-9 18 -31 26q-15 6 -41 6q-12 0 -26 -1l25 110q59 10 107 10t79 -15t44 -49q8 -21 8 -51q0 -18 -3 -40q59 92 147.5 128t186.5 36q129 0 215 -74l-68 -135q-41 31 -89 48 t-105 17q-53 0 -106.5 -18.5t-98.5 -53t-78 -83t-45 -107.5l-129 -600h-158z" />
<glyph unicode="s" horiz-adv-x="1036" d="M16 285h152q-1 -13 -2 -25q0 -38 16 -65q20 -35 55 -53.5t83.5 -24.5t97.5 -6q51 0 103 9t95 28.5t74 51t41 76.5q5 20 5 36q0 20 -7 36q-12 29 -44 47.5t-81 29.5t-115 21q-66 8 -130 22.5t-115 40.5t-83 67.5t-32 105.5q0 86 42 146.5t109.5 100.5t152.5 58.5t171 18.5 q78 0 148.5 -17.5t121 -52.5t74.5 -88q14 -31 14 -67q0 -26 -8 -56h-149q2 11 2 22q-1 29 -13 51q-16 30 -47.5 47t-75.5 25.5t-93 8.5q-51 0 -103.5 -10.5t-95.5 -32t-69.5 -55t-26.5 -81.5q0 -59 62.5 -84.5t184.5 -44.5q76 -10 149 -26.5t125 -48.5q52 -34 76 -88 q13 -30 14 -70q0 -33 -9 -72q-16 -76 -62.5 -129t-114 -87t-149.5 -50t-168 -18q-80 0 -152.5 15t-126.5 51q-56 36 -82 94q-18 40 -18 93q0 24 4 50z" />
<glyph unicode="t" horiz-adv-x="841" d="M96 877l23 106h221l82 307h133l-66 -307h363l-25 -117h-362l-109 -483q-15 -65 -15 -112q0 -32 7 -55q17 -58 64 -80q32 -15 77 -14q21 0 45 3q76 10 173 43l-9 -131q-134 -41 -240 -45h-19q-93 0 -155 36q-68 40 -90 126q-10 37 -11 84q0 62 18 141l104 487z" />
<glyph unicode="u" horiz-adv-x="1196" d="M88 242q-1 13 -1 26q0 67 17 144l123 575h162l-123 -575q-13 -63 -13 -116v-8q1 -56 20.5 -94t61.5 -59.5t107 -21.5q63 0 125 21.5t112 61.5t87 95t51 123l123 573h158l-154 -723q-12 -55 -15 -87t6 -49t31.5 -20.5t61.5 1.5l-22 -111q-60 -10 -110 -11h-6q-46 0 -78 14 q-34 15 -45 51q-4 14 -4 32q0 29 11 70q-80 -102 -178 -137t-211 -35q-98 0 -162.5 32.5t-97.5 91t-37 136.5z" />
<glyph unicode="v" horiz-adv-x="1161" d="M92 877l23 106q56 10 101 10q11 0 22 -1q53 -3 84.5 -27.5t41.5 -71.5q3 -17 3 -37q0 -37 -11 -86l-77 -358q-11 -46 -10 -88q1 -12 1 -26q4 -54 31 -93t75 -61.5t120 -22.5q109 0 183.5 46t121.5 120.5t69.5 168t28.5 189.5q3 48 3 94.5t-3 92.5q-6 90 -18 155h157 q14 -95 20 -207q2 -32 1 -65q1 -79 -9 -158q-14 -111 -50.5 -213t-104.5 -181t-172.5 -126t-253.5 -47q-96 0 -172 28.5t-123 83.5q-48 56 -64 134q-7 32 -6 68q0 50 13 108l55 252q10 51 20 93q7 32 7 56q0 9 -1 15q-3 28 -27 42q-17 9 -48 9q-14 0 -31 -2z" />
<glyph unicode="w" horiz-adv-x="1738" d="M90 874l23 111q56 10 101 9h22q53 -3 84.5 -27.5t41.5 -71.5q3 -17 3 -37q0 -37 -11 -86l-78 -369q-11 -47 -10 -87q0 -68 32 -116q50 -74 167 -75q117 0 197.5 74.5t107.5 203.5l123 584h154l-125 -584q-10 -43 -10 -80q0 -71 36 -121q56 -76 164 -77q98 0 166 46 t110 122t62 170q20 95 26 191q3 44 2 86q0 50 -4 98q-6 88 -16 151h152q14 -101 19 -213q1 -31 1 -62q0 -81 -9 -161q-13 -111 -47 -213t-96.5 -179t-158.5 -123t-232 -46q-106 0 -178.5 42t-107.5 146q-78 -109 -167 -148.5t-210 -39.5q-90 0 -156.5 28.5t-107.5 83.5 q-42 54 -54 128q-5 30 -4 62q0 49 11 105l77 361q8 41 9.5 65.5t-9 36.5t-34.5 14q-8 1 -17 1q-20 0 -49 -3z" />
<glyph unicode="x" horiz-adv-x="1003" d="M-94 0l4 18l487 506l-229 447l2 16h160l92 -178l84 -193h4l178 201l164 170h166l-2 -18l-434 -453l262 -498l-4 -18h-148l-106 203l-109 223h-4l-194 -217l-205 -209h-168z" />
<glyph unicode="y" horiz-adv-x="1216" d="M-20 -406l40 136q70 -47 159 -73t181 -26q70 0 136.5 15.5t122 52.5t97.5 98.5t62 153.5l51 225q-53 -94 -155.5 -144t-212.5 -50h-20q-97 0 -161 36q-71 39 -108 108t-43 158q-1 22 -1 45q0 67 13 138l60 278q8 39 10 65t-9.5 39t-37.5 15h-14q-23 0 -58 -4 q4 25 12.5 63t14.5 62q59 12 104 12q73 0 111 -31q41 -34 41 -112q0 -38 -10 -86l-64 -299q-18 -82 -18 -143q0 -74 26 -119q47 -82 189 -82q88 0 155.5 39t116.5 100.5t81 136t46 144.5l94 442h158l-221 -1036q-27 -127 -84.5 -215t-135 -143.5t-170 -80t-188.5 -24.5 q-98 0 -192.5 26.5t-177.5 79.5z" />
<glyph unicode="z" horiz-adv-x="937" d="M-66 0l5 20l735 828h-529q8 35 15.5 69.5t13.5 69.5h776l-4 -22l-725 -824h547l-31 -141h-803z" />
<glyph unicode="{" horiz-adv-x="604" d="M42 -220q-9 56 9 148l86 414q6 31 10.5 66.5t-1 67.5t-23 54.5t-53.5 26.5l26 121q39 6 66.5 27.5t46 52t29 65.5t16.5 68l86 397q18 90 52 145.5t83 85t112.5 39t141.5 9.5l-27 -121q-92 2 -142 -32t-71 -130l-86 -405q-8 -39 -19 -78t-29.5 -74t-46 -63.5t-68.5 -45.5 q35 -16 51 -44.5t19 -64.5t-3 -76t-14 -79l-90 -420q-20 -98 16.5 -129.5t128.5 -27.5l-29 -131q-80 0 -139 9t-94 39t-44 86z" />
<glyph unicode="|" horiz-adv-x="495" d="M14 -164q14 70 41 196t59.5 280.5t69.5 324.5t70 324.5t59.5 280.5t40.5 196h148l-340 -1602h-148z" />
<glyph unicode="}" horiz-adv-x="604" d="M-117 -354l29 131q88 -4 139 27.5t72 129.5l90 420q8 39 20.5 79t32 76t48 64.5t69.5 44.5q-33 16 -49.5 45t-21.5 64t-1 75t13 77l86 405q20 96 -16 130t-128 32l25 121q78 0 137 -9.5t95 -39t46.5 -85t-8.5 -145.5l-82 -397q-6 -33 -10 -68t0 -65.5t22.5 -52 t55.5 -27.5l-25 -121q-37 -4 -64.5 -26.5t-47 -54.5t-30.5 -67.5t-18 -66.5l-90 -414q-20 -92 -54 -148t-81 -86t-110.5 -39t-143.5 -9z" />
<glyph unicode="~" horiz-adv-x="1249" d="M133 647q51 86 117.5 135t139.5 65.5t145.5 -1t138.5 -62.5q49 -37 100 -62.5t100.5 -26.5t97.5 29t95 101q29 -14 50.5 -25.5t49.5 -25.5q-59 -96 -124.5 -145t-136 -60.5t-142.5 11t-141 69.5q-47 31 -97.5 51.5t-101.5 18.5t-102.5 -31t-100.5 -96z" />
<glyph unicode="&#xa1;" horiz-adv-x="471" d="M-72 -461l246 1120h152l-228 -1120h-170zM201 889q0 47 38 78.5t87 31.5q35 0 57.5 -21.5t22.5 -55.5q0 -49 -37 -80t-84 -31q-37 0 -60.5 21.5t-23.5 56.5z" />
<glyph unicode="&#xa2;" horiz-adv-x="1228" d="M96 395q0 115 35 209t93.5 167t136 124t161.5 80t171 35t165 -11l86 154h76l-96 -172q92 -37 146 -111.5t63 -187.5l-154 -6q-10 59 -46 99t-87 63l-391 -701q59 -16 125.5 -12t130 29.5t119 72.5t94.5 119l151 -6q-51 -111 -132 -186.5t-176 -118.5t-196.5 -51.5 t-191.5 16.5l-90 -162h-80l104 187q-98 43 -157.5 138t-59.5 232zM260 426q0 -92 38 -157.5t97 -100.5l385 694q-80 14 -172 -7t-169 -77.5t-128 -144.5t-51 -207z" />
<glyph unicode="&#xa3;" horiz-adv-x="1343" d="M-12 0l4 16q57 45 100 89.5t76 91.5t57.5 101t42.5 120q14 53 19.5 112.5t7.5 124.5h-182l26 125h164q2 168 57.5 295t143.5 210t198.5 125t225.5 42q106 2 205.5 -30.5t191.5 -92.5l-84 -123q-76 57 -168 81t-184 20q-84 -4 -162 -38t-136.5 -98.5t-92 -162 t-29.5 -228.5h496l-27 -125h-477q-2 -61 -10.5 -125.5t-30.5 -130.5q-39 -121 -137 -229q74 29 147.5 26t144 -19.5t140 -35t137.5 -18.5q76 0 128 45t77 174h137q-49 -360 -344 -360q-72 0 -159 19t-180 34.5t-185.5 12.5t-171.5 -48h-166z" />
<glyph unicode="&#xa4;" horiz-adv-x="1153" d="M111 379l141 117q-10 27 -16.5 62.5t-6.5 72.5q0 92 32 161.5t81 129.5l-90 118l123 103l92 -119q53 29 111.5 44t113.5 15q109 0 185 -51l133 111l82 -103l-129 -106q14 -29 20 -68t6 -80q0 -92 -34.5 -165.5t-90.5 -135.5l86 -106l-125 -103l-88 111q-100 -51 -209 -51 t-192 59l-146 -119zM371 662q0 -98 56 -145.5t130 -47.5q51 0 103.5 18.5t94.5 55.5t68.5 91t26.5 126q0 94 -57.5 142t-130.5 48q-51 0 -102.5 -18.5t-93.5 -55t-68.5 -90.5t-26.5 -124z" />
<glyph unicode="&#xa5;" horiz-adv-x="1157" d="M139 295l25 117h291l28 129h-290l22 114h252l-219 756l4 23h174l176 -684l463 684h188l-4 -23l-544 -756h253l-22 -114h-291l-29 -129h291l-24 -117h-291l-64 -295h-161l63 295h-291z" />
<glyph unicode="&#xa6;" horiz-adv-x="503" d="M47 -29q12 55 30.5 141.5t37 178.5t37 178t30.5 141h148l-135 -639h-148zM225 807q12 55 29.5 140t37 175t37 175t29.5 141h148l-133 -631h-148z" />
<glyph unicode="&#xa7;" horiz-adv-x="1312" d="M-6 41q43 0 82 1t80 1q-10 -63 20.5 -107.5t82.5 -71t116.5 -36.5t124.5 -8q61 2 134 16t135 45t105.5 79t43.5 118q0 68 -46.5 104.5t-112 55t-139 24.5t-128.5 12q-78 8 -148 26.5t-120 54.5t-73.5 93.5t-7.5 141.5q18 106 94.5 175.5t180.5 104.5q-74 29 -120 77 t-46 126q0 102 54 177t137 123t184.5 72.5t195.5 27.5q84 2 169 -15.5t150.5 -58.5t100.5 -105.5t19 -156.5h-158q10 57 -16.5 97t-72.5 64.5t-104.5 33.5t-109.5 7q-55 -2 -123 -15t-126 -41t-97 -74t-39 -113q0 -45 25.5 -73t69.5 -45t101.5 -26.5t120.5 -15.5 q100 -10 194.5 -26.5t161 -52.5t98.5 -98.5t9 -166.5q-23 -98 -93.5 -168t-162.5 -111q66 -29 106.5 -78t40.5 -135q0 -109 -59 -186.5t-150.5 -126.5t-200 -72.5t-204.5 -25.5q-90 -2 -183 16.5t-165 61.5t-111 110.5t-20 163.5zM297 575q0 -47 18.5 -78.5t52 -52t79 -32 t98.5 -17.5q63 -6 128 -13.5t126 -19.5q45 12 90 36t80 57.5t56.5 75.5t21.5 92q0 51 -29 84.5t-78 55t-115.5 33t-142.5 17.5q-35 4 -63.5 7t-59.5 7q-47 -12 -94 -33.5t-84 -52t-60.5 -71.5t-23.5 -95z" />
<glyph unicode="&#xa8;" horiz-adv-x="1038" d="M457 1341q0 49 37.5 80t85.5 31q37 0 60.5 -21.5t23.5 -56.5q0 -47 -38 -77.5t-87 -30.5q-35 0 -58.5 21.5t-23.5 53.5zM938 1341q0 49 37 80t86 31q37 0 59.5 -21.5t22.5 -56.5q0 -47 -38 -77.5t-85 -30.5q-37 0 -59.5 21.5t-22.5 53.5z" />
<glyph unicode="&#xa9;" horiz-adv-x="1632" d="M129 567q0 207 78 365t203 263t277.5 159.5t303.5 54.5q113 0 215.5 -36t179 -105.5t122.5 -174t46 -241.5q0 -207 -77.5 -363.5t-201.5 -263t-277.5 -161t-303.5 -54.5q-113 0 -215 35t-180 105.5t-124 174t-46 242.5zM250 588q-4 -117 31.5 -205t98 -146.5t146.5 -88 t176 -29.5q123 0 251 46t233.5 137t173 224t72.5 308q2 115 -33 202.5t-96.5 147t-144.5 89.5t-175 30q-125 0 -253 -45.5t-233.5 -135.5t-174 -224t-72.5 -310zM506 641q0 98 38 175t98 129t136 80t154 28q49 0 94 -14.5t79 -42t55.5 -70.5t23.5 -101l-97 -8 q-14 80 -65 112t-113 32q-53 0 -105 -20.5t-94 -59.5t-69 -95.5t-27 -126.5q0 -86 42 -140t135 -54q66 0 140.5 36t115.5 111h110q-29 -66 -72 -112.5t-93 -76.5t-105.5 -43t-106.5 -13q-55 0 -104 17t-87 52t-60.5 86t-22.5 119z" />
<glyph unicode="&#xaa;" horiz-adv-x="1003" d="M141 438l23 107h657l-22 -107h-658zM195 887q0 70 30.5 123t79.5 88t110.5 52t123.5 17q59 -2 116.5 -15t102.5 -40q4 16 7 31.5t7 32.5q12 47 1 79.5t-37.5 52t-65.5 29t-82 9.5q-55 0 -111.5 -11.5t-109.5 -38.5l-5 88q59 29 128 44.5t137 15.5t125 -14.5t94 -46 t52 -84t1 -125.5l-70 -334q-8 -33 4.5 -49.5t59.5 -12.5l-10 -73q-43 -10 -81 -9.5t-62.5 15t-31.5 42t9 68.5q-53 -68 -138 -94.5t-165 -26.5q-90 0 -154.5 45.5t-64.5 141.5zM326 907q0 -53 37.5 -79.5t95.5 -26.5q37 0 75.5 8t73.5 25.5t64.5 43t48.5 62.5l16 80 q-41 29 -92 41t-108 12q-39 0 -77 -10t-68 -30.5t-48 -51.5t-18 -74z" />
<glyph unicode="&#xab;" horiz-adv-x="960" d="M139 709l373 456l100 -37l-303 -419l125 -414l-115 -41zM473 709l373 456l100 -37l-303 -419l125 -414l-115 -41z" />
<glyph unicode="&#xac;" horiz-adv-x="1146" d="M158 631l30 141h834l-107 -493h-133l76 352h-700z" />
<glyph unicode="&#xad;" horiz-adv-x="948" d="M143 612l31 142h666l-31 -142h-666z" />
<glyph unicode="&#xae;" horiz-adv-x="1632" d="M131 573q0 205 74 362t192.5 263.5t267 161.5t298.5 55q113 0 220 -34.5t190 -104.5t133 -174.5t50 -243.5q0 -207 -77.5 -363.5t-201.5 -263t-277.5 -161t-303.5 -54.5q-113 0 -215 35t-180 105.5t-124 174t-46 242.5zM254 594q-2 -119 30.5 -208t93 -148.5t145.5 -88 t190 -24.5q123 4 251 52t231 139.5t170 224.5t69 307q2 119 -33 207t-99.5 145t-155.5 84t-200 25q-123 -2 -245.5 -49.5t-221 -137.5t-161 -222t-64.5 -306zM551 381l141 670h275q88 0 142 -46.5t54 -132.5q0 -92 -57 -158.5t-150 -82.5l129 -234l-2 -16h-108l-125 235 h-145l-50 -235h-104zM723 702h162q72 0 122 43t50 109q0 41 -19.5 74t-87.5 33h-172z" />
<glyph unicode="&#xaf;" horiz-adv-x="1021" d="M469 1303l27 124h608l-27 -124h-608z" />
<glyph unicode="&#xb0;" horiz-adv-x="880" d="M211 1075q0 92 37 162t96 118t132 71.5t145 23.5q55 0 104 -16.5t88 -49t61.5 -80t22.5 -110.5q0 -92 -37 -161.5t-96 -118t-133 -72t-146 -23.5q-55 0 -104 16.5t-87 48t-60.5 80t-22.5 111.5zM336 1094q0 -82 52 -123t122 -41q45 0 91 15.5t84 46t61.5 76.5t23.5 108 q0 82 -52 122.5t-122 40.5q-47 0 -93 -15t-83 -46t-60.5 -77t-23.5 -107z" />
<glyph unicode="&#xb1;" horiz-adv-x="1060" d="M49 80l29 137h760l-29 -137h-760zM197 682l28 131h297l64 297h131l-64 -297h299l-28 -131h-299l-64 -307h-131l64 307h-297z" />
<glyph unicode="&#xb2;" horiz-adv-x="817" d="M160 737l6 29l442 422q49 45 76 94t26 90t-31 67.5t-93 26.5q-139 0 -176 -131h-109q29 113 104.5 176.5t204.5 63.5q100 0 153.5 -44t62 -109.5t-25.5 -142.5t-104 -142l-307 -289h344l-22 -111h-551z" />
<glyph unicode="&#xb3;" horiz-adv-x="782" d="M164 969h112q-4 -66 36 -100.5t112 -34.5q94 0 158.5 53t64.5 145q0 41 -20.5 69.5t-54 44t-78.5 17.5t-97 -10l6 31l259 276h-357l21 103h553l-5 -21l-284 -299q92 -4 137 -61.5t45 -134.5q0 -66 -26.5 -124.5t-75.5 -103.5t-118 -70.5t-151 -25.5q-119 0 -186.5 64.5 t-50.5 181.5z" />
<glyph unicode="&#xb4;" horiz-adv-x="620" d="M416 1180l4 14l211 270l135 -59l-4 -14l-211 -211h-135z" />
<glyph unicode="&#xb6;" horiz-adv-x="1511" d="M135 711.5q-12 95.5 7.5 195t69.5 193.5t128 167.5t182.5 119t233.5 45.5h737l-391 -1840h-160l361 1692h-433l-360 -1692h-162l164 773q-117 4 -195.5 52t-124 123.5t-57.5 171z" />
<glyph unicode="&#xb7;" horiz-adv-x="489" d="M168 717q0 51 39 82.5t88 31.5q39 0 62.5 -22.5t23.5 -56.5q0 -51 -39 -83t-88 -32q-39 0 -62.5 22.5t-23.5 57.5z" />
<glyph unicode="&#xb8;" horiz-adv-x="802" d="M111 -397l28 98q20 -25 61.5 -42t85.5 -20.5t85 12t61 54.5q20 37 11 65.5t-33.5 46t-58.5 24.5t-64 3l86 179h121l-62 -129q49 -2 82 -21.5t48.5 -50.5t13 -69t-24.5 -79q-33 -61 -91.5 -94t-123 -39t-125.5 10.5t-100 51.5z" />
<glyph unicode="&#xb9;" horiz-adv-x="667" d="M141 737l23 103h164l131 620h-146l23 103h270l-153 -723h165l-22 -103h-455z" />
<glyph unicode="&#xba;" horiz-adv-x="1095" d="M119 403l28 132h785l-29 -132h-784zM229 1014q0 113 45 201t118 147t163 90t180 31q66 0 126.5 -19.5t106.5 -59.5t73.5 -99.5t27.5 -139.5q0 -113 -45 -199.5t-115.5 -146t-158.5 -90.5t-177 -31q-68 0 -130 19.5t-110 58.5t-76 98.5t-28 139.5zM371 1036 q0 -55 18.5 -96t49 -68.5t71.5 -41t86 -13.5q57 0 117.5 21.5t108.5 63.5t79 103.5t31 141.5q0 106 -64.5 160.5t-152.5 56.5q-59 0 -121 -20.5t-111 -61.5t-80.5 -102.5t-31.5 -143.5z" />
<glyph unicode="&#xbb;" horiz-adv-x="958" d="M68 295l301 414l-123 419l112 37l181 -456l-373 -455zM401 295l301 414l-122 419l112 37l180 -456l-372 -455z" />
<glyph unicode="&#xbc;" horiz-adv-x="1814" d="M102 623l21 96h166l135 635h-145l20 96h270l-155 -731h166l-21 -96h-457zM371 2l995 1432h133l-995 -1432h-133zM1001 176l13 57l551 594h131l-115 -544h92l-22 -107h-92l-37 -174h-119l37 174h-439zM1178 279h292l39 186q4 27 13.5 63.5t17.5 71.5l21 82h-2z" />
<glyph unicode="&#xbd;" horiz-adv-x="1832" d="M100 623l21 94h166l133 631h-146l23 102h270l-155 -733h166l-21 -94h-457zM367 2l995 1432h135l-997 -1432h-133zM1075 0l6 29l443 422q49 45 75.5 94t25.5 90t-30.5 67.5t-93.5 26.5q-139 0 -176 -131h-108q29 113 104.5 176.5t204.5 63.5q100 0 153.5 -44t61.5 -110 t-25 -142.5t-102 -142.5l-307 -288h344l-25 -111h-551z" />
<glyph unicode="&#xbe;" horiz-adv-x="1857" d="M135 850h113q-4 -66 36 -100.5t111 -34.5q94 0 160 53t66 145q0 41 -20.5 70t-54.5 44t-80 17.5t-97 -10.5l8 31l256 276h-357l23 103h553l-4 -21l-285 -299q92 -4 137 -61t45 -135q0 -66 -27.5 -124.5t-76.5 -103.5t-116.5 -70.5t-149.5 -25.5q-117 0 -186.5 64.5 t-53.5 181.5zM436 2l998 1432h131l-998 -1432h-131zM1042 176l13 57l553 594h131l-117 -544h92l-22 -107h-93l-36 -174h-119l37 174h-439zM1221 279h290l39 186q10 53 25.5 108.5t28.5 108.5h-2z" />
<glyph unicode="&#xbf;" horiz-adv-x="1003" d="M-70 -150q0 100 34 169t86 122.5t116.5 100.5t124 105.5t106.5 136t68 194.5h153q-27 -137 -75.5 -227.5t-107 -154t-119 -107.5t-109.5 -90t-81 -102t-32 -142t56.5 -127t160.5 -41q49 -2 98.5 11t93.5 43t78.5 73t55.5 100h156q-29 -98 -80 -169t-119 -117 t-147.5 -67.5t-165.5 -21.5q-76 0 -140.5 20.5t-110.5 59.5t-73 97.5t-27 133.5zM483 893q0 49 37 82t88 33q37 0 60.5 -21.5t23.5 -56.5q0 -51 -38 -82t-87 -31q-39 0 -61.5 20.5t-22.5 55.5z" />
<glyph unicode="&#xc0;" d="M-100 0l4 23l968 1417h78l361 -1417l-4 -23h-170l-90 354h-723l-240 -354h-184zM412 502h608l-160 669zM741 1776l2 14l162 59l96 -270l-4 -14h-135z" />
<glyph unicode="&#xc1;" d="M-100 0l4 23l968 1417h78l361 -1417l-4 -23h-170l-90 354h-723l-240 -354h-184zM412 502h608l-160 669zM872 1571l5 14l210 270l136 -59l-4 -14l-211 -211h-136z" />
<glyph unicode="&#xc2;" d="M-100 0l4 23l968 1417h78l361 -1417l-4 -23h-170l-90 354h-723l-240 -354h-184zM412 502h608l-160 669zM561 1526l4 16l342 270h162l223 -272l-2 -14h-155l-162 186l-240 -186h-172z" />
<glyph unicode="&#xc3;" d="M-100 0l4 23l968 1417h78l361 -1417l-4 -23h-170l-90 354h-723l-240 -354h-184zM412 502h608l-160 669zM606 1608q76 113 175.5 146.5t197.5 -36.5q55 -39 107.5 -37t107.5 78l80 -45q-35 -53 -78 -91t-91 -55.5t-97.5 -11t-94.5 40.5q-59 41 -114.5 41.5t-114.5 -75.5 q-18 10 -39.5 22t-38.5 23z" />
<glyph unicode="&#xc4;" d="M-100 0l4 23l968 1417h78l361 -1417l-4 -23h-170l-90 354h-723l-240 -354h-184zM412 502h608l-160 669zM612 1626q0 49 38 80t85 31q37 0 60.5 -21.5t23.5 -56.5q0 -47 -38 -78t-87 -31q-35 0 -58.5 21.5t-23.5 54.5zM1094 1626q0 49 36.5 80t86.5 31q37 0 59 -21.5 t22 -56.5q0 -47 -37.5 -78t-84.5 -31q-37 0 -59.5 21.5t-22.5 54.5z" />
<glyph unicode="&#xc5;" d="M-100 0l4 23l956 1398q-66 10 -114 54.5t-48 121.5q0 68 28 118t71 84t96 50.5t106 16.5q39 0 75 -12.5t63.5 -35t44 -56t16.5 -79.5q0 -57 -20.5 -102t-54 -78t-78 -53t-89.5 -27l355 -1400l-4 -23h-168l-92 354h-717l-244 -354h-186zM418 502h602l-162 653zM803 1616 q0 -53 37 -80t84 -27q31 0 61.5 10.5t55 30t40 49t15.5 66.5q0 53 -35 78.5t-82 25.5q-31 0 -62.5 -9t-56 -28.5t-41 -48t-16.5 -67.5z" />
<glyph unicode="&#xc6;" horiz-adv-x="1695" d="M-100 0l6 25l1026 1405h813l-31 -152h-584l-98 -463h551l-31 -145h-551l-110 -520h594l-33 -150h-743l88 410h-435l-296 -410h-166zM449 553h376l160 723h-2z" />
<glyph unicode="&#xc7;" horiz-adv-x="1556" d="M118.5 428q-22.5 129 10.5 289q35 174 120 311t202.5 231.5t261 143.5t295.5 47q104 0 198 -27.5t168 -84t120 -140.5t56 -197h-164q-12 76 -49 131.5t-91 90t-123.5 52t-147.5 17.5q-133 2 -249 -45t-205 -131t-147.5 -197.5t-76.5 -242.5q-18 -104 -5 -201.5 t63.5 -171.5t140.5 -118t225 -44q80 0 160 18.5t151.5 57.5t132 98.5t103.5 143.5h182q-55 -127 -134 -215t-172 -144.5t-196.5 -83t-206.5 -30.5l-45 -99q49 -2 82 -21.5t48.5 -50t13.5 -68.5t-25 -79q-33 -61 -91 -94t-122.5 -39t-126 10.5t-100.5 51.5l28 98 q20 -25 61.5 -42.5t85.5 -20.5t85 12.5t61 54.5q20 37 11 65.5t-33.5 46t-58 24.5t-64.5 3l72 150q-135 12 -241 67.5t-173.5 149.5t-90 223z" />
<glyph unicode="&#xc8;" horiz-adv-x="1161" d="M66 0q76 360 151.5 716.5t153.5 717.5h833l-33 -150h-661l-98 -469h639q-10 -37 -17.5 -75t-15.5 -74h-639l-109 -508h684q-8 -41 -16 -81t-16 -77h-856zM688 1769l2 15l162 59l96 -270l-4 -14h-135z" />
<glyph unicode="&#xc9;" horiz-adv-x="1161" d="M66 0q76 360 151.5 716.5t153.5 717.5h833l-33 -150h-661l-98 -469h639q-10 -37 -17.5 -75t-15.5 -74h-639l-109 -508h684q-8 -41 -16 -81t-16 -77h-856zM750 1561l4 14l211 270l135 -59l-4 -14l-211 -211h-135z" />
<glyph unicode="&#xca;" horiz-adv-x="1161" d="M66 0q76 360 151.5 716.5t153.5 717.5h833l-33 -150h-661l-98 -469h639q-10 -37 -17.5 -75t-15.5 -74h-639l-109 -508h684q-8 -41 -16 -81t-16 -77h-856zM465 1569l4 16l328 266h153l213 -268l-2 -14h-147l-156 184l-229 -184h-164z" />
<glyph unicode="&#xcb;" horiz-adv-x="1161" d="M66 0q76 360 151.5 716.5t153.5 717.5h833l-33 -150h-661l-98 -469h639q-10 -37 -17.5 -75t-15.5 -74h-639l-109 -508h684q-8 -41 -16 -81t-16 -77h-856zM496 1645q0 49 37.5 79.5t84.5 30.5q37 0 60.5 -21.5t23.5 -56.5q0 -47 -37.5 -77.5t-86.5 -30.5q-35 0 -58.5 21.5 t-23.5 54.5zM977 1645q0 49 37 79.5t86 30.5q37 0 59.5 -21.5t22.5 -56.5q0 -47 -38 -77.5t-85 -30.5q-37 0 -59.5 21.5t-22.5 54.5z" />
<glyph unicode="&#xcc;" horiz-adv-x="811" d="M-53 0q10 41 15 68.5t13 68.5h248l248 1161h-231q8 41 13 68t15 68h635q-10 -41 -15 -68t-14 -68h-231l-248 -1161h248q-8 -41 -13 -68.5t-16 -68.5h-667zM422 1778l2 14l162 59l96 -270l-4 -14h-135z" />
<glyph unicode="&#xcd;" horiz-adv-x="811" d="M-53 0q10 41 15 68.5t13 68.5h248l248 1161h-231q8 41 13 68t15 68h635q-10 -41 -15 -68t-14 -68h-231l-248 -1161h248q-8 -41 -13 -68.5t-16 -68.5h-667zM514 1559l4 14l211 270l135 -59l-4 -15l-211 -210h-135z" />
<glyph unicode="&#xce;" horiz-adv-x="811" d="M-53 0q10 41 15 68.5t13 68.5h248l248 1161h-231q8 41 13 68t15 68h635q-10 -41 -15 -68t-14 -68h-231l-248 -1161h248q-8 -41 -13 -68.5t-16 -68.5h-667zM264 1540l4 14l326 265h156l213 -267l-2 -12h-148l-156 180l-229 -180h-164z" />
<glyph unicode="&#xcf;" horiz-adv-x="811" d="M-53 0q10 41 15 68.5t13 68.5h248l248 1161h-231q8 41 13 68t15 68h635q-10 -41 -15 -68t-14 -68h-231l-248 -1161h248q-8 -41 -13 -68.5t-16 -68.5h-667zM295 1628q0 49 38 80t85 31q37 0 60.5 -21.5t23.5 -56.5q0 -47 -38 -78t-87 -31q-35 0 -58.5 21.5t-23.5 54.5z M776 1628q0 49 37 80t86 31q37 0 59.5 -21.5t22.5 -56.5q0 -47 -38 -78t-85 -31q-37 0 -59.5 21.5t-22.5 54.5z" />
<glyph unicode="&#xd0;" horiz-adv-x="1511" d="M43 637l29 137h164l141 660h508q139 0 244.5 -46.5t176 -124t106.5 -183t36 -222.5q0 -166 -57.5 -321.5t-168 -274.5t-272.5 -190.5t-370 -71.5h-508l135 637h-164zM276 156h332q143 0 265 55t211.5 148.5t139.5 215t50 254.5q0 92 -22.5 174t-74 142.5t-133 95.5 t-198.5 35h-332l-106 -502h258l-29 -137h-258z" />
<glyph unicode="&#xd1;" horiz-adv-x="1527" d="M66 0l305 1438h59l703 -1100l69 426l144 672h172l-306 -1438h-55l-702 1108l-72 -416l-147 -690h-170zM629 1597q76 113 175 147t197 -36q55 -39 107.5 -37t108.5 78l79 -45q-35 -53 -77.5 -91t-91 -55.5t-97.5 -11.5t-94 41q-59 41 -114.5 41t-114.5 -76 q-18 10 -40 22.5t-38 22.5z" />
<glyph unicode="&#xd2;" horiz-adv-x="1669" d="M115 567q0 199 72.5 364t195.5 281.5t282.5 181t335.5 64.5q129 0 241 -42t193 -118.5t128 -186.5t47 -245q0 -188 -70 -351t-191.5 -282.5t-284.5 -187.5t-349 -68q-129 0 -239.5 41t-190.5 118t-125 185.5t-45 245.5zM281 598q-4 -111 28.5 -197t93 -145t144.5 -90 t184 -31q137 0 263 52.5t222.5 145.5t156 222t63.5 281q2 111 -30 197.5t-91.5 147t-144.5 91.5t-187 31q-135 0 -260 -52.5t-222.5 -146.5t-156.5 -223t-63 -283zM879 1796l2 14l161 60l97 -271l-4 -14h-136z" />
<glyph unicode="&#xd3;" horiz-adv-x="1669" d="M115 567q0 199 72.5 364t195.5 281.5t282.5 181t335.5 64.5q129 0 241 -42t193 -118.5t128 -186.5t47 -245q0 -188 -70 -351t-191.5 -282.5t-284.5 -187.5t-349 -68q-129 0 -239.5 41t-190.5 118t-125 185.5t-45 245.5zM281 598q-4 -111 28.5 -197t93 -145t144.5 -90 t184 -31q137 0 263 52.5t222.5 145.5t156 222t63.5 281q2 111 -30 197.5t-91.5 147t-144.5 91.5t-187 31q-135 0 -260 -52.5t-222.5 -146.5t-156.5 -223t-63 -283zM977 1587l4 15l211 270l135 -60l-4 -14l-211 -211h-135z" />
<glyph unicode="&#xd4;" horiz-adv-x="1669" d="M115 567q0 199 72.5 364t195.5 281.5t282.5 181t335.5 64.5q129 0 241 -42t193 -118.5t128 -186.5t47 -245q0 -188 -70 -351t-191.5 -282.5t-284.5 -187.5t-349 -68q-129 0 -239.5 41t-190.5 118t-125 185.5t-45 245.5zM281 598q-4 -111 28.5 -197t93 -145t144.5 -90 t184 -31q137 0 263 52.5t222.5 145.5t156 222t63.5 281q2 111 -30 197.5t-91.5 147t-144.5 91.5t-187 31q-135 0 -260 -52.5t-222.5 -146.5t-156.5 -223t-63 -283zM676 1567l4 16l342 270h162l223 -272l-2 -14h-156l-162 186l-239 -186h-172z" />
<glyph unicode="&#xd5;" horiz-adv-x="1669" d="M115 567q0 199 72.5 364t195.5 281.5t282.5 181t335.5 64.5q129 0 241 -42t193 -118.5t128 -186.5t47 -245q0 -188 -70 -351t-191.5 -282.5t-284.5 -187.5t-349 -68q-129 0 -239.5 41t-190.5 118t-125 185.5t-45 245.5zM281 598q-4 -111 28.5 -197t93 -145t144.5 -90 t184 -31q137 0 263 52.5t222.5 145.5t156 222t63.5 281q2 111 -30 197.5t-91.5 147t-144.5 91.5t-187 31q-135 0 -260 -52.5t-222.5 -146.5t-156.5 -223t-63 -283zM745 1653q76 113 175.5 146.5t197.5 -36.5q55 -39 107.5 -36.5t107.5 77.5l80 -45q-35 -53 -78 -91 t-91 -55.5t-97 -11t-94 40.5q-59 41 -115 41.5t-115 -75.5q-18 10 -39.5 22t-38.5 23z" />
<glyph unicode="&#xd6;" horiz-adv-x="1669" d="M115 567q0 199 72.5 364t195.5 281.5t282.5 181t335.5 64.5q129 0 241 -42t193 -118.5t128 -186.5t47 -245q0 -188 -70 -351t-191.5 -282.5t-284.5 -187.5t-349 -68q-129 0 -239.5 41t-190.5 118t-125 185.5t-45 245.5zM281 598q-4 -111 28.5 -197t93 -145t144.5 -90 t184 -31q137 0 263 52.5t222.5 145.5t156 222t63.5 281q2 111 -30 197.5t-91.5 147t-144.5 91.5t-187 31q-135 0 -260 -52.5t-222.5 -146.5t-156.5 -223t-63 -283zM715 1659q0 49 38 79.5t85 30.5q37 0 60.5 -21.5t23.5 -55.5q0 -47 -38 -78t-87 -31q-35 0 -58.5 21.5 t-23.5 54.5zM1196 1659q0 49 37 79.5t86 30.5q37 0 59.5 -21.5t22.5 -55.5q0 -47 -38 -78t-85 -31q-37 0 -59.5 21.5t-22.5 54.5z" />
<glyph unicode="&#xd7;" horiz-adv-x="911" d="M113 489l266 222l-174 223l114 96l179 -221l270 221l76 -96l-271 -225l175 -220l-117 -96l-174 219l-269 -219z" />
<glyph unicode="&#xd8;" horiz-adv-x="1662" d="M115 565q0 199 75.5 363t201.5 280.5t288 181t336 64.5q82 0 158.5 -17.5t144.5 -54.5l119 152h166l-5 -16l-172 -211q82 -68 129.5 -181.5t47.5 -261.5q0 -201 -76 -363.5t-202 -279.5t-289 -180.5t-337 -63.5q-162 0 -288 66l-121 -149h-166l2 16l170 207 q-86 70 -134 185.5t-48 262.5zM289 600q0 -111 36.5 -198t98.5 -140l782 973q-102 53 -227 53q-135 0 -260 -51t-220.5 -142t-152.5 -218t-57 -277zM524 193q94 -51 213 -52q135 0 260 51.5t220.5 142.5t151.5 217t56 277q0 111 -32.5 194t-92.5 134z" />
<glyph unicode="&#xd9;" horiz-adv-x="1445" d="M151.5 272.5q-22.5 94.5 2.5 214.5l200 947h174l-200 -945q-20 -96 -9 -163.5t49 -109.5t100 -61.5t144 -19.5t159 23.5t140.5 68.5t108.5 110.5t63 151.5l201 945h166l-201 -947q-25 -121 -86 -215t-148 -158.5t-193.5 -98t-223.5 -33.5t-210 33.5t-153.5 98t-83 159z M733 1794l2 14l162 60l96 -271l-4 -14h-135z" />
<glyph unicode="&#xda;" horiz-adv-x="1445" d="M151.5 272.5q-22.5 94.5 2.5 214.5l200 947h174l-200 -945q-20 -96 -9 -163.5t49 -109.5t100 -61.5t144 -19.5t159 23.5t140.5 68.5t108.5 110.5t63 151.5l201 945h166l-201 -947q-25 -121 -86 -215t-148 -158.5t-193.5 -98t-223.5 -33.5t-210 33.5t-153.5 98t-83 159z M821 1577l4 14l211 271l135 -60l-4 -14l-211 -211h-135z" />
<glyph unicode="&#xdb;" horiz-adv-x="1445" d="M151.5 272.5q-22.5 94.5 2.5 214.5l200 947h174l-200 -945q-20 -96 -9 -163.5t49 -109.5t100 -61.5t144 -19.5t159 23.5t140.5 68.5t108.5 110.5t63 151.5l201 945h166l-201 -947q-25 -121 -86 -215t-148 -158.5t-193.5 -98t-223.5 -33.5t-210 33.5t-153.5 98t-83 159z M565 1575l4 16l342 271h162l223 -273l-2 -14h-155l-162 186l-240 -186h-172z" />
<glyph unicode="&#xdc;" horiz-adv-x="1445" d="M151.5 272.5q-22.5 94.5 2.5 214.5l200 947h174l-200 -945q-20 -96 -9 -163.5t49 -109.5t100 -61.5t144 -19.5t159 23.5t140.5 68.5t108.5 110.5t63 151.5l201 945h166l-201 -947q-25 -121 -86 -215t-148 -158.5t-193.5 -98t-223.5 -33.5t-210 33.5t-153.5 98t-83 159z M606 1651q0 49 38 79.5t85 30.5q37 0 60.5 -21.5t23.5 -56.5q0 -47 -38 -77.5t-87 -30.5q-35 0 -58.5 21.5t-23.5 54.5zM1087 1651q0 49 37 79.5t86 30.5q37 0 59.5 -21.5t22.5 -56.5q0 -47 -38 -77.5t-85 -30.5q-37 0 -59.5 21.5t-22.5 54.5z" />
<glyph unicode="&#xdd;" horiz-adv-x="1282" d="M205 1411l4 23h174l139 -334l131 -350h6l281 348l281 336h194l-4 -25l-690 -821l-125 -588h-172l125 588zM735 1567l4 14l211 270l135 -59l-4 -14l-211 -211h-135z" />
<glyph unicode="&#xde;" horiz-adv-x="1331" d="M66 0l305 1434h172l-47 -217h401q115 0 200 -38t136 -104.5t67.5 -157t-6.5 -192.5t-77 -191.5t-132.5 -155t-179 -103t-215.5 -37.5h-401l-51 -238h-172zM315 387h406q86 0 161.5 32t133 87t91.5 129t34 158q0 123 -73 198.5t-202 75.5h-405z" />
<glyph unicode="&#xdf;" horiz-adv-x="1206" d="M27 2l217 1024q31 143 97.5 230t153.5 132.5t187 55.5t195.5 1t180.5 -30.5t142 -40.5l-8 -43l-399 -483q66 0 120 -24.5t94 -67.5t61.5 -103.5t21.5 -132.5q0 -147 -55.5 -262t-149.5 -184.5t-220 -90t-270 20.5l29 135q90 -25 169 -15.5t141.5 49.5t106.5 107.5 t64 159.5q18 82 -4 145.5t-72.5 101.5t-122 49.5t-151.5 -9.5l12 51l398 492q-100 35 -191.5 40t-166.5 -26t-128 -99.5t-78 -178.5l-213 -1004h-161z" />
<glyph unicode="&#xe0;" horiz-adv-x="1220" d="M57.5 306q-8.5 93 14.5 198q27 121 88 215t147 158.5t193.5 97.5t228.5 33q104 -2 196.5 -27t178.5 -66l-137 -647q-8 -37 -12.5 -65.5t3 -47t30 -26.5t67.5 -4l-25 -121q-121 -20 -181.5 15.5t-35.5 152.5l8 35q-70 -113 -181.5 -167t-229.5 -54q-113 0 -188 42 t-115.5 113.5t-49 164.5zM215 345q4 -64 30.5 -111.5t78 -74t129.5 -26.5q76 0 142.5 27.5t119.5 77t91 117t56 149.5l68 315q-57 29 -119.5 41t-120.5 12q-82 0 -156.5 -27.5t-136 -77.5t-105.5 -121t-65 -159q-16 -78 -12 -142zM604 1395l2 14l150 53l88 -248l-4 -12h-125 z" />
<glyph unicode="&#xe1;" horiz-adv-x="1220" d="M57.5 306q-8.5 93 14.5 198q27 121 88 215t147 158.5t193.5 97.5t228.5 33q104 -2 196.5 -27t178.5 -66l-137 -647q-8 -37 -12.5 -65.5t3 -47t30 -26.5t67.5 -4l-25 -121q-121 -20 -181.5 15.5t-35.5 152.5l8 35q-70 -113 -181.5 -167t-229.5 -54q-113 0 -188 42 t-115.5 113.5t-49 164.5zM215 345q4 -64 30.5 -111.5t78 -74t129.5 -26.5q76 0 142.5 27.5t119.5 77t91 117t56 149.5l68 315q-57 29 -119.5 41t-120.5 12q-82 0 -156.5 -27.5t-136 -77.5t-105.5 -121t-65 -159q-16 -78 -12 -142zM645 1202l4 12l199 254l127 -55l-4 -12 l-199 -199h-127z" />
<glyph unicode="&#xe2;" horiz-adv-x="1220" d="M57.5 306q-8.5 93 14.5 198q27 121 88 215t147 158.5t193.5 97.5t228.5 33q104 -2 196.5 -27t178.5 -66l-137 -647q-8 -37 -12.5 -65.5t3 -47t30 -26.5t67.5 -4l-25 -121q-121 -20 -181.5 15.5t-35.5 152.5l8 35q-70 -113 -181.5 -167t-229.5 -54q-113 0 -188 42 t-115.5 113.5t-49 164.5zM215 345q4 -64 30.5 -111.5t78 -74t129.5 -26.5q76 0 142.5 27.5t119.5 77t91 117t56 149.5l68 315q-57 29 -119.5 41t-120.5 12q-82 0 -156.5 -27.5t-136 -77.5t-105.5 -121t-65 -159q-16 -78 -12 -142zM399 1186l2 16l304 258h143l196 -260 l-2 -14h-137l-143 178l-211 -178h-152z" />
<glyph unicode="&#xe3;" horiz-adv-x="1220" d="M57.5 306q-8.5 93 14.5 198q27 121 88 215t147 158.5t193.5 97.5t228.5 33q104 -2 196.5 -27t178.5 -66l-137 -647q-8 -37 -12.5 -65.5t3 -47t30 -26.5t67.5 -4l-25 -121q-121 -20 -181.5 15.5t-35.5 152.5l8 35q-70 -113 -181.5 -167t-229.5 -54q-113 0 -188 42 t-115.5 113.5t-49 164.5zM215 345q4 -64 30.5 -111.5t78 -74t129.5 -26.5q76 0 142.5 27.5t119.5 77t91 117t56 149.5l68 315q-57 29 -119.5 41t-120.5 12q-82 0 -156.5 -27.5t-136 -77.5t-105.5 -121t-65 -159q-16 -78 -12 -142zM479 1286q70 104 162 136t184 -33 q53 -37 101.5 -35t99.5 73l76 -43q-33 -49 -73 -83.5t-85 -52t-90 -12.5t-88 40q-29 18 -56.5 28.5t-53 9.5t-52 -17.5t-53.5 -53.5q-16 10 -36.5 21.5t-35.5 21.5z" />
<glyph unicode="&#xe4;" horiz-adv-x="1220" d="M57.5 306q-8.5 93 14.5 198q27 121 88 215t147 158.5t193.5 97.5t228.5 33q104 -2 196.5 -27t178.5 -66l-137 -647q-8 -37 -12.5 -65.5t3 -47t30 -26.5t67.5 -4l-25 -121q-121 -20 -181.5 15.5t-35.5 152.5l8 35q-70 -113 -181.5 -167t-229.5 -54q-113 0 -188 42 t-115.5 113.5t-49 164.5zM215 345q4 -64 30.5 -111.5t78 -74t129.5 -26.5q76 0 142.5 27.5t119.5 77t91 117t56 149.5l68 315q-57 29 -119.5 41t-120.5 12q-82 0 -156.5 -27.5t-136 -77.5t-105.5 -121t-65 -159q-16 -78 -12 -142zM483 1303q0 49 38 79.5t85 30.5 q37 0 60.5 -21.5t23.5 -56.5q0 -47 -38 -77.5t-87 -30.5q-35 0 -58.5 21.5t-23.5 54.5zM899 1303q0 49 37 79.5t86 30.5q37 0 59.5 -21.5t22.5 -56.5q0 -47 -38 -77.5t-85 -30.5q-37 0 -59.5 21.5t-22.5 54.5z" />
<glyph unicode="&#xe5;" horiz-adv-x="1220" d="M57.5 306q-8.5 93 14.5 198q27 121 88 215t147 158.5t193.5 97.5t228.5 33q104 -2 196.5 -27t178.5 -66l-137 -647q-8 -37 -12.5 -65.5t3 -47t30 -26.5t67.5 -4l-25 -121q-121 -20 -181.5 15.5t-35.5 152.5l8 35q-70 -113 -181.5 -167t-229.5 -54q-113 0 -188 42 t-115.5 113.5t-49 164.5zM215 345q4 -64 30.5 -111.5t78 -74t129.5 -26.5q76 0 142.5 27.5t119.5 77t91 117t56 149.5l68 315q-57 29 -119.5 41t-120.5 12q-82 0 -156.5 -27.5t-136 -77.5t-105.5 -121t-65 -159q-16 -78 -12 -142zM573 1298q0 55 25 97.5t64.5 71t89 43 t96.5 14.5q74 0 128 -39t54 -115q0 -55 -24.5 -97t-63.5 -70.5t-88 -43t-96 -14.5q-76 0 -130.5 39t-54.5 114zM670 1315q0 -45 33.5 -67.5t76.5 -22.5q27 0 55.5 9t50 25.5t36 40t14.5 54.5q0 43 -33 66.5t-78 23.5q-57 0 -106 -33t-49 -96z" />
<glyph unicode="&#xe6;" horiz-adv-x="1759" d="M56.5 265q-13.5 97 15.5 229q27 123 85 219t139 161.5t180 99.5t210 34q94 -2 166 -27t147 -66l-18 -88q74 92 178.5 137.5t214.5 47.5q70 0 138.5 -17.5t117.5 -57.5t69.5 -102.5t-3.5 -150.5q-20 -78 -65.5 -131t-104 -87t-124 -50.5t-126.5 -18.5q-92 0 -187.5 21.5 t-154.5 77.5q-45 -190 36 -287.5t261 -97.5q78 2 162 20.5t155 50.5l-20 -127q-86 -41 -170 -56t-164 -17q-262 -4 -334 190l-37 -172h-118l43 197q-61 -115 -166 -167.5t-213 -52.5q-80 0 -146.5 32t-109.5 95.5t-56.5 160.5zM200 341.5q3 -65.5 26.5 -115.5t69.5 -80.5 t120 -30.5q70 0 134 34.5t115.5 90t87 123t50.5 135.5l67 321q-51 29 -109.5 43.5t-111.5 14.5q-166 0 -283.5 -104.5t-154.5 -295.5q-14 -70 -11 -135.5zM969 618q23 -25 59.5 -43t78.5 -30.5t86 -17.5t83 -5t82 8.5t83 28t70.5 52t42.5 79.5q14 51 0 87t-45.5 59.5 t-74.5 34t-86 10.5q-119 0 -222.5 -66t-156.5 -197z" />
<glyph unicode="&#xe7;" horiz-adv-x="1161" d="M61 446q18 143 83 250t155 177.5t198.5 105.5t215.5 33q74 0 141.5 -20.5t119.5 -62.5t84 -102.5t36 -140.5h-148q-14 98 -92 142t-172 44q-72 0 -144.5 -25.5t-135 -74.5t-108.5 -120.5t-65 -164.5q-16 -74 -7 -138t43 -113.5t91.5 -79t137.5 -31.5q49 0 101 10t101 35 t93.5 63.5t76.5 98.5h170q-37 -84 -90 -144.5t-116.5 -102.5t-134 -65.5t-142.5 -31.5l-47 -101q49 -2 82 -21.5t48 -50t13 -68.5t-24 -79q-33 -61 -91.5 -94t-123 -39t-126 10.5t-100.5 51.5l29 98q20 -25 61 -42.5t85 -20.5t85 12.5t62 54.5q20 37 11 65.5t-33.5 46 t-58.5 24.5t-65 3l72 148q-86 8 -158.5 45t-124 97t-76 141t-12.5 177z" />
<glyph unicode="&#xe8;" horiz-adv-x="1097" d="M58.5 318.5q-11.5 107.5 25.5 238.5q33 113 92.5 198t138 141t173 85t198.5 31q76 0 147.5 -18.5t123 -58.5t76 -102.5t5.5 -148.5q-18 -80 -66 -136t-110.5 -90t-134.5 -49.5t-137 -15.5q-98 0 -200.5 22.5t-168.5 78.5q-47 -193 41 -288t281 -95q86 0 176 25.5 t168 58.5l-21 -140q-92 -41 -182 -56t-176 -17q-133 -2 -230.5 37.5t-152.5 115.5t-66.5 183.5zM262 618q25 -25 64 -43t83 -30.5t90 -17.5t89 -5t89 8.5t87 28t73.5 52t47.5 79.5q14 51 -2.5 87t-51 59.5t-82 34t-92.5 10.5q-129 0 -234.5 -66t-160.5 -197zM561 1407l2 14 l152 56l90 -254l-4 -13h-127z" />
<glyph unicode="&#xe9;" horiz-adv-x="1097" d="M58.5 318.5q-11.5 107.5 25.5 238.5q33 113 92.5 198t138 141t173 85t198.5 31q76 0 147.5 -18.5t123 -58.5t76 -102.5t5.5 -148.5q-18 -80 -66 -136t-110.5 -90t-134.5 -49.5t-137 -15.5q-98 0 -200.5 22.5t-168.5 78.5q-47 -193 41 -288t281 -95q86 0 176 25.5 t168 58.5l-21 -140q-92 -41 -182 -56t-176 -17q-133 -2 -230.5 37.5t-152.5 115.5t-66.5 183.5zM262 618q25 -25 64 -43t83 -30.5t90 -17.5t89 -5t89 8.5t87 28t73.5 52t47.5 79.5q14 51 -2.5 87t-51 59.5t-82 34t-92.5 10.5q-129 0 -234.5 -66t-160.5 -197zM645 1212l2 15 l197 250l125 -56l-2 -12l-197 -197h-125z" />
<glyph unicode="&#xea;" horiz-adv-x="1097" d="M58.5 318.5q-11.5 107.5 25.5 238.5q33 113 92.5 198t138 141t173 85t198.5 31q76 0 147.5 -18.5t123 -58.5t76 -102.5t5.5 -148.5q-18 -80 -66 -136t-110.5 -90t-134.5 -49.5t-137 -15.5q-98 0 -200.5 22.5t-168.5 78.5q-47 -193 41 -288t281 -95q86 0 176 25.5 t168 58.5l-21 -140q-92 -41 -182 -56t-176 -17q-133 -2 -230.5 37.5t-152.5 115.5t-66.5 183.5zM262 618q25 -25 64 -43t83 -30.5t90 -17.5t89 -5t89 8.5t87 28t73.5 52t47.5 79.5q14 51 -2.5 87t-51 59.5t-82 34t-92.5 10.5q-129 0 -234.5 -66t-160.5 -197zM385 1184l4 16 l316 250h151l207 -252l-2 -14h-146l-149 174l-221 -174h-160z" />
<glyph unicode="&#xeb;" horiz-adv-x="1097" d="M58.5 318.5q-11.5 107.5 25.5 238.5q33 113 92.5 198t138 141t173 85t198.5 31q76 0 147.5 -18.5t123 -58.5t76 -102.5t5.5 -148.5q-18 -80 -66 -136t-110.5 -90t-134.5 -49.5t-137 -15.5q-98 0 -200.5 22.5t-168.5 78.5q-47 -193 41 -288t281 -95q86 0 176 25.5 t168 58.5l-21 -140q-92 -41 -182 -56t-176 -17q-133 -2 -230.5 37.5t-152.5 115.5t-66.5 183.5zM262 618q25 -25 64 -43t83 -30.5t90 -17.5t89 -5t89 8.5t87 28t73.5 52t47.5 79.5q14 51 -2.5 87t-51 59.5t-82 34t-92.5 10.5q-129 0 -234.5 -66t-160.5 -197zM436 1317 q0 43 35 71.5t78 28.5q35 0 57.5 -19.5t22.5 -51.5q0 -41 -36 -71t-81 -30q-35 0 -55.5 20.5t-20.5 51.5zM856 1317q0 43 34 71.5t81 28.5q35 0 55.5 -19.5t20.5 -51.5q0 -41 -35 -71t-78 -30q-35 0 -56.5 20.5t-21.5 51.5z" />
<glyph unicode="&#xec;" horiz-adv-x="479" d="M35 0l209 985h162l-209 -985h-162zM203 1401l2 12l155 57l95 -260l-4 -14h-132z" />
<glyph unicode="&#xed;" horiz-adv-x="479" d="M35 0l209 985h162l-209 -985h-162zM285 1198l2 12l202 260l129 -57l-4 -14l-200 -201h-129z" />
<glyph unicode="&#xee;" horiz-adv-x="479" d="M31 1161l4 17l289 280h135l188 -282v-15h-133l-135 193l-203 -193h-145zM35 0l209 985h162l-209 -985h-162z" />
<glyph unicode="&#xef;" horiz-adv-x="479" d="M35 0l209 985h162l-209 -985h-162zM119 1341q0 49 38 80t85 31q37 0 60.5 -21.5t23.5 -56.5q0 -47 -38 -77.5t-87 -30.5q-35 0 -58.5 21.5t-23.5 53.5zM477 1341q0 49 37 80t86 31q37 0 59.5 -21.5t22.5 -56.5q0 -47 -38 -77.5t-85 -30.5q-37 0 -59.5 21.5t-22.5 53.5z " />
<glyph unicode="&#xf0;" horiz-adv-x="1214" d="M57 381q0 141 55.5 249.5t144.5 182.5t198.5 112t218.5 40q41 0 84 -8.5t82 -23.5t70.5 -39t50.5 -54q-14 86 -61.5 168t-94.5 151l-150 -90l-30 66l143 88q-37 57 -81 106t-95 88l2 8h143q39 -29 73 -62.5t67 -74.5l147 92l31 -65l-133 -86q86 -123 139 -284t53 -322 q0 -160 -56.5 -281t-145.5 -201t-202.5 -119.5t-226.5 -39.5q-84 0 -161.5 24.5t-136 74.5t-93.5 125t-35 175zM221 408q0 -72 23.5 -125.5t64.5 -89t94.5 -53t112.5 -17.5q78 0 157 28.5t141.5 83t102 134.5t39.5 182q0 70 -24.5 123t-66.5 89t-96 53.5t-114 17.5 q-78 0 -155.5 -28t-139 -82t-100.5 -134t-39 -182z" />
<glyph unicode="&#xf1;" horiz-adv-x="1228" d="M57 0l150 707q12 55 19 93t1 59.5t-29.5 28.5t-74.5 1l20 104q129 29 193.5 -13t40.5 -159q68 102 174 144.5t217 42.5q98 0 165.5 -32t104.5 -88.5t46.5 -133t-9.5 -166.5l-78 -371q-6 -35 -7 -57.5t9.5 -34.5t34 -15.5t64.5 3.5l-25 -113q-72 -12 -124 -9t-82.5 26.5 t-40 70.5t7.5 125l79 375q29 135 -32.5 212t-184.5 77q-61 0 -118.5 -21.5t-105.5 -59.5t-82 -93.5t-48 -122.5l-123 -580h-162zM432 1292q72 106 166 138t186 -33q53 -37 102.5 -35t100.5 74l76 -43q-33 -51 -74 -87t-85 -52.5t-91 -10.5t-90 39q-53 41 -108.5 39 t-108.5 -72q-16 10 -36.5 21.5t-37.5 21.5z" />
<glyph unicode="&#xf2;" horiz-adv-x="1230" d="M61 393q0 154 58.5 268.5t149.5 192.5t205 117t224 39q84 0 162 -26t138.5 -78t96 -129t35.5 -177q0 -152 -53 -266.5t-142 -192.5t-205 -117.5t-241 -39.5q-86 0 -162.5 25.5t-136 76.5t-94.5 128t-35 179zM217 416q0 -74 22.5 -129.5t62.5 -92t92 -55t112 -18.5 q80 0 161 26.5t147.5 82t110.5 141.5t50 204q4 72 -18.5 128.5t-62.5 94.5t-94.5 58.5t-113.5 20.5q-80 0 -163 -30t-150.5 -87.5t-111.5 -144t-44 -199.5zM582 1389l2 12l149 55l90 -250l-4 -12h-125z" />
<glyph unicode="&#xf3;" horiz-adv-x="1230" d="M61 393q0 154 58.5 268.5t149.5 192.5t205 117t224 39q84 0 162 -26t138.5 -78t96 -129t35.5 -177q0 -152 -53 -266.5t-142 -192.5t-205 -117.5t-241 -39.5q-86 0 -162.5 25.5t-136 76.5t-94.5 128t-35 179zM217 416q0 -74 22.5 -129.5t62.5 -92t92 -55t112 -18.5 q80 0 161 26.5t147.5 82t110.5 141.5t50 204q4 72 -18.5 128.5t-62.5 94.5t-94.5 58.5t-113.5 20.5q-80 0 -163 -30t-150.5 -87.5t-111.5 -144t-44 -199.5zM666 1198l2 14l196 250l125 -55l-2 -12l-196 -197h-125z" />
<glyph unicode="&#xf4;" horiz-adv-x="1230" d="M61 393q0 154 58.5 268.5t149.5 192.5t205 117t224 39q84 0 162 -26t138.5 -78t96 -129t35.5 -177q0 -152 -53 -266.5t-142 -192.5t-205 -117.5t-241 -39.5q-86 0 -162.5 25.5t-136 76.5t-94.5 128t-35 179zM217 416q0 -74 22.5 -129.5t62.5 -92t92 -55t112 -18.5 q80 0 161 26.5t147.5 82t110.5 141.5t50 204q4 72 -18.5 128.5t-62.5 94.5t-94.5 58.5t-113.5 20.5q-80 0 -163 -30t-150.5 -87.5t-111.5 -144t-44 -199.5zM391 1171l4 17l314 258h147l205 -260l-2 -15h-144l-147 179l-219 -179h-158z" />
<glyph unicode="&#xf5;" horiz-adv-x="1230" d="M61 393q0 154 58.5 268.5t149.5 192.5t205 117t224 39q84 0 162 -26t138.5 -78t96 -129t35.5 -177q0 -152 -53 -266.5t-142 -192.5t-205 -117.5t-241 -39.5q-86 0 -162.5 25.5t-136 76.5t-94.5 128t-35 179zM217 416q0 -74 22.5 -129.5t62.5 -92t92 -55t112 -18.5 q80 0 161 26.5t147.5 82t110.5 141.5t50 204q4 72 -18.5 128.5t-62.5 94.5t-94.5 58.5t-113.5 20.5q-80 0 -163 -30t-150.5 -87.5t-111.5 -144t-44 -199.5zM455 1290q72 106 166 138t186 -33q53 -37 102 -35t101 74l75 -43q-33 -51 -73.5 -87t-84.5 -52.5t-91.5 -10.5 t-90.5 39q-53 41 -108.5 39t-108.5 -72q-16 10 -36.5 21.5t-36.5 21.5z" />
<glyph unicode="&#xf6;" horiz-adv-x="1230" d="M61 393q0 154 58.5 268.5t149.5 192.5t205 117t224 39q84 0 162 -26t138.5 -78t96 -129t35.5 -177q0 -152 -53 -266.5t-142 -192.5t-205 -117.5t-241 -39.5q-86 0 -162.5 25.5t-136 76.5t-94.5 128t-35 179zM217 416q0 -74 22.5 -129.5t62.5 -92t92 -55t112 -18.5 q80 0 161 26.5t147.5 82t110.5 141.5t50 204q4 72 -18.5 128.5t-62.5 94.5t-94.5 58.5t-113.5 20.5q-80 0 -163 -30t-150.5 -87.5t-111.5 -144t-44 -199.5zM467 1317q0 43 35 71.5t78 28.5q35 0 57 -19.5t22 -51.5q0 -41 -35.5 -71t-80.5 -30q-35 0 -55.5 20.5t-20.5 51.5z M872 1317q0 43 34 71.5t81 28.5q35 0 55.5 -19.5t20.5 -51.5q0 -41 -35 -71t-78 -30q-35 0 -56.5 20.5t-21.5 51.5z" />
<glyph unicode="&#xf7;" horiz-adv-x="1099" d="M166 664l31 141h798l-30 -141h-799zM406 383q0 49 36.5 80t83.5 31q37 0 61.5 -21.5t24.5 -56.5q0 -47 -39 -78t-86 -31q-37 0 -59 20.5t-22 55.5zM547 1053q0 49 38 79.5t85 30.5q37 0 60.5 -21.5t23.5 -56.5q0 -47 -38 -77.5t-85 -30.5q-37 0 -60.5 20.5t-23.5 55.5z " />
<glyph unicode="&#xf8;" horiz-adv-x="1222" d="M61 395q0 125 39 224.5t104.5 173t150.5 123t176.5 72t182.5 20.5t171 -31l98 137h131l-135 -186q68 -49 108.5 -133t40.5 -197q0 -121 -37.5 -219t-101 -172t-146.5 -124t-173 -74.5t-181.5 -23.5t-169.5 27l-90 -127h-131l125 174q-72 47 -117 133.5t-45 202.5z M219 428q0 -80 31 -139.5t80 -91.5l467 651q-82 33 -182.5 20.5t-188.5 -66.5t-147.5 -148.5t-59.5 -225.5zM408 141q82 -27 180 -12.5t182 69t141.5 146.5t57.5 221q0 76 -27 133.5t-70 89.5z" />
<glyph unicode="&#xf9;" horiz-adv-x="1196" d="M88 241.5q-4 77.5 16 170.5l123 575h162l-123 -575q-14 -68 -13 -123.5t20.5 -93t61.5 -59t107 -21.5q63 0 125 21.5t112 60.5t87 94t51 123l123 573h158l-154 -723q-12 -55 -15 -87t6 -49t31.5 -20.5t61.5 1.5l-22 -111q-59 -10 -109.5 -11t-84.5 14t-45 51t7 102 q-80 -102 -178 -136t-211 -34q-98 0 -162.5 32.5t-97.5 90t-37 135zM565 1403l2 14l154 56l92 -256l-4 -15h-129z" />
<glyph unicode="&#xfa;" horiz-adv-x="1196" d="M88 241.5q-4 77.5 16 170.5l123 575h162l-123 -575q-14 -68 -13 -123.5t20.5 -93t61.5 -59t107 -21.5q63 0 125 21.5t112 60.5t87 94t51 123l123 573h158l-154 -723q-12 -55 -15 -87t6 -49t31.5 -20.5t61.5 1.5l-22 -111q-59 -10 -109.5 -11t-84.5 14t-45 51t7 102 q-80 -102 -178 -136t-211 -34q-98 0 -162.5 32.5t-97.5 90t-37 135zM625 1196l4 12l198 254l127 -55l-4 -12l-198 -199h-127z" />
<glyph unicode="&#xfb;" horiz-adv-x="1196" d="M88 241.5q-4 77.5 16 170.5l123 575h162l-123 -575q-14 -68 -13 -123.5t20.5 -93t61.5 -59t107 -21.5q63 0 125 21.5t112 60.5t87 94t51 123l123 573h158l-154 -723q-12 -55 -15 -87t6 -49t31.5 -20.5t61.5 1.5l-22 -111q-59 -10 -109.5 -11t-84.5 14t-45 51t7 102 q-80 -102 -178 -136t-211 -34q-98 0 -162.5 32.5t-97.5 90t-37 135zM360 1184l5 14l327 258h154l213 -260l-2 -12h-148l-155 178l-230 -178h-164z" />
<glyph unicode="&#xfc;" horiz-adv-x="1196" d="M88 241.5q-4 77.5 16 170.5l123 575h162l-123 -575q-14 -68 -13 -123.5t20.5 -93t61.5 -59t107 -21.5q63 0 125 21.5t112 60.5t87 94t51 123l123 573h158l-154 -723q-12 -55 -15 -87t6 -49t31.5 -20.5t61.5 1.5l-22 -111q-59 -10 -109.5 -11t-84.5 14t-45 51t7 102 q-80 -102 -178 -136t-211 -34q-98 0 -162.5 32.5t-97.5 90t-37 135zM389 1303q0 47 37 76.5t82 29.5q37 0 59.5 -20.5t22.5 -55.5q0 -45 -37 -74.5t-84 -29.5q-35 0 -57.5 20.5t-22.5 53.5zM858 1303q0 47 36 76.5t85 29.5q35 0 57.5 -20.5t22.5 -55.5q0 -45 -37 -74.5 t-84 -29.5q-37 0 -58.5 20.5t-21.5 53.5z" />
<glyph unicode="&#xfd;" horiz-adv-x="1216" d="M-27 -428l41 135q88 -57 206 -83.5t230.5 -5t202.5 100t125 232.5l49 217q-53 -94 -155.5 -144.5t-212.5 -50.5q-117 -4 -188.5 38t-106.5 112t-38 160t15 184l60 278q8 39 10 65t-9.5 39t-37 15t-72.5 -4q4 25 12.5 63t14.5 62q154 31 215 -19.5t31 -197.5l-64 -299 q-39 -180 7 -266t188 -86q88 0 155.5 41t117.5 103.5t82 138t46 145.5l94 442h158l-221 -1036q-27 -127 -85.5 -218t-137 -150.5t-172 -88.5t-190.5 -29t-192.5 27t-177.5 80zM623 1186l4 14l211 270l135 -59l-4 -14l-211 -211h-135z" />
<glyph unicode="&#xfe;" horiz-adv-x="1196" d="M-78 -506l420 1979h160l-119 -562q141 78 270 91.5t227.5 -28.5t157 -135.5t58.5 -228.5q0 -127 -41 -232.5t-108.5 -185t-158 -130t-188.5 -65.5t-199.5 7.5t-191.5 87.5l-127 -598h-160zM238 240q61 -57 137 -85t152.5 -25t149.5 35t129 89t90 140.5t34 189.5 q0 111 -51.5 179t-133 92t-186 1.5t-209.5 -92.5z" />
<glyph unicode="&#xff;" horiz-adv-x="1216" d="M-27 -428l41 135q88 -57 206 -83.5t230.5 -5t202.5 100t125 232.5l49 217q-53 -94 -155.5 -144.5t-212.5 -50.5q-117 -4 -188.5 38t-106.5 112t-38 160t15 184l60 278q8 39 10 65t-9.5 39t-37 15t-72.5 -4q4 25 12.5 63t14.5 62q154 31 215 -19.5t31 -197.5l-64 -299 q-39 -180 7 -266t188 -86q88 0 155.5 41t117.5 103.5t82 138t46 145.5l94 442h158l-221 -1036q-27 -127 -85.5 -218t-137 -150.5t-172 -88.5t-190.5 -29t-192.5 27t-177.5 80zM414 1309q0 49 37.5 79.5t85.5 30.5q37 0 60.5 -21.5t23.5 -56.5q0 -47 -38 -77.5t-87 -30.5 q-35 0 -58.5 21.5t-23.5 54.5zM895 1309q0 49 37 79.5t86 30.5q37 0 59.5 -21.5t22.5 -56.5q0 -47 -38 -77.5t-85 -30.5q-37 0 -59.5 21.5t-22.5 54.5z" />
<glyph unicode="&#x152;" horiz-adv-x="1902" d="M115 555q0 205 71.5 371t196.5 283.5t291 181t354 63.5q51 0 105.5 -5t107.5 -17h713q-8 -41 -15.5 -73t-15.5 -71h-598l-100 -471h565q-8 -41 -14.5 -70.5t-14.5 -68.5h-565q-27 -123 -56.5 -263.5t-56.5 -269.5h609q-10 -37 -16.5 -71.5t-14.5 -71.5h-731 q-59 -14 -116.5 -21.5t-113.5 -7.5q-135 0 -242.5 40t-184 116t-117.5 183.5t-41 242.5zM285 582q0 -104 30.5 -191.5t89 -150t143.5 -97t195 -34.5q96 0 191 26l244 1155q-45 10 -88 16.5t-89 6.5q-158 0 -288.5 -55.5t-226 -152.5t-148.5 -231t-53 -292z" />
<glyph unicode="&#x153;" horiz-adv-x="1857" d="M61 383q0 154 53.5 270.5t137.5 195.5t189.5 120t207.5 41q123 2 222.5 -59.5t138.5 -184.5q82 117 199.5 179.5t258.5 66.5q72 0 141.5 -18.5t120 -57.5t71 -102.5t-4.5 -151.5q-20 -78 -66.5 -132t-105.5 -88t-125.5 -50.5t-128.5 -18.5q-47 0 -96 5t-95 16.5t-86 30 t-71 47.5q-47 -193 34 -291.5t265 -98.5q78 2 165 21.5t159 52.5l-21 -129q-88 -41 -173 -56.5t-167 -17.5q-162 -2 -262 60.5t-133 185.5q-92 -119 -214 -178t-245 -57q-74 0 -141.5 25.5t-117.5 75.5t-80 125t-30 173zM215 410q0 -74 21.5 -128.5t57.5 -91t83 -54 t100 -17.5q72 0 146.5 30.5t135 89t99.5 144.5t39 197q0 74 -21.5 128t-57.5 91t-84 55t-101 18q-72 0 -146.5 -30.5t-135 -89t-98.5 -144t-38 -198.5zM1063 614q23 -25 58.5 -43t76.5 -30.5t85 -17.5t85 -5q39 0 83 8.5t84 28.5t70.5 52t43.5 81q16 51 1.5 87t-47 59.5 t-76.5 34t-87 10.5q-123 0 -223.5 -65t-153.5 -200z" />
<glyph unicode="&#x178;" horiz-adv-x="1282" d="M205 1411l4 23h174l139 -334l131 -350h6l281 348l281 336h194l-4 -25l-690 -821l-125 -588h-172l125 588zM510 1616q0 49 38 79.5t85 30.5q37 0 60.5 -21.5t23.5 -55.5q0 -47 -38 -78t-87 -31q-35 0 -58.5 21.5t-23.5 54.5zM991 1616q0 49 37 79.5t86 30.5 q37 0 59.5 -21.5t22.5 -55.5q0 -47 -38 -78t-85 -31q-37 0 -59.5 21.5t-22.5 54.5z" />
<glyph unicode="&#x2c6;" horiz-adv-x="1011" d="M389 1153l4 16l342 271h162l223 -273l-2 -14h-155l-162 186l-240 -186h-172z" />
<glyph unicode="&#x2dc;" horiz-adv-x="860" d="M401 1298q76 113 175.5 147t197.5 -36q55 -39 107.5 -37t107.5 78l80 -45q-35 -53 -78 -91t-91 -55.5t-97 -11.5t-94 41q-59 41 -115 41t-115 -76q-18 10 -39.5 22.5t-38.5 22.5z" />
<glyph unicode="&#x2000;" horiz-adv-x="936" />
<glyph unicode="&#x2001;" horiz-adv-x="1872" />
<glyph unicode="&#x2002;" horiz-adv-x="936" />
<glyph unicode="&#x2003;" horiz-adv-x="1872" />
<glyph unicode="&#x2004;" horiz-adv-x="624" />
<glyph unicode="&#x2005;" horiz-adv-x="468" />
<glyph unicode="&#x2006;" horiz-adv-x="312" />
<glyph unicode="&#x2007;" horiz-adv-x="312" />
<glyph unicode="&#x2008;" horiz-adv-x="234" />
<glyph unicode="&#x2009;" horiz-adv-x="374" />
<glyph unicode="&#x200a;" horiz-adv-x="104" />
<glyph unicode="&#x2010;" horiz-adv-x="948" d="M143 612l31 142h666l-31 -142h-666z" />
<glyph unicode="&#x2011;" horiz-adv-x="948" d="M143 612l31 142h666l-31 -142h-666z" />
<glyph unicode="&#x2012;" horiz-adv-x="948" d="M143 612l31 142h666l-31 -142h-666z" />
<glyph unicode="&#x2013;" horiz-adv-x="1120" d="M143 612l31 142h838l-31 -142h-838z" />
<glyph unicode="&#x2014;" horiz-adv-x="1300" d="M143 612l31 142h1018l-31 -142h-1018z" />
<glyph unicode="&#x2018;" horiz-adv-x="450" d="M254 1174v17t4 17q4 12 9 24.5t12 24.5l96 181h102l-74 -148q57 -14 58 -73q0 -49 -38 -80t-87 -31q-35 0 -58.5 18.5t-23.5 49.5z" />
<glyph unicode="&#x2019;" horiz-adv-x="454" d="M268 1108l74 145q-53 16 -53 76q0 49 35.5 80t85.5 31q35 0 58.5 -18.5t25.5 -49.5q0 -10 -0.5 -17.5t-4.5 -17.5q-4 -14 -10 -25.5t-12 -23.5l-96 -180h-103z" />
<glyph unicode="&#x201a;" horiz-adv-x="487" d="M10 -176l78 153q-25 8 -40 28t-15 48q0 49 36.5 80t86.5 31q35 0 58.5 -18.5t25.5 -51.5q0 -21 -4 -33q-4 -14 -11.5 -26t-13.5 -25q-27 -47 -50.5 -93t-47.5 -93h-103z" />
<glyph unicode="&#x201c;" horiz-adv-x="753" d="M254 1171v17.5t4 17.5q4 12 8 23.5t13 25.5l96 179h102l-74 -146q53 -16 54 -74q0 -49 -36 -79.5t-85 -30.5q-35 0 -58.5 17.5t-23.5 49.5zM557 1171v17.5t4 17.5q4 12 9 23.5t14 25.5l96 179h100l-71 -146q53 -16 53 -74q0 -49 -36 -79.5t-85 -30.5q-35 0 -58.5 17.5 t-25.5 49.5z" />
<glyph unicode="&#x201d;" horiz-adv-x="765" d="M268 1108l74 145q-53 16 -53 76q0 49 35.5 80t85.5 31q35 0 58.5 -18.5t25.5 -49.5q0 -10 -0.5 -17.5t-4.5 -17.5q-4 -14 -10 -25.5t-12 -23.5l-96 -180h-103zM582 1108l71 145q-53 16 -53 76q0 49 36 80t85 31q35 0 58.5 -18.5t25.5 -49.5v-17.5t-4 -17.5 q-4 -14 -10.5 -25.5t-12.5 -23.5l-96 -180h-100z" />
<glyph unicode="&#x201e;" horiz-adv-x="833" d="M10 -170l76 147q-53 16 -53 76q0 49 35.5 80t87.5 31q35 0 57.5 -18.5t22.5 -51.5q0 -10 0.5 -17.5t-3.5 -15.5q-8 -23 -22 -49q-27 -47 -51.5 -92t-46.5 -90h-103zM358 -170l76 147q-25 8 -40 28t-15 48q0 49 38 80t87 31q76 0 80 -70q0 -21 -4 -33t-9.5 -24t-11.5 -25 q-27 -47 -51.5 -92t-46.5 -90h-103z" />
<glyph unicode="&#x2022;" horiz-adv-x="782" d="M199 698q0 51 22.5 95.5t58 75t83 48t96.5 17.5q78 0 129 -44t51 -122q0 -51 -23.5 -94t-60.5 -75t-85 -50.5t-97 -18.5q-76 0 -125 48.5t-49 119.5z" />
<glyph unicode="&#x2026;" horiz-adv-x="1363" d="M33 61q0 53 39 84t88 31q39 0 63.5 -21.5t24.5 -58.5q0 -49 -39 -81.5t-90 -32.5q-39 0 -62.5 22.5t-23.5 56.5zM465 61q0 53 39 84t88 31q39 0 63.5 -21.5t24.5 -58.5q0 -49 -39 -81.5t-90 -32.5q-39 0 -62.5 22.5t-23.5 56.5zM907 61q0 51 38 83t89 32q37 0 61.5 -21.5 t24.5 -58.5q0 -49 -39 -81.5t-88 -32.5q-39 0 -62.5 22.5t-23.5 56.5z" />
<glyph unicode="&#x202f;" horiz-adv-x="374" />
<glyph unicode="&#x2039;" horiz-adv-x="626" d="M139 709l373 456l100 -37l-303 -419l125 -414l-115 -41z" />
<glyph unicode="&#x203a;" horiz-adv-x="624" d="M68 295l301 414l-123 419l112 37l181 -456l-373 -455z" />
<glyph unicode="&#x205f;" horiz-adv-x="468" />
<glyph unicode="&#x20ac;" horiz-adv-x="1333" d="M76 518l26 123h152q6 72 35 162h-152l25 119h172q57 123 143 221t191.5 165.5t225.5 104.5t247 37q129 0 239 -43l-80 -137q-86 35 -186 35q-96 0 -186 -28t-169 -79t-141.5 -120.5t-105.5 -155.5h541l-70 -119h-526q-16 -41 -23.5 -82t-11.5 -80h477l-70 -123h-409 q6 -86 33.5 -157.5t81 -122t131 -79t186.5 -28.5q66 0 134.5 14.5t127.5 40.5l25 -141q-154 -63 -314 -63q-133 0 -239.5 36.5t-181 106.5t-115.5 169t-43 224h-170z" />
<glyph unicode="&#x2122;" horiz-adv-x="1540" d="M289 1335l20 101h514l-20 -101h-201l-100 -471h-113l100 471h-200zM805 864l121 572h61l189 -297l313 297h61l-120 -572h-115l74 350l-244 -235h-8l-144 235l-73 -350h-115z" />
</font>
</defs>
</svg>
