<?xml version="1.0" standalone="no"?>
<!DOCTYPE svg PUBLIC "-//W3C//DTD SVG 1.1//EN" "http://www.w3.org/Graphics/SVG/1.1/DTD/svg11.dtd" >
<svg xmlns="http://www.w3.org/2000/svg">
<metadata></metadata>
<defs>
<font id="introsemibold" horiz-adv-x="1210" >
<font-face units-per-em="2048" ascent="1536" descent="-512" />
<missing-glyph horiz-adv-x="514" />
<glyph horiz-adv-x="0" />
<glyph horiz-adv-x="0" />
<glyph unicode="&#xd;" horiz-adv-x="448" />
<glyph unicode=" "  horiz-adv-x="514" />
<glyph unicode="&#x09;" horiz-adv-x="514" />
<glyph unicode="&#xa0;" horiz-adv-x="514" />
<glyph unicode="!" horiz-adv-x="559" d="M141 96q0 59 39 92t96 33q55 0 95.5 -32.5t40.5 -92.5q0 -55 -40.5 -90t-95.5 -35q-57 0 -96 35t-39 90zM156 1436h243l-12 -1106h-213z" />
<glyph unicode="&#x22;" horiz-adv-x="761" d="M143 989v445h181l-27 -445h-154zM451 989v445h180l-27 -445h-153z" />
<glyph unicode="#" horiz-adv-x="1429" d="M88 387v160h242l45 293h-223v161h247l64 431h199l-62 -431h348l66 431h198l-61 -431h188v-161h-213l-43 -293h191v-160h-213l-55 -387h-207l57 387h-344l-55 -387h-209l57 387h-217zM526 543h359l45 303h-359z" />
<glyph unicode="$" horiz-adv-x="1316" d="M88 408h229q2 -53 29 -92.5t67 -66t89 -41.5t98 -20v451q-92 10 -180 32.5t-156.5 67.5t-109.5 115t-41 172q0 104 42 182t109.5 131.5t155.5 83t180 35.5v139h121v-143q88 -8 171 -38t148.5 -81t105.5 -125.5t42 -173.5h-223q-4 53 -24.5 90t-54.5 60.5t-76 37t-89 19.5 v-422q102 -12 195.5 -34.5t164 -67.5t112.5 -120t42 -191q0 -102 -45 -179t-118 -130.5t-165 -84t-186 -39.5v-139h-121v137q-96 8 -187 38t-163 83t-116 131t-46 183zM348 1032q0 -53 21.5 -87t57.5 -55.5t81 -33.5t92 -20v407q-43 -4 -88 -17.5t-82 -39t-59.5 -63.5 t-22.5 -91zM721 190q49 6 98 19.5t88 38t63.5 63.5t24.5 97q0 61 -22.5 99t-60.5 60.5t-88 34.5t-103 23v-435z" />
<glyph unicode="%" horiz-adv-x="1798" d="M72 1106q0 119 52 197.5t131 117.5t170 39t170 -39t131 -117.5t52 -197.5t-52 -197t-131 -117.5t-170 -39.5t-170 39.5t-131 117.5t-52 197zM254 1106q0 -66 25.5 -109t63.5 -64.5t83 -21.5t83 21.5t63.5 64.5t25.5 109t-25.5 108.5t-63.5 64t-83 21.5t-83 -21.5 t-63.5 -64t-25.5 -108.5zM434 0l703 1432h213l-705 -1432h-211zM1020 322q0 117 52 195.5t131 117.5t170 39t170 -39t131 -117.5t52 -195.5q0 -119 -52 -198t-131 -118t-170 -39t-170 39t-131 118t-52 198zM1200 322q0 -66 25.5 -109t64.5 -64.5t83 -21.5t83 21.5t64.5 64.5 t25.5 109q0 63 -25.5 106t-64.5 64.5t-83 21.5t-83 -21.5t-64.5 -64.5t-25.5 -106z" />
<glyph unicode="&#x26;" horiz-adv-x="1320" d="M102 432q0 137 69 234.5t191 144.5q-82 41 -127 117t-42 170q0 78 30.5 146.5t88 119.5t140.5 81t187 30q211 -2 315.5 -95.5t114.5 -283.5h-199q-23 201 -229 200q-119 -2 -177 -57t-58 -141q0 -104 75.5 -154.5t204.5 -50.5v-193h-72q-123 0 -200.5 -68.5t-77.5 -191.5 q0 -57 22.5 -105t61.5 -83t92 -54.5t117 -19.5q137 0 207.5 77t70.5 206v430h344v-184h-141v-246q0 -227 -126 -355.5t-355 -128.5q-127 0 -225.5 37t-165 99.5t-101.5 144.5t-35 174z" />
<glyph unicode="'" horiz-adv-x="456" d="M145 983v451h181l-29 -451h-152z" />
<glyph unicode="(" horiz-adv-x="675" d="M85 579.5q-1 159.5 27.5 314.5t87 291t145.5 242.5t206 169.5l76 -135q-82 -55 -142.5 -148t-100.5 -211t-58.5 -254t-16.5 -274.5t23.5 -273.5t61.5 -252t98.5 -209t134.5 -145l-76 -137q-115 63 -202 170.5t-145.5 244t-88 292t-30.5 315z" />
<glyph unicode=")" horiz-adv-x="675" d="M49 -305q104 74 175 213t107 311t37 360.5t-34 360.5t-106.5 310.5t-178.5 211.5l76 135q117 -61 205 -167.5t146.5 -241.5t87 -291t27.5 -315.5t-31 -316t-88 -292t-145 -244t-202 -171.5z" />
<glyph unicode="*" horiz-adv-x="858" d="M104 1169l46 150l208 -78l-12 213h166l-14 -213l202 82l50 -152l-207 -59l149 -178l-133 -96l-129 182l-129 -184l-131 100l149 172z" />
<glyph unicode="+" horiz-adv-x="978" d="M115 659v181h282v280h187v-280h280v-181h-280v-280h-187v280h-282z" />
<glyph unicode="," horiz-adv-x="528" d="M129 96q0 57 39 91t96 34q41 0 69.5 -16.5t45 -42t18.5 -59t-12 -70.5l-74 -228h-127l41 170q-41 10 -68.5 42t-27.5 79z" />
<glyph unicode="-" horiz-adv-x="952" d="M131 586v192h690v-192h-690z" />
<glyph unicode="." horiz-adv-x="532" d="M129 102q0 59 40 94t97 35t97 -34.5t40 -94.5q0 -57 -40 -92t-97 -35t-97 35t-40 92z" />
<glyph unicode="/" horiz-adv-x="1040" d="M59 2l693 1432h229l-694 -1432h-228z" />
<glyph unicode="0" horiz-adv-x="1343" d="M139 475v488q0 115 42 206t114 153t170 96t209 34t207 -34t167.5 -96t113.5 -153.5t42 -205.5v-488q0 -117 -42 -208t-113.5 -154.5t-168 -97t-206.5 -33.5q-111 0 -209 33.5t-170 97t-114 154.5t-42 208zM365 537q0 -37 4 -71t10 -65q23 -104 103.5 -156t191.5 -52 t190.5 52t102.5 156q6 31 10 65t4 71v362q0 37 -4 71t-10 64q-23 104 -103 156.5t-190 52.5q-111 0 -192 -52t-103 -157q-6 -31 -10 -64.5t-4 -70.5v-362z" />
<glyph unicode="1" horiz-adv-x="911" d="M96 0v184h262v1061h-229v189h459v-1250h266v-184h-758z" />
<glyph unicode="2" horiz-adv-x="1099" d="M88 0v51l563 735q57 70 86 154t18.5 156.5t-62.5 122t-154 49.5q-104 0 -165 -62.5t-67 -173.5h-192q10 414 432 418q158 0 258 -69.5t137 -180t7.5 -247t-130.5 -267.5q-29 -33 -61.5 -75t-77.5 -99t-103.5 -135t-138.5 -180h553v-197h-903z" />
<glyph unicode="3" horiz-adv-x="1179" d="M94 403h211q10 -111 82 -166t182 -55q125 0 201 72t76 201q0 90 -41 149.5t-105.5 90t-142.5 35.5t-151 -13v41l323 481h-577v193h907v-37l-363 -516q88 -4 159 -41t118 -95.5t72.5 -132t25.5 -153.5q0 -100 -33.5 -187.5t-97 -153t-156 -103.5t-211.5 -38q-98 0 -183 29 t-148.5 84t-102.5 134t-45 181z" />
<glyph unicode="4" horiz-adv-x="1216" d="M55 301v107l678 1026h244v-938h139v-195h-139v-301h-217v301h-705zM336 487h438v318l12 350h-4z" />
<glyph unicode="5" horiz-adv-x="1187" d="M111 395h219q10 -113 81.5 -167t178.5 -54q53 0 103 16.5t89 50t63.5 86t26.5 126.5q2 84 -24.5 140t-73.5 92t-108.5 52.5t-130.5 20.5q-98 4 -196.5 -9.5t-176.5 -31.5v717h846v-201h-652v-318q90 20 193 21q113 -2 212 -27.5t173 -82t117 -146.5t43 -221 q0 -96 -33 -184.5t-97.5 -155t-159.5 -105.5t-220 -39q-96 0 -179 28t-145.5 82t-101.5 132t-47 178z" />
<glyph unicode="6" horiz-adv-x="1224" d="M90 457q0 78 25.5 155.5t66.5 141.5l434 688h265l-351 -557q59 33 129 33q106 2 196.5 -28t156 -89.5t103.5 -146.5t38 -197q0 -121 -41 -210t-113.5 -148.5t-170 -89t-207.5 -29.5q-111 0 -207.5 29.5t-169 89t-113.5 148.5t-41 210zM324 457q0 -135 84 -205t213 -70 q131 0 214 70t83 205t-84 205.5t-213 70.5q-131 0 -214 -70.5t-83 -205.5z" />
<glyph unicode="7" horiz-adv-x="1083" d="M72 1223v211h991v-35l-637 -1399h-242l555 1223h-667z" />
<glyph unicode="8" horiz-adv-x="1267" d="M102 428q0 131 69 228.5t185 150.5q-72 43 -116.5 111.5t-44.5 160.5q-2 78 28.5 146.5t88 120t139 81t184.5 29.5q100 0 181 -28.5t139.5 -79t90 -119t31.5 -146.5q0 -92 -47 -161.5t-121 -114.5q117 -53 185.5 -149.5t70.5 -225.5q0 -96 -37.5 -179t-106.5 -144.5 t-167 -96.5t-219 -35t-219.5 35t-168 96.5t-107.5 143.5t-38 176zM336 434q0 -59 23.5 -106t64.5 -80t95.5 -51.5t115.5 -18.5t115.5 18.5t95.5 52.5t64.5 82t23.5 107q0 61 -23.5 109.5t-64.5 83.5t-96.5 53t-116.5 18t-115.5 -19t-94.5 -54t-63.5 -84t-23.5 -111z M403 1071q0 -88 68 -140t162 -52q98 0 164.5 51t66.5 143t-67.5 143.5t-161.5 51.5q-98 0 -165 -52.5t-67 -144.5z" />
<glyph unicode="9" horiz-adv-x="1218" d="M72 975q0 119 41 209t113.5 149.5t170 89t207.5 29.5q111 0 207 -29.5t169 -89t114 -149.5t41 -209q0 -86 -25 -159t-72 -144l-432 -672h-260l361 549q-59 -35 -136 -35q-109 -2 -199.5 27.5t-157.5 89t-104.5 146.5t-37.5 198zM307 975q0 -135 84 -206t213 -71t212 71 t83 206t-83 204.5t-212 69.5q-131 0 -214 -69.5t-83 -204.5z" />
<glyph unicode=":" horiz-adv-x="536" d="M131 102q0 59 40 94t97 35t97.5 -34.5t40.5 -94.5q0 -57 -40.5 -92t-97.5 -35t-97 35t-40 92zM131 762q0 59 40 94t97 35t97.5 -35t40.5 -94q0 -57 -40.5 -92t-97.5 -35t-97 35t-40 92z" />
<glyph unicode=";" horiz-adv-x="538" d="M133 762q0 57 40 91t95 34t95 -34t40 -91q0 -55 -40 -90t-95 -35t-95 35t-40 90zM135 96q0 57 39 91t96 34q45 0 80 -22.5t47 -63.5q6 -22 6 -45q-2 -16 -5 -28.5t-7 -28.5l-72 -217h-135l47 159q-41 10 -68.5 42t-27.5 79z" />
<glyph unicode="&#x3c;" horiz-adv-x="1110" d="M94 625v166l846 364v-199l-586 -249l586 -256v-197z" />
<glyph unicode="=" horiz-adv-x="1107" d="M145 385v188h818v-188h-818zM145 772v184h818v-184h-818z" />
<glyph unicode="&#x3e;" horiz-adv-x="1110" d="M170 254v197l586 258l-586 247v199l846 -364v-166z" />
<glyph unicode="?" horiz-adv-x="1030" d="M74 1038q4 102 36.5 178t88 126.5t130 75t165.5 24.5q84 2 160.5 -19.5t137 -63.5t100.5 -101.5t52 -131.5q12 -78 4 -135q-8 -68 -35.5 -119t-63.5 -96t-77 -88t-73.5 -93t-53 -113.5t-18.5 -149.5h-234q-4 96 14.5 166.5t49 123t70.5 93.5t77 80t67.5 81t45.5 99 q8 63 -6.5 111.5t-46 81t-75.5 49t-93 16.5q-39 0 -76 -13.5t-67.5 -38t-52 -61.5t-28.5 -82h-198zM373 98q0 57 40 91t97 34t95 -33.5t38 -91.5q0 -55 -38 -90t-95 -35t-97 35t-40 90z" />
<glyph unicode="@" horiz-adv-x="1859" d="M106 487q16 184 93 338t199 264.5t283 172t345 61.5q186 0 334.5 -58.5t247 -167t143.5 -261t27 -340.5q-10 -111 -48 -208.5t-95.5 -169t-132.5 -112.5t-156 -41q-92 0 -129 53.5t-29 139.5l2 30q-51 -98 -143.5 -153t-198.5 -58q-111 0 -192 41t-132 111t-71.5 163 t-10.5 195q12 127 63.5 224.5t130.5 162t180.5 97.5t213.5 30q49 0 104.5 -11t108.5 -31.5t101.5 -48t85.5 -60.5l-52 -588q-6 -63 2.5 -99t46.5 -38q45 0 83 36t66 90t44 119.5t20 125.5q14 160 -21.5 287.5t-117.5 217t-204.5 137.5t-282.5 48q-156 0 -291 -51.5 t-236.5 -143.5t-166 -220t-78.5 -284q-18 -205 41 -355t175.5 -235t279.5 -96.5t352 62.5l-13 -131q-213 -76 -399 -55.5t-320.5 123t-204 277.5t-47.5 410zM666 487q-6 -61 4 -118.5t37.5 -100.5t74.5 -68.5t115 -25.5q66 0 116 26.5t86 69.5t56.5 98.5t26.5 114.5l24 262 q-47 37 -103 53.5t-116 18.5q-59 -2 -114.5 -24.5t-99.5 -64.5t-72.5 -102.5t-34.5 -138.5z" />
<glyph unicode="A" horiz-adv-x="1439" d="M2 0v31l664 1413h110l660 -1413v-31h-248l-141 297h-656l-139 -297h-250zM469 498h502l-250 573z" />
<glyph unicode="B" horiz-adv-x="1370" d="M178 0v1434h582q98 0 180 -25t142.5 -76t94 -127t33.5 -176q0 -92 -41 -163.5t-127 -112.5q113 -39 172.5 -124t59.5 -208q0 -96 -32 -174t-91 -133.5t-143 -85t-189 -29.5h-641zM416 209h389q100 0 164.5 54t68.5 159q0 109 -73 170q-41 31 -89.5 38t-97.5 7h-362v-428z M416 831h327q104 0 168 44.5t66 148.5q0 106 -64.5 154.5t-169.5 48.5h-327v-396z" />
<glyph unicode="C" horiz-adv-x="1556" d="M94 715q0 174 59.5 310t159 230.5t231.5 144.5t279 50q104 0 209 -29.5t192 -89t152.5 -149.5t93.5 -211h-229q-53 135 -165.5 197.5t-254.5 64.5q-111 0 -200 -38t-153.5 -106.5t-99 -164t-34.5 -209.5q0 -106 34.5 -199.5t99 -163t154 -109.5t199.5 -40q147 0 263 71.5 t163 214.5h232q-27 -131 -92.5 -226t-154.5 -156.5t-195.5 -91t-215.5 -29.5q-145 0 -277 49t-232.5 142t-159 229.5t-58.5 308.5z" />
<glyph unicode="D" horiz-adv-x="1495" d="M180 0v1432h518q168 0 298 -58.5t219.5 -157t136.5 -227.5t47 -270t-46 -271.5t-135.5 -229.5t-220.5 -158.5t-299 -59.5h-518zM418 217h276q111 0 198 40t147.5 108.5t91 158.5t30.5 193q0 100 -31.5 191t-91 160t-145.5 109t-197 40h-278v-1000z" />
<glyph unicode="E" horiz-adv-x="1181" d="M178 0v1434h873v-209h-633v-379h598v-211h-598v-418h645v-217h-885z" />
<glyph unicode="F" horiz-adv-x="1122" d="M178 0v1434h864v-209h-626v-457h569v-211h-569v-557h-238z" />
<glyph unicode="G" horiz-adv-x="1585" d="M94 719q0 172 59.5 308t159 230.5t230.5 144.5t276 50q106 0 207.5 -25.5t187.5 -80t151 -139.5t97 -203h-235q-59 125 -162.5 179t-247.5 54q-113 0 -202 -41t-151.5 -110.5t-95 -165t-32.5 -201.5q0 -115 33.5 -210t96 -164t152 -107.5t199.5 -38.5q92 0 171 19.5 t138.5 63.5t99.5 115.5t54 173.5h-446v203h671q1 -30 1 -59q0 -72 -7 -141q-10 -95 -45 -189q-41 -102 -105.5 -178t-147.5 -126t-180 -74.5t-204 -24.5q-147 0 -278 50t-229.5 145t-157 232.5t-58.5 309.5z" />
<glyph unicode="H" horiz-adv-x="1488" d="M178 0v1434h238v-576h655v576h240v-1434h-240v639h-655v-639h-238z" />
<glyph unicode="I" horiz-adv-x="856" d="M82 0v193h227v1050h-209v191h656v-191h-209v-1050h227v-193h-692z" />
<glyph unicode="J" horiz-adv-x="1300" d="M63 477v162h224v-158q0 -141 86 -214.5t221 -73.5t220 73.5t85 214.5v746h-303v207h541v-957q0 -117 -42 -210t-116 -156.5t-173 -97t-212 -33.5t-210 33.5t-168 97t-112 156.5t-41 210z" />
<glyph unicode="K" horiz-adv-x="1402" d="M178 0v1434h240v-635q82 0 157.5 5t122.5 30q31 16 55.5 51t44 80t35 99t29.5 110q18 70 51 126t87 93q52 37 130 48q28 4 60 4q58 0 129 -13v-164q-26 2 -49 2t-42 -2q-38 -4 -65.5 -22.5t-46 -52.5t-35.5 -89q-33 -117 -73.5 -217.5t-112.5 -165.5l471 -686v-35h-270 l-410 627q-23 -8 -57.5 -13.5t-73.5 -7.5t-75 -2h-62v-604h-240z" />
<glyph unicode="L" horiz-adv-x="1067" d="M178 0v1434h240v-1219h616v-215h-856z" />
<glyph unicode="M" horiz-adv-x="1697" d="M178 0v1438h88l584 -742l582 742h88v-1438h-240v897l-414 -530h-32l-416 530v-897h-240z" />
<glyph unicode="N" horiz-adv-x="1533" d="M178 0v1438h86l871 -965l-17 438v523h238v-1436h-82l-877 977l17 -455v-520h-236z" />
<glyph unicode="O" horiz-adv-x="1648" d="M94 717q0 174 59.5 311t160 231.5t233.5 143.5t278 49q147 0 279.5 -49t232 -143.5t158.5 -231.5t59 -311q0 -164 -54 -299t-150.5 -232.5t-231.5 -150.5t-297 -53q-147 0 -279 49t-231.5 143t-158 230.5t-58.5 312.5zM336 717q0 -125 39 -220.5t104.5 -160t154.5 -97 t191 -32.5q100 0 189.5 32.5t157 97t106.5 160t39 220.5q0 123 -39 218t-105.5 160.5t-155.5 99.5t-190 34q-102 0 -191 -34t-155.5 -98.5t-105.5 -159.5t-39 -220z" />
<glyph unicode="P" horiz-adv-x="1335" d="M178 0v1434h594q119 0 213 -41t159.5 -110t99.5 -161t34 -194q0 -100 -35 -190.5t-100.5 -159t-158.5 -108.5t-212 -40h-354v-430h-240zM414 639h358q61 0 111.5 22.5t87.5 62.5t57.5 94t20.5 116q0 61 -19.5 115.5t-56.5 93.5t-88 61.5t-113 22.5h-358v-588z" />
<glyph unicode="Q" horiz-adv-x="1646" d="M94 719q0 166 53.5 302t150.5 233.5t231.5 151.5t295.5 54q145 0 277.5 -50t233 -145.5t159.5 -233.5t59 -312q0 -281 -147 -465l145 -231v-37h-217l-84 129q-94 -66 -203 -101q-104 -32 -220 -32h-13q-147 0 -278 52t-229.5 148.5t-156 232.5t-57.5 304zM336 719 q0 -125 39 -221.5t105.5 -162t155.5 -99t189 -33.5t189.5 31.5t156 96t105.5 162t39 226.5q0 125 -39 222t-105.5 162.5t-156.5 99.5t-191 34q-100 0 -188 -35t-154.5 -101.5t-105.5 -162.5t-39 -219z" />
<glyph unicode="R" horiz-adv-x="1396" d="M178 0v1434h592q117 0 209 -37t156.5 -100.5t98.5 -148.5t34 -181q0 -150 -82 -265.5t-219 -164.5l364 -502v-35h-241l-357 500h-315v-500h-240zM414 696h354q57 0 107.5 20.5t85 55.5t55 84t20.5 109q0 55 -19.5 103t-55 84t-85 55.5t-108.5 19.5h-354v-531z" />
<glyph unicode="S" horiz-adv-x="1325" d="M92 408h234q4 -61 35.5 -103.5t81 -68t107.5 -38t118 -12.5q57 0 115.5 10.5t106.5 35t78.5 67.5t30.5 111q0 70 -32.5 111.5t-85 64t-117 32t-125.5 15.5q-98 8 -192.5 30.5t-167 66.5t-117.5 116t-45 180q0 111 45 192.5t119.5 135t172 80t201.5 26.5 q102 0 197.5 -23.5t170.5 -74.5t121 -129t48 -189h-225q-4 57 -34 96.5t-74 63t-98 33.5t-108 10q-49 0 -102 -11t-97 -35.5t-73 -65.5t-29 -103q0 -61 28 -97t74 -57.5t105 -31.5t121 -19q109 -12 210 -32.5t178 -65.5t123 -122t46 -199q0 -119 -50 -201t-131 -134.5 t-182.5 -76t-201.5 -23.5h-16l-192 23q-104 24 -185.5 78.5t-133 137.5t-53.5 196z" />
<glyph unicode="T" horiz-adv-x="1142" d="M39 1223v211h1065v-211h-416v-1223h-233v1223h-416z" />
<glyph unicode="U" horiz-adv-x="1443" d="M164 481v953h237v-947q0 -72 25 -126t69 -91t103 -56t127 -19t126 19t101 56t67.5 91.5t24.5 125.5v947h236v-953q0 -121 -44 -213t-119 -156.5t-176 -97t-216 -32.5q-117 0 -218 32.5t-178 97t-121 156.5t-44 213z" />
<glyph unicode="V" horiz-adv-x="1370" d="M29 1399v35h254l204 -496l197 -530h6l189 520l206 506h252v-35l-602 -1411h-98z" />
<glyph unicode="W" horiz-adv-x="1998" d="M49 1399v35h248l156 -484l149 -516h4l344 975h107l344 -973h4l143 514l152 484h252v-35l-477 -1409h-123l-346 919h-5l-346 -919h-131z" />
<glyph unicode="X" horiz-adv-x="1327" d="M23 0v33l497 725l-446 641v35h256l168 -263l161 -268h7l165 275l166 256h254v-35l-444 -641l496 -725v-33h-254l-201 311l-180 293h-9l-176 -287l-207 -317h-253z" />
<glyph unicode="Y" horiz-adv-x="1290" d="M20 1399v35h256l193 -320l172 -330h8l178 340l187 310h254v-35l-504 -817v-582h-238v582z" />
<glyph unicode="Z" horiz-adv-x="1224" d="M43 0v33l481 766l287 426h-707v209l1043 -2v-35l-557 -889l-211 -297h772v-211h-1108z" />
<glyph unicode="[" horiz-adv-x="645" d="M160 -375v1938h405v-183h-196v-1554h196v-201h-405z" />
<glyph unicode="\" horiz-adv-x="1042" d="M59 1434h232l692 -1432h-229z" />
<glyph unicode="]" horiz-adv-x="645" d="M80 -174h196v1554h-196v183h405v-1938h-405v201z" />
<glyph unicode="^" horiz-adv-x="1103" d="M104 838l365 604h162l368 -604h-198l-252 409l-246 -409h-199z" />
<glyph unicode="_" horiz-adv-x="1261" d="M131 -18h999v-191h-999v191z" />
<glyph unicode="`" horiz-adv-x="688" d="M158 1380v21l204 78l162 -301v-23h-186z" />
<glyph unicode="a" horiz-adv-x="1124" d="M70 274q0 70 24.5 129.5t71.5 104.5t118.5 70.5t168.5 25.5q72 0 149.5 -14.5t142.5 -50.5v123q0 61 -33.5 98t-85.5 54q-54 16 -118 18q-10 0 -19 1q-55 1 -107 -7q-62 -8 -116.5 -24t-85.5 -30l-35 162q76 39 171.5 55.5t193.5 16.5q90 0 172 -16.5t144.5 -56.5 t99.5 -107.5t37 -170.5v-389q0 -35 1 -61.5t10 -44t29.5 -25.5t61.5 -4l4 -133q-59 -12 -109 -15h-16q-40 0 -72 13q-38 16 -61 56t-25 114q-25 -49 -64.5 -84t-88.5 -57.5t-103.5 -32.5t-105.5 -10q-90 0 -155.5 24.5t-110.5 65.5t-66.5 93t-21.5 109zM289 289 q0 -66 43 -100.5t137 -34.5q43 0 89 12t85 39.5t66.5 73.5t35.5 116q-37 23 -112.5 41.5t-149.5 18.5q-80 0 -137 -43t-57 -123z" />
<glyph unicode="b" horiz-adv-x="1202" d="M139 59v1438h223v-557q72 37 146 51.5t139 14.5q96 0 182 -37t150.5 -105.5t101.5 -165t37 -215.5q0 -143 -46 -239.5t-125 -154.5t-180 -82.5t-212 -24.5q-102 2 -210.5 21.5t-205.5 55.5zM358 199q53 -16 111.5 -25.5t108.5 -9.5q66 0 124 16.5t101 54t67.5 98 t24.5 150.5q0 78 -22.5 137.5t-61.5 100.5t-90 62.5t-109 23.5h-16q-52 -1 -110 -11q-66 -12 -128 -48v-549z" />
<glyph unicode="c" horiz-adv-x="1157" d="M84 498q0 127 45 222t117.5 158.5t166 95.5t189.5 32q80 0 158 -21.5t142.5 -66t111.5 -112t67 -157.5h-207q-33 80 -104.5 119t-157.5 39q-57 0 -112.5 -19.5t-98.5 -57.5t-69.5 -96.5t-26.5 -135.5q0 -80 26.5 -140.5t69.5 -101.5t97.5 -61.5t109.5 -20.5q84 0 158 44 t108 136h213q-18 -94 -66 -163.5t-113.5 -115.5t-143.5 -69.5t-160 -23.5q-96 0 -189 32.5t-167 97t-119 161t-45 225.5z" />
<glyph unicode="d" horiz-adv-x="1232" d="M84 496q0 115 37 208t101.5 159.5t148.5 102t180 35.5q66 0 136.5 -17t137.5 -58v573h224v-1192v-72.5t9 -48t29.5 -26.5t63.5 -8l4 -154q-57 -10 -109.5 -10t-92.5 15t-63.5 51t-23.5 98v28q-49 -111 -133 -155.5t-194 -44.5h-10q-105 0 -186 38q-85 40 -142.5 112.5 t-87 166.5t-29.5 199zM305 496q0 -63 16.5 -121t49 -102t84 -69.5t118.5 -25.5q57 0 104.5 21.5t81.5 59.5t52 88t18 106v276q-59 41 -121 61q-57 18 -111 17h-11q-57 0 -108.5 -20.5t-89.5 -60.5t-60.5 -97.5t-22.5 -132.5z" />
<glyph unicode="e" horiz-adv-x="1128" d="M84 514q2 123 45 215t112.5 153.5t162 92.5t192.5 31q129 0 223 -43t149.5 -120t71.5 -181q7 -42 7 -87q0 -67 -15 -141h-729q0 -68 24.5 -118t68.5 -81.5t102.5 -48t126.5 -16.5q94 0 182 11.5t176 49.5l29 -165q-86 -39 -182.5 -61.5t-190.5 -22.5h-13q-116 0 -214 34 q-104 36 -177 104t-114 168q-37 92 -37 204v22zM303 588h549v11q0 56 -18 98q-20 46 -56.5 77t-83.5 45.5t-100 14.5q-111 0 -189.5 -64.5t-101.5 -181.5z" />
<glyph unicode="f" horiz-adv-x="806" d="M47 815v168h186v133q0 145 51.5 232.5t136.5 125.5q75 33 169 33q13 0 26 -1q109 -5 226 -44l-25 -155q-66 27 -131 34q-17 2 -34 2q-45 0 -84 -15q-54 -19 -86.5 -71.5t-32.5 -144.5v-129h333v-168h-333v-815h-220v815h-182z" />
<glyph unicode="g" horiz-adv-x="1185" d="M86 485q0 135 44 233.5t119 163t175 95.5q94 29 201 29h14q106 -2 207.5 -26t200.5 -65v-976q0 -129 -38 -221.5t-102.5 -153t-151.5 -90t-184 -29.5h-13q-96 0 -196 27q-106 28 -206 84l32 180q96 -47 194 -76q91 -27 172 -27h11q57 0 106.5 16.5t84.5 53.5t55 95.5 t20 144.5v108q-78 -43 -152.5 -56t-146.5 -13q-94 0 -176 33.5t-141 97t-94 156.5t-35 216zM309 485q0 -80 21.5 -138t58.5 -97t87 -57.5t108 -18.5h15q52 0 105 12q62 13 123 54v544q-53 18 -104 26.5t-105 8.5q-141 0 -224 -84t-85 -250z" />
<glyph unicode="h" d="M145 0v1497h224v-635q63 86 141 115t176 29q102 0 176 -31t122 -87.5t70.5 -135t22.5 -172.5v-580h-225v580v7q0 117 -62 177q-64 61 -167 63q-111 0 -182.5 -68.5t-71.5 -191.5v-567h-224z" />
<glyph unicode="i" horiz-adv-x="518" d="M125 1292q0 66 42 98.5t93 32.5t92 -32.5t41 -98.5t-41 -98.5t-90 -34.5h-6q-48 -1 -88 31q-43 34 -43 102zM147 0v987h224v-987h-224z" />
<glyph unicode="j" horiz-adv-x="516" d="M-84 -514l8 168q36 -5 65 -5t51 5q44 10 67.5 40t31.5 78t8 113v1102h222v-1104q0 -252 -113 -345q-78 -65 -212 -65q-59 0 -128 13zM123 1292q0 66 41 97.5t90 33.5h6q47 0 88 -31q43 -34 43 -100q0 -63 -41 -95t-90 -34h-6q-47 0 -88 31q-43 32 -43 98z" />
<glyph unicode="k" horiz-adv-x="1118" d="M145 0v1497h222v-895h102q92 0 156.5 26.5t104.5 77t57.5 122t17.5 159.5h211v-24q0 -67 -10 -127q-12 -72 -41 -133.5t-80 -111.5t-127 -85l307 -483v-23h-223l-273 434q-23 -6 -50 -8t-54 -2h-98v-424h-222z" />
<glyph unicode="l" horiz-adv-x="589" d="M135 354v1145h221v-1143q0 -104 29 -149t111 -45q31 0 73 6l9 -172q-41 -6 -79 -10t-73 -4q-150 2 -220.5 87t-70.5 285z" />
<glyph unicode="m" horiz-adv-x="1841" d="M70 989q49 11 104 15q10 1 20 1q44 -1 82 -13q46 -16 76 -54q28 -37 27 -104v-9q20 45 56 79t81 56.5t96.5 34t102.5 11.5q129 0 199.5 -46.5t99.5 -138.5q20 49 58 84t86 57.5t103.5 33t112.5 10.5q100 0 167 -34t105 -92q36 -58 50 -136q12 -68 12 -143v-23v-578h-225 v578v9q0 105 -45 172q-46 68 -141 68h-5q-104 -2 -166.5 -70.5t-64.5 -185.5v-571h-219v571q0 117 -50 187q-48 68 -147 67h-6q-104 -2 -172 -70.5t-68 -185.5v-569h-223v707q0 43 -2 71.5t-13 45t-31.5 21.5t-57.5 3z" />
<glyph unicode="n" horiz-adv-x="1241" d="M74 838v153q52 9 108 13q11 1 23 1q42 -1 77 -11q44 -14 72.5 -51.5t28.5 -106.5q20 47 57 79.5t83 52t96.5 29t99.5 9.5q100 0 174 -33t122 -89.5t71.5 -134t23.5 -169.5v-580h-225v580v7q-1 112 -65 174q-66 64 -167 66q-53 0 -98 -19.5t-79 -54t-53.5 -83.5 t-19.5 -109v-561h-225v700q0 43 -2 71t-12 43t-31.5 20.5t-58.5 3.5z" />
<glyph unicode="o" d="M84 498q0 127 44 222t115.5 158.5t164 95.5t188.5 32q102 0 198.5 -31t170 -93.5t117.5 -158.5t44 -225t-45 -226.5t-118.5 -162t-167 -96t-191.5 -31.5t-191.5 31.5t-166 96t-117.5 162t-45 226.5zM305 498q0 -80 25.5 -140.5t68.5 -100.5t97.5 -59.5t111.5 -19.5 q55 0 108.5 20.5t94.5 60.5t66.5 99.5t25.5 139.5t-26.5 139t-69.5 98t-99 57q-50 17 -101 17h-11q-55 -2 -107.5 -21.5t-93.5 -57.5t-65.5 -96t-24.5 -136z" />
<glyph unicode="p" horiz-adv-x="1228" d="M72 993q61 12 114 13h2q51 0 88 -18q39 -19 60.5 -58t21.5 -105q57 98 145.5 139.5t194.5 41.5q109 0 193 -41t140 -111t85 -162t29 -192q0 -119 -40 -216.5t-107.5 -166t-157.5 -103.5q-81 -30 -169 -30h-20q-61 4 -124.5 22.5t-125.5 54.5v-569h-223v1178v74.5t-9 53 t-30.5 32t-64.5 10.5zM397 258q61 -43 127 -64q55 -17 106 -17q9 0 19 1q55 2 104.5 24.5t86.5 63.5t58.5 99.5t21.5 134.5q0 61 -16.5 116.5t-50.5 98.5t-83 67.5t-117 24.5q-57 0 -104 -20.5t-81 -57.5t-52.5 -85t-18.5 -103v-283z" />
<glyph unicode="q" horiz-adv-x="1196" d="M94 500q0 139 43 235t116 155.5t169 86.5t203 29h19q99 0 200 -20q110 -21 213 -62v-1438h-223v567q-72 -45 -145 -58q-63 -11 -122 -11h-18q-94 2 -177 36.5t-144.5 99t-97.5 160t-36 220.5zM319 500q0 -86 21.5 -146.5t59.5 -99.5t88.5 -57.5t107.5 -18.5h12 q53 0 108 16q62 19 122 60v530q-98 31 -195 31q-68 0 -126 -14.5t-102 -51t-70 -98t-26 -151.5z" />
<glyph unicode="r" horiz-adv-x="925" d="M72 993q56 13 110 13h3q53 0 95 -16q44 -16 73.5 -52.5t33.5 -95.5q14 41 45 71.5t70 51t85 31t91 10.5h12q54 0 108 -16q60 -18 107 -54l-55 -193q-90 59 -197 60q-49 0 -95 -14.5t-81 -43t-55.5 -72.5t-20.5 -104v-569h-221v715q0 33 -2 57.5t-11 40.5t-31.5 23.5 t-61.5 5.5z" />
<glyph unicode="s" horiz-adv-x="1040" d="M76 291h219q2 -39 22.5 -66.5t52 -46t70.5 -28t80 -9.5t82 7.5t75 23.5t55.5 46t23.5 75q0 68 -61.5 94.5t-159.5 38.5q-76 10 -153 22.5t-139.5 40t-102.5 76.5t-42 133q0 80 36 137.5t94.5 96.5t134 57.5t155.5 18.5q86 0 163 -18.5t135 -56.5q58 -37 91 -93 q31 -52 31 -121v-8h-197q0 37 -20.5 61.5t-52 39.5t-71.5 21.5t-79 6.5t-75.5 -9.5t-66.5 -27t-46.5 -43t-14.5 -58.5q2 -61 60.5 -82.5t175.5 -35.5q78 -10 151.5 -24.5t130 -45.5t91 -84t34.5 -141q0 -82 -36.5 -141.5t-96 -97.5t-137.5 -56.5t-160 -18.5t-160.5 14.5 t-141 51.5t-103.5 97.5t-47 152.5z" />
<glyph unicode="t" horiz-adv-x="884" d="M43 840v145h201l22 305h197v-305h342v-160h-342v-436q0 -127 49 -179t129 -54q80 0 182 37l23 -168q-66 -20 -127.5 -31.5t-118.5 -11.5q-80 0 -145.5 22.5t-112.5 71.5t-72.5 124.5t-25.5 184.5v440z" />
<glyph unicode="u" horiz-adv-x="1222" d="M133 416v571h225v-571v-8q0 -112 56 -178q58 -68 157 -68q106 0 178 70.5t72 189.5v565h223v-704q0 -45 3.5 -74t13.5 -45.5t31.5 -21.5t56.5 -1l2 -145q-47 -8 -101 -14q-17 -2 -33 -1q-36 1 -68 9q-46 12 -75.5 51t-29.5 119q-51 -100 -144.5 -138t-197.5 -38 q-102 0 -173 33.5t-114 92t-62.5 137.5t-19.5 169z" />
<glyph unicode="v" horiz-adv-x="1105" d="M29 963v24h241l127 -289l152 -368h4l156 366l129 291h237v-24l-477 -973h-88z" />
<glyph unicode="w" horiz-adv-x="1585" d="M39 963v24h240l124 -340l93 -270h4l235 588h111l235 -590h6l95 272q29 86 60.5 170t62.5 170h241v-24l-391 -973h-100l-264 596l-263 -596h-100z" />
<glyph unicode="x" horiz-adv-x="1042" d="M29 0v25l366 499l-311 439v24h213l113 -156l108 -167h6l107 163l117 160h225v-24l-324 -453l355 -485v-25h-216l-145 201l-115 184h-6l-121 -188l-147 -197h-225z" />
<glyph unicode="y" horiz-adv-x="1128" d="M25 963v24h239l146 -344l161 -434h7l149 432l131 346h223v-24l-428 -1047q-43 -109 -91 -202t-113.5 -150.5t-155.5 -68.5q-15 -2 -31 -2q-80 0 -188 46l26 162q66 -29 116 -29t89 24.5t66.5 70t50.5 106.5l47 121z" />
<glyph unicode="z" horiz-adv-x="960" d="M61 0v45l287 449l215 311h-471v182h793v-29l-305 -473l-201 -292h504v-193h-822z" />
<glyph unicode="{" horiz-adv-x="643" d="M74 543v166q37 4 59.5 22.5t34.5 45t15 59t3 65.5v391q0 100 27 158.5t76 87.5t116.5 37t149.5 8v-162q-78 0 -119 -26.5t-41 -110.5v-403q0 -39 -6 -79t-21.5 -75t-40 -61.5t-63.5 -40.5q41 -16 66.5 -43t40 -62t19.5 -74.5t5 -83.5v-425q0 -84 42 -109t118 -18v-183 q-86 0 -153.5 8.5t-115.5 38t-74 90t-26 164.5v416q0 31 -4 64.5t-16 62.5t-33.5 48.5t-58.5 23.5z" />
<glyph unicode="|" horiz-adv-x="534" d="M166 -170v1614h203v-1614h-203z" />
<glyph unicode="}" horiz-adv-x="643" d="M88 -190q76 -6 118 18.5t42 108.5v425q0 86 28.5 158t110.5 105q-39 14 -65.5 41.5t-43 61.5t-23.5 74t-7 79v403q0 84 -41 110.5t-119 26.5v162q82 0 149.5 -8t116.5 -37t76 -87t27 -159v-391q0 -33 3 -65.5t15 -59t34.5 -45t59.5 -22.5v-166q-37 -4 -58.5 -23.5 t-33.5 -48.5t-16 -62.5t-4 -64.5v-416q0 -104 -25.5 -164.5t-74 -90t-116 -38t-153.5 -8.5v183z" />
<glyph unicode="~" horiz-adv-x="1265" d="M113 639q31 92 88 148.5t128.5 78t154.5 8t163 -58.5q49 -31 101.5 -55.5t101.5 -28.5t92 21.5t74 97.5l147 -72q-37 -104 -91 -160.5t-121.5 -73t-147.5 2t-168 63.5q-53 29 -107.5 51.5t-105.5 23.5t-95 -24.5t-77 -93.5z" />
<glyph unicode="&#xa1;" horiz-adv-x="532" d="M131 877q0 55 40 89.5t95 34.5q57 0 96 -34.5t39 -89.5q0 -59 -38.5 -92t-96.5 -33q-55 0 -95 32.5t-40 92.5zM139 -463l13 1106h227l18 -1106h-258z" />
<glyph unicode="&#xa2;" horiz-adv-x="1226" d="M119 496q0 147 59.5 253.5t151.5 170t204.5 85t221.5 -0.5l53 151h100l-61 -180q98 -41 170 -119t96 -201l-207 -6q-39 92 -127 131l-205 -598q51 -12 103.5 -7t98.5 28.5t83 63.5t55 98l211 -5q-23 -113 -85 -192.5t-147 -125.5t-185.5 -58.5t-196.5 10.5l-53 -156h-105 l62 185q-61 27 -115.5 69.5t-94.5 102t-63.5 135.5t-23.5 166zM340 496q0 -98 42 -166t105 -107l203 588q-61 8 -123.5 -8.5t-113 -56t-82 -102t-31.5 -148.5z" />
<glyph unicode="&#xa3;" horiz-adv-x="1361" d="M96 672v125h172q-35 162 -8 284.5t98.5 204.5t180 123t241.5 41q111 2 218.5 -26.5t205.5 -84.5l-76 -178q-68 47 -162 71.5t-186 18.5q-113 -6 -180.5 -41.5t-99 -95t-32.5 -140.5t19 -177h463v-154h-444q10 -57 15 -117.5t-5 -119.5q-8 -49 -24.5 -99.5t-47.5 -93.5 q59 29 122 27t126.5 -16.5t125 -31t118.5 -16.5q70 0 107.5 41t31.5 162h189q20 -184 -46.5 -290.5t-236.5 -106.5q-68 0 -152 20.5t-169 35.5t-160.5 12t-126.5 -52h-273v22q96 90 139.5 180.5t47.5 211.5q2 55 -1 111.5t-14 119.5h-174v29h-2z" />
<glyph unicode="&#xa4;" horiz-adv-x="1073" d="M127 410l96 96q-47 78 -47 190q0 106 47 191l-96 96l119 115l92 -92q92 53 198.5 53t198.5 -53l92 92l119 -115l-96 -96q23 -39 36 -86t13 -105q0 -57 -13.5 -104t-35.5 -88l96 -94l-119 -115l-92 92q-92 -53 -198.5 -53t-198.5 53l-92 -92zM354 696q0 -63 28 -105 t67.5 -63.5t88 -21.5t88.5 21.5t67.5 63.5t27.5 105t-27.5 106.5t-67.5 65t-88.5 21.5t-88 -21.5t-67.5 -65t-28 -106.5z" />
<glyph unicode="&#xa5;" d="M70 1401v33h256l147 -334l129 -328l135 334l148 328h256v-33l-373 -733h225v-150h-272v-108h272v-152h-272v-258h-229v258h-277v152h277v108h-277v150h225z" />
<glyph unicode="&#xa6;" horiz-adv-x="538" d="M168 -35v651h203v-651h-203zM168 801v643h203v-643h-203z" />
<glyph unicode="&#xa7;" horiz-adv-x="1320" d="M109 59h219q2 -53 34.5 -90t82 -59.5t107.5 -31.5t112 -7q49 0 104 10t102.5 33t78 57.5t30.5 83.5q0 70 -43 108t-104.5 57.5t-131 24.5t-122.5 9q-82 6 -161 25.5t-140.5 57.5t-100.5 97.5t-41 147.5q-4 98 48.5 164.5t138.5 107.5q-82 35 -134.5 93.5t-52.5 156.5 q0 94 42 163.5t111.5 114.5t162 68t190.5 23q96 0 188.5 -20.5t165 -63.5t117.5 -111t47 -162q-59 0 -108.5 -1t-108.5 -1q-2 51 -30.5 85t-71.5 54.5t-95.5 28.5t-99.5 8q-43 0 -92 -9t-92 -30.5t-71 -56.5t-28 -86q0 -47 24 -75.5t66 -45t97 -26t119 -15.5 q106 -10 203.5 -27.5t172 -54.5t118.5 -102.5t44 -171.5q-2 -92 -49 -158.5t-119 -107.5q76 -37 123 -99.5t45 -169.5q0 -94 -44 -163.5t-117.5 -115.5t-172 -68.5t-206.5 -22.5q-102 0 -200.5 21.5t-177.5 66.5t-128 116.5t-51 169.5zM354 604q4 -92 76 -131t188 -51 q55 -6 111 -11.5t109 -17.5q61 25 106 73t47 116q0 51 -26.5 84.5t-73.5 56t-113.5 35t-148.5 18.5q-29 4 -56.5 6t-54.5 9q-70 -25 -119 -71t-45 -116z" />
<glyph unicode="&#xa8;" horiz-adv-x="1042" d="M137 1333q0 55 38 88t93 33q53 0 92 -32.5t39 -88.5q0 -53 -39 -86t-92 -33q-55 0 -93 33t-38 86zM637 1333q0 55 38 88t93 33t93 -32.5t38 -88.5q0 -53 -38 -86t-93 -33t-93 33t-38 86z" />
<glyph unicode="&#xa9;" horiz-adv-x="1619" d="M111 711q0 176 60 308t158.5 220t223.5 131t257 43t257 -43t223.5 -131t158.5 -220t60 -308t-60 -308.5t-158.5 -220.5t-223.5 -132t-257 -44t-257 44t-223.5 132t-158.5 220.5t-60 308.5zM276 711q0 -186 79 -311.5t198 -186.5t257 -61t257 62t197.5 186t78.5 311 q0 186 -78.5 311t-197.5 187.5t-257 62.5t-257 -62.5t-198 -187.5t-79 -311zM485 709q0 104 42 175.5t107.5 112.5t143.5 49.5t149.5 -15t126 -79t72.5 -143.5l-133 -4q-23 68 -82 94.5t-121.5 14t-110.5 -63.5t-48 -141q0 -104 59.5 -155.5t140.5 -51.5q53 0 99.5 30.5 t66.5 92.5l136 -2q-18 -90 -73.5 -147.5t-127.5 -83t-151 -18.5t-144.5 47t-108.5 111.5t-43 176.5z" />
<glyph unicode="&#xaa;" horiz-adv-x="1032" d="M141 924q-4 63 18.5 111t63.5 80t94.5 48.5t112.5 16.5q51 -2 106.5 -14.5t100.5 -39.5v50q0 41 -17.5 68.5t-46 44t-63.5 22.5t-70 6q-55 0 -107 -10.5t-97 -36.5l-27 116q53 29 120.5 44.5t135.5 15.5q70 0 132 -14.5t109.5 -47t75 -85t27.5 -128.5v-299 q0 -35 12.5 -53t59.5 -14l2 -96q-35 -6 -72 -8.5t-67.5 6t-52 29t-23.5 59.5v15t-2 15q-16 -33 -45 -56.5t-65 -37.5t-75 -21.5t-75 -7.5q-51 0 -97.5 12.5t-82.5 39t-58.5 68.5t-26.5 102zM188 416v145h670v-145h-670zM311 940q0 -55 37 -82t90 -27q31 0 62.5 7.5t59.5 23 t48.5 39t26.5 53.5v64q-84 47 -178 47q-61 -4 -104.5 -37t-41.5 -88z" />
<glyph unicode="&#xab;" horiz-adv-x="1038" d="M98 709l293 479l133 -53l-207 -426l207 -422l-133 -54zM492 709l292 479l134 -53l-207 -426l207 -422l-134 -54z" />
<glyph unicode="&#xac;" horiz-adv-x="1167" d="M145 598v193h865v-525h-181v332h-684z" />
<glyph unicode="&#xad;" horiz-adv-x="952" d="M131 586v192h690v-192h-690z" />
<glyph unicode="&#xae;" horiz-adv-x="1613" d="M111 717q0 176 60 308t157.5 220t223.5 131t256 43t256 -43t223 -131t157.5 -220t60.5 -308t-60.5 -308.5t-157.5 -220.5t-223 -132t-256 -44t-256 44t-223.5 132t-157.5 220.5t-60 308.5zM274 717q0 -186 79 -311t198 -186.5t257 -61.5t257 62.5t197.5 186t78.5 310.5 q0 186 -78.5 311t-197.5 187.5t-257 62.5t-257 -62.5t-198 -187.5t-79 -311zM575 385v668h285q104 0 173 -58.5t69 -169.5q0 -70 -36 -124t-105 -72l159 -221v-23h-141l-152 225h-116v-225h-136zM711 723h137q51 0 85 28.5t34 75.5q0 45 -33 75t-86 30h-137v-209z" />
<glyph unicode="&#xaf;" horiz-adv-x="1021" d="M184 1249v181h633v-181h-633z" />
<glyph unicode="&#xb0;" horiz-adv-x="899" d="M98 1124q0 109 52.5 182.5t130 109.5t169 37t169 -36t130 -110.5t52.5 -182.5q0 -111 -52.5 -183.5t-130 -109t-169 -36.5t-169 36.5t-130 109.5t-52.5 183zM262 1124q0 -61 27.5 -101t68.5 -60.5t88.5 -20.5t88 20.5t68.5 60.5t28 101t-28 101.5t-68.5 61t-88 20.5 t-88.5 -20.5t-68.5 -61t-27.5 -101.5z" />
<glyph unicode="&#xb1;" horiz-adv-x="1069" d="M147 57v193h773v-193h-773zM162 655v185h284v280h179v-280h286v-185h-286v-243h-179v243h-284z" />
<glyph unicode="&#xb2;" horiz-adv-x="847" d="M127 696v37l342 432q37 43 50 86t6 79t-36.5 58.5t-80.5 22.5q-117 0 -125 -113h-146q0 123 74 193t209 70q102 0 165.5 -43t88 -107.5t9.5 -142.5t-71 -148l-215 -274h322v-150h-592z" />
<glyph unicode="&#xb3;" horiz-adv-x="813" d="M100 944h152q4 -53 46 -84t103 -31q68 0 109 40t41 100q0 51 -24.5 81.5t-62.5 46t-84 16.5t-89 -5v25l184 274h-340v139h572v-24l-207 -299q53 -6 94 -30t68.5 -58.5t42 -77.5t14.5 -86q0 -57 -21.5 -109.5t-61.5 -92.5t-98.5 -63.5t-134.5 -23.5q-63 0 -117.5 17.5 t-94 51t-64.5 83t-27 110.5z" />
<glyph unicode="&#xb4;" horiz-adv-x="620" d="M127 1143v22l162 301l205 -77v-21l-181 -225h-186z" />
<glyph unicode="&#xb6;" horiz-adv-x="1560" d="M72 904q-2 136 53 254t168 196t287 78h796v-1856h-223v1653h-375v-1653h-221v789q-158 4 -265.5 84.5t-162.5 199.5t-57 255z" />
<glyph unicode="&#xb7;" horiz-adv-x="538" d="M131 733q0 59 40 94t97 35q59 0 99.5 -34.5t40.5 -94.5q0 -55 -40.5 -91t-99.5 -36q-57 0 -97 36t-40 91z" />
<glyph unicode="&#xb8;" horiz-adv-x="802" d="M180 -410l10 123q25 -20 65 -35.5t81 -18.5t74.5 8t44.5 46q10 33 -4.5 58.5t-40 42t-57 24.5t-56.5 6l47 183h168l-31 -125q51 -4 86 -24.5t54.5 -53.5t22.5 -73t-9 -83q-20 -66 -74.5 -99.5t-122 -40.5t-137.5 10.5t-121 51.5z" />
<glyph unicode="&#xb9;" horiz-adv-x="708" d="M119 696v138h157v577h-137v137h307v-714h160v-138h-487z" />
<glyph unicode="&#xba;" horiz-adv-x="1095" d="M123 1092q0 131 62.5 219t155.5 132t202.5 44t203 -44t156 -132t62.5 -219q0 -133 -62.5 -221.5t-156 -132.5t-203 -44t-202.5 44t-155.5 132t-62.5 222zM141 365v184h820v-184h-820zM311 1092q0 -80 35 -132.5t86 -79t112.5 -26.5t113 26.5t86 79t34.5 132.5 q0 78 -34.5 131t-86 78.5t-113 25.5t-112.5 -25.5t-86 -78.5t-35 -131z" />
<glyph unicode="&#xbb;" horiz-adv-x="1038" d="M121 287l207 422l-207 426l133 53l293 -479l-293 -476zM514 287l207 422l-207 426l133 53l293 -479l-293 -476z" />
<glyph unicode="&#xbc;" horiz-adv-x="1892" d="M98 598v137h156v576h-137v137h307v-713h160v-137h-486zM510 2l692 1432h201l-694 -1432h-199zM1143 170v78l405 604h183v-539h86v-143h-86v-170h-160v170h-428zM1341 307h240v166q4 45 6 89t4 89h-2z" />
<glyph unicode="&#xbd;" horiz-adv-x="1925" d="M98 598v137h156v576h-137v137h307v-713h160v-137h-486zM479 0l721 1434h201l-721 -1434h-201zM1251 0v37l342 432q37 43 50.5 86t6 79t-37 58.5t-80.5 22.5q-117 0 -125 -113h-145q0 123 73.5 192.5t208.5 69.5q102 0 166 -43t88.5 -107.5t9 -142t-70.5 -147.5l-215 -274 h321v-150h-592z" />
<glyph unicode="&#xbe;" horiz-adv-x="1939" d="M82 840h151q4 -53 46.5 -84t103.5 -31q68 0 108.5 40t40.5 99q0 51 -24.5 82t-62 46.5t-84 16.5t-89.5 -5v24l185 275h-340v139h571v-25l-207 -299q53 -6 94 -29.5t69 -58.5t42 -78t14 -86q0 -57 -21.5 -109t-61 -92t-98 -63.5t-134.5 -23.5q-63 0 -117.5 17t-94.5 51 t-64.5 83t-26.5 111zM557 2l692 1432h201l-694 -1432h-199zM1190 170v78l405 604h183v-539h86v-143h-86v-170h-160v170h-428zM1389 307h239v166q4 45 6 89t4 89h-2z" />
<glyph unicode="&#xbf;" horiz-adv-x="1013" d="M74 18q8 68 35.5 119t63.5 96.5t77 88.5t73.5 93t53 113.5t18.5 149.5h234q4 -98 -15.5 -168t-51.5 -122t-70.5 -93t-76.5 -79t-68 -81t-42 -100q-8 -63 6.5 -111.5t46 -81t75.5 -49t93 -16.5q39 0 76 13t67.5 38t52 60.5t28.5 82.5h198q-4 -102 -36.5 -178t-88 -126 t-131.5 -74.5t-164 -24.5q-86 -2 -161.5 19.5t-136 63.5t-100.5 101.5t-52 130.5q-12 78 -4 135zM379 911q0 55 38 90t95 35t97 -34.5t40 -90.5q0 -57 -40 -91t-97 -34t-95 34t-38 91z" />
<glyph unicode="&#xc0;" horiz-adv-x="1439" d="M2 0v31l664 1413h110l660 -1413v-31h-248l-141 297h-656l-139 -297h-250zM444 1788v20l205 78l162 -301v-22h-186zM469 498h502l-250 573z" />
<glyph unicode="&#xc1;" horiz-adv-x="1439" d="M2 0v31l664 1413h110l660 -1413v-31h-248l-141 297h-656l-139 -297h-250zM469 498h502l-250 573zM625 1575v22l161 301l205 -77v-21l-180 -225h-186z" />
<glyph unicode="&#xc2;" horiz-adv-x="1439" d="M2 0v31l664 1413h110l660 -1413v-31h-248l-141 297h-656l-139 -297h-250zM319 1528v22l289 287h226l286 -289v-20h-221l-178 174l-178 -174h-224zM469 498h502l-250 573z" />
<glyph unicode="&#xc3;" horiz-adv-x="1439" d="M2 0v31l664 1413h110l660 -1413v-31h-248l-141 297h-656l-139 -297h-250zM377 1612q57 129 151.5 174t223.5 -25q29 -18 58.5 -31.5t57 -13.5t52 15.5t43.5 56.5q31 -14 58.5 -27.5t59.5 -29.5q-47 -129 -138 -174.5t-214 20.5q-31 18 -63.5 31.5t-63.5 14.5t-58.5 -14.5 t-47.5 -56.5zM469 498h502l-250 573z" />
<glyph unicode="&#xc4;" horiz-adv-x="1439" d="M2 0v31l664 1413h110l660 -1413v-31h-248l-141 297h-656l-139 -297h-250zM338 1630q0 55 38 88t93 33q53 0 92 -32.5t39 -88.5q0 -53 -39 -86t-92 -33q-55 0 -93 33t-38 86zM469 498h502l-250 573zM838 1630q0 55 37.5 88t93.5 33q55 0 93 -32.5t38 -88.5q0 -53 -38 -86 t-93 -33t-93 33t-38 86z" />
<glyph unicode="&#xc5;" horiz-adv-x="1439" d="M2 0v31l651 1384q-80 16 -138 73.5t-58 158.5q0 80 37.5 133t95 79.5t125 26.5t125 -26.5t95.5 -80t38 -132.5q0 -98 -55.5 -154.5t-131.5 -73.5l650 -1388v-31h-248l-141 297h-656l-139 -297h-250zM469 498h502l-250 551zM590 1647q0 -57 39 -86t86 -29t86 28.5t39 86.5 q0 57 -39 85.5t-86 28.5t-86 -28.5t-39 -85.5z" />
<glyph unicode="&#xc6;" horiz-adv-x="1687" d="M4 0v35l698 1395h850v-205h-534v-389h508v-193h-508v-444h557v-199h-762v379h-395l-182 -379h-232zM494 573h319l8 666h-2z" />
<glyph unicode="&#xc7;" horiz-adv-x="1558" d="M94 715q0 174 59.5 310t159 230.5t231.5 144.5t279 50q104 0 209 -29.5t193 -89t153.5 -149.5t94.5 -211h-234q-53 135 -164.5 197.5t-253.5 64.5q-111 0 -200 -38t-153.5 -106.5t-99 -164t-34.5 -209.5q0 -106 34.5 -199.5t99 -163t154 -109.5t199.5 -40q147 0 263 71.5 t163 214.5h232q-25 -115 -79 -201.5t-128 -148t-164 -97.5t-186 -48l-29 -115q100 -8 142 -71.5t16 -151.5q-20 -66 -74.5 -98.5t-122.5 -39.5t-137.5 9t-120.5 51l12 129q25 -20 64 -33.5t77.5 -13.5t71.5 14.5t43 46.5q10 33 -2 54.5t-36.5 35t-55.5 18.5t-57 3l39 158 q-135 10 -255 64.5t-209 147.5t-141.5 222t-52.5 291z" />
<glyph unicode="&#xc8;" horiz-adv-x="1181" d="M178 0v1434h873v-209h-633v-379h598v-211h-598v-418h645v-217h-885zM383 1780v20l205 78l162 -301v-23h-187z" />
<glyph unicode="&#xc9;" horiz-adv-x="1181" d="M178 0v1434h873v-209h-633v-379h598v-211h-598v-418h645v-217h-885zM514 1556v23l162 301l205 -78v-20l-181 -226h-186z" />
<glyph unicode="&#xca;" horiz-adv-x="1181" d="M178 0v1434h873v-209h-633v-379h598v-211h-598v-418h645v-217h-885zM248 1552v23l276 283h215l275 -285v-21h-213l-170 172l-170 -172h-213z" />
<glyph unicode="&#xcb;" horiz-adv-x="1181" d="M178 0v1434h873v-209h-633v-379h598v-211h-598v-418h645v-217h-885zM238 1686q0 55 37.5 87.5t93.5 32.5q53 0 92 -32.5t39 -87.5q0 -53 -39 -86t-92 -33q-55 0 -93 32.5t-38 86.5zM737 1686q0 55 38 87.5t93 32.5t93 -32.5t38 -87.5q0 -53 -38 -86t-93 -33t-93 32.5 t-38 86.5z" />
<glyph unicode="&#xcc;" horiz-adv-x="856" d="M82 0v193h227v1050h-209v191h656v-191h-209v-1050h227v-193h-692zM150 1776v20l204 78l162 -301v-23h-186z" />
<glyph unicode="&#xcd;" horiz-adv-x="856" d="M82 0v193h227v1050h-209v191h656v-191h-209v-1050h227v-193h-692zM317 1567v22l162 301l205 -78v-20l-180 -225h-187z" />
<glyph unicode="&#xce;" horiz-adv-x="856" d="M49 1559v22l277 279h217l272 -281v-20h-211l-170 170l-170 -170h-215zM82 0v193h227v1050h-209v191h656v-191h-209v-1050h227v-193h-692z" />
<glyph unicode="&#xcf;" horiz-adv-x="856" d="M82 0v193h227v1050h-209v191h656v-191h-209v-1050h227v-193h-692zM82 1677q0 55 38 88t93 33q53 0 92 -32.5t39 -88.5q0 -53 -39 -85.5t-92 -32.5q-55 0 -93 32.5t-38 85.5zM518 1677q0 55 38 88t93 33t93 -32.5t38 -88.5q0 -53 -38 -85.5t-93 -32.5t-93 32.5t-38 85.5z " />
<glyph unicode="&#xd0;" horiz-adv-x="1511" d="M35 610v189h162v633h518q168 0 298 -58.5t219 -157t136 -227.5t47 -270t-46 -271.5t-135 -229.5t-220 -158.5t-299 -59.5h-518v610h-162zM434 217h277q111 0 197.5 40t147 108.5t91.5 158.5t31 193q0 100 -32 191t-91.5 160t-145.5 109t-196 40h-279v-418h244v-189h-244 v-393z" />
<glyph unicode="&#xd1;" horiz-adv-x="1533" d="M178 0v1438h86l871 -965l-17 438v523h238v-1436h-82l-877 977l17 -455v-520h-236zM377 1595q57 129 151.5 174.5t223.5 -24.5q29 -18 58.5 -31.5t57 -13.5t52 15.5t43.5 56.5q31 -14 58.5 -27.5t59.5 -30.5q-47 -129 -138 -174t-214 21q-31 18 -63.5 31.5t-63.5 14.5 t-58.5 -14.5t-47.5 -56.5z" />
<glyph unicode="&#xd2;" horiz-adv-x="1648" d="M94 717q0 174 59.5 312t160 233.5t233.5 145.5t278 50q147 0 279.5 -50t232 -145.5t158.5 -233.5t59 -312q0 -164 -54 -300t-150.5 -234.5t-231.5 -153t-297 -54.5q-147 0 -279 50.5t-231.5 145.5t-158 232.5t-58.5 313.5zM336 717q0 -125 39 -221.5t104.5 -162 t154.5 -99t191 -33.5q100 0 189.5 33.5t157 99t106.5 162t39 221.5q0 123 -39 219t-105.5 162.5t-155.5 101.5t-190 35q-102 0 -191 -35t-155.5 -100.5t-105.5 -161.5t-39 -221zM553 1804v21l205 78l162 -301v-23h-187z" />
<glyph unicode="&#xd3;" horiz-adv-x="1648" d="M94 717q0 174 59.5 312t160 233.5t233.5 145.5t278 50q147 0 279.5 -50t232 -145.5t158.5 -233.5t59 -312q0 -164 -54 -300t-150.5 -234.5t-231.5 -153t-297 -54.5q-147 0 -279 50.5t-231.5 145.5t-158 232.5t-58.5 313.5zM336 717q0 -125 39 -221.5t104.5 -162 t154.5 -99t191 -33.5q100 0 189.5 33.5t157 99t106.5 162t39 221.5q0 123 -39 219t-105.5 162.5t-155.5 101.5t-190 35q-102 0 -191 -35t-155.5 -100.5t-105.5 -161.5t-39 -221zM737 1581v23l162 301l205 -78v-21l-180 -225h-187z" />
<glyph unicode="&#xd4;" horiz-adv-x="1648" d="M94 717q0 174 59.5 312t160 233.5t233.5 145.5t278 50q147 0 279.5 -50t232 -145.5t158.5 -233.5t59 -312q0 -164 -54 -300t-150.5 -234.5t-231.5 -153t-297 -54.5q-147 0 -279 50.5t-231.5 145.5t-158 232.5t-58.5 313.5zM336 717q0 -125 39 -221.5t104.5 -162 t154.5 -99t191 -33.5q100 0 189.5 33.5t157 99t106.5 162t39 221.5q0 123 -39 219t-105.5 162.5t-155.5 101.5t-190 35q-102 0 -191 -35t-155.5 -100.5t-105.5 -161.5t-39 -221zM436 1569v22l289 287h225l287 -289v-20h-221l-178 174l-179 -174h-223z" />
<glyph unicode="&#xd5;" horiz-adv-x="1648" d="M94 717q0 174 59.5 312t160 233.5t233.5 145.5t278 50q147 0 279.5 -50t232 -145.5t158.5 -233.5t59 -312q0 -164 -54 -300t-150.5 -234.5t-231.5 -153t-297 -54.5q-147 0 -279 50.5t-231.5 145.5t-158 232.5t-58.5 313.5zM336 717q0 -125 39 -221.5t104.5 -162 t154.5 -99t191 -33.5q100 0 189.5 33.5t157 99t106.5 162t39 221.5q0 123 -39 219t-105.5 162.5t-155.5 101.5t-190 35q-102 0 -191 -35t-155.5 -100.5t-105.5 -161.5t-39 -221zM489 1638q57 129 151.5 174.5t223.5 -24.5q29 -18 58.5 -31.5t57.5 -13.5t52.5 15.5t42.5 56.5 q31 -14 58.5 -27.5t60.5 -30.5q-47 -129 -138 -174t-214 21q-31 18 -64 31.5t-63.5 14.5t-58 -14.5t-48.5 -56.5z" />
<glyph unicode="&#xd6;" horiz-adv-x="1648" d="M94 717q0 174 59.5 312t160 233.5t233.5 145.5t278 50q147 0 279.5 -50t232 -145.5t158.5 -233.5t59 -312q0 -164 -54 -300t-150.5 -234.5t-231.5 -153t-297 -54.5q-147 0 -279 50.5t-231.5 145.5t-158 232.5t-58.5 313.5zM336 717q0 -125 39 -221.5t104.5 -162 t154.5 -99t191 -33.5q100 0 189.5 33.5t157 99t106.5 162t39 221.5q0 123 -39 219t-105.5 162.5t-155.5 101.5t-190 35q-102 0 -191 -35t-155.5 -100.5t-105.5 -161.5t-39 -221zM428 1679q0 55 38 88t93 33q53 0 92 -32.5t39 -88.5q0 -53 -39 -85.5t-92 -32.5 q-55 0 -93 32.5t-38 85.5zM928 1679q0 55 38 88t93 33t93 -32.5t38 -88.5q0 -53 -38 -85.5t-93 -32.5t-93 32.5t-38 85.5z" />
<glyph unicode="&#xd7;" horiz-adv-x="944" d="M125 924l135 135l213 -213l211 211l135 -135l-211 -211l209 -211l-135 -135l-209 210l-209 -208l-137 135l211 209z" />
<glyph unicode="&#xd8;" horiz-adv-x="1642" d="M94 715q0 176 59.5 313t160 232.5t232.5 144.5t277 49q156 0 295 -59l84 145h225v-20l-135 -230q117 -92 186.5 -234.5t69.5 -340.5q0 -176 -59 -312.5t-158.5 -231.5t-231.5 -144.5t-280 -49.5q-70 0 -140.5 13.5t-135.5 42.5l-88 -148q-55 0 -112.5 -1t-113.5 1v25 l136 223q-123 92 -197 235.5t-74 346.5zM334 715q0 -129 46 -223.5t118 -155.5l508 854q-86 37 -183 37q-100 0 -189 -35t-155.5 -101.5t-105.5 -161.5t-39 -214zM655 240q39 -16 81 -26.5t87 -10.5q100 0 188.5 35.5t155 102.5t105.5 161t39 213q0 129 -44 219t-112 149z " />
<glyph unicode="&#xd9;" horiz-adv-x="1443" d="M164 481v953h237v-947q0 -72 25 -126t69 -91t103 -56t127 -19t126 19t101 56t67.5 91.5t24.5 125.5v947h236v-953q0 -121 -44 -213t-119 -156.5t-176 -97t-216 -32.5q-117 0 -218 32.5t-178 97t-121 156.5t-44 213zM481 1778v20l205 78l162 -301v-23h-186z" />
<glyph unicode="&#xda;" horiz-adv-x="1443" d="M164 481v953h237v-947q0 -72 25 -126t69 -91t103 -56t127 -19t126 19t101 56t67.5 91.5t24.5 125.5v947h236v-953q0 -121 -44 -213t-119 -156.5t-176 -97t-216 -32.5q-117 0 -218 32.5t-178 97t-121 156.5t-44 213zM592 1565v22l162 301l204 -78v-20l-180 -225h-186z" />
<glyph unicode="&#xdb;" horiz-adv-x="1443" d="M164 481v953h237v-947q0 -72 25 -126t69 -91t103 -56t127 -19t126 19t101 56t67.5 91.5t24.5 125.5v947h236v-953q0 -121 -44 -213t-119 -156.5t-176 -97t-216 -32.5q-117 0 -218 32.5t-178 97t-121 156.5t-44 213zM319 1559v22l289 287h226l286 -289v-20h-221l-178 174 l-178 -174h-224z" />
<glyph unicode="&#xdc;" horiz-adv-x="1443" d="M164 481v953h237v-947q0 -72 25 -126t69 -91t103 -56t127 -19t126 19t101 56t67.5 91.5t24.5 125.5v947h236v-953q0 -121 -44 -213t-119 -156.5t-176 -97t-216 -32.5q-117 0 -218 32.5t-178 97t-121 156.5t-44 213zM334 1673q0 55 38 88t93 33q53 0 92 -32.5t39 -88.5 q0 -53 -39 -86t-92 -33q-55 0 -93 33t-38 86zM834 1673q0 55 37.5 88t93.5 33q55 0 93 -32.5t38 -88.5q0 -53 -38 -86t-93 -33t-93 33t-38 86z" />
<glyph unicode="&#xdd;" horiz-adv-x="1290" d="M20 1399v35h256l193 -320l172 -330h8l178 340l187 310h254v-35l-504 -817v-582h-238v582zM520 1567v22l162 301l205 -78v-20l-180 -225h-187z" />
<glyph unicode="&#xde;" horiz-adv-x="1339" d="M178 0v1434h238v-207h356q119 0 213 -40t158.5 -109.5t99.5 -161t35 -193.5q-2 -100 -37 -190.5t-99.5 -159t-157.5 -108.5t-212 -40h-356v-225h-238zM414 434h358q59 0 109.5 22.5t87.5 62.5t57.5 94.5t20.5 115.5t-19.5 115.5t-55.5 93.5t-87 61.5t-113 22.5h-358v-588 z" />
<glyph unicode="&#xdf;" horiz-adv-x="1228" d="M145 0v1018q0 147 52.5 235t135.5 133.5t186.5 54.5t206.5 -1t196.5 -33t154.5 -41v-45l-274 -481q74 0 136 -31t108.5 -84t72 -124t25.5 -150q0 -137 -45 -237.5t-124 -158t-188.5 -70t-238.5 26.5v181q82 -23 149.5 -14t113.5 43t71.5 90.5t25.5 129.5 q0 76 -29.5 130.5t-78.5 86t-112.5 42t-133.5 -4.5v54l252 485q-92 29 -173 32t-140.5 -26t-93 -90t-33.5 -162v-989h-222z" />
<glyph unicode="&#xe0;" horiz-adv-x="1124" d="M70 274q0 70 24.5 129.5t71.5 104.5t118.5 70.5t168.5 25.5q72 0 149.5 -14.5t142.5 -50.5v123q0 61 -33.5 98t-86 54t-117 18.5t-127 -7t-116.5 -24t-85 -29.5l-35 162q76 39 171.5 55.5t193.5 16.5q90 0 172 -16.5t144.5 -56.5t99.5 -107.5t37 -170.5v-389 q0 -35 1 -61.5t10 -44t29.5 -25.5t61.5 -4l4 -133q-59 -12 -109.5 -15t-88 13t-60.5 56t-25 114q-25 -49 -64.5 -84t-88.5 -57.5t-103.5 -32.5t-105.5 -10q-90 0 -155.5 24.5t-110.5 65.5t-66.5 93t-21.5 109zM289 289q0 -66 43 -100.5t137 -34.5q43 0 89 12t85 39.5 t66.5 73.5t35.5 116q-37 23 -112.5 41.5t-149.5 18.5q-80 0 -137 -43t-57 -123zM315 1395v18l187 72l149 -277v-20h-172z" />
<glyph unicode="&#xe1;" horiz-adv-x="1124" d="M70 274q0 70 24.5 129.5t71.5 104.5t118.5 70.5t168.5 25.5q72 0 149.5 -14.5t142.5 -50.5v123q0 61 -33.5 98t-86 54t-117 18.5t-127 -7t-116.5 -24t-85 -29.5l-35 162q76 39 171.5 55.5t193.5 16.5q90 0 172 -16.5t144.5 -56.5t99.5 -107.5t37 -170.5v-389 q0 -35 1 -61.5t10 -44t29.5 -25.5t61.5 -4l4 -133q-59 -12 -109.5 -15t-88 13t-60.5 56t-25 114q-25 -49 -64.5 -84t-88.5 -57.5t-103.5 -32.5t-105.5 -10q-90 0 -155.5 24.5t-110.5 65.5t-66.5 93t-21.5 109zM289 289q0 -66 43 -100.5t137 -34.5q43 0 89 12t85 39.5 t66.5 73.5t35.5 116q-37 23 -112.5 41.5t-149.5 18.5q-80 0 -137 -43t-57 -123zM428 1198v19l145 272l185 -72v-18l-162 -201h-168z" />
<glyph unicode="&#xe2;" horiz-adv-x="1124" d="M70 274q0 70 24.5 129.5t71.5 104.5t118.5 70.5t168.5 25.5q72 0 149.5 -14.5t142.5 -50.5v123q0 61 -33.5 98t-86 54t-117 18.5t-127 -7t-116.5 -24t-85 -29.5l-35 162q76 39 171.5 55.5t193.5 16.5q90 0 172 -16.5t144.5 -56.5t99.5 -107.5t37 -170.5v-389 q0 -35 1 -61.5t10 -44t29.5 -25.5t61.5 -4l4 -133q-59 -12 -109.5 -15t-88 13t-60.5 56t-25 114q-25 -49 -64.5 -84t-88.5 -57.5t-103.5 -32.5t-105.5 -10q-90 0 -155.5 24.5t-110.5 65.5t-66.5 93t-21.5 109zM182 1180v20l256 275h199l252 -277v-18h-195l-157 166 l-158 -166h-197zM289 289q0 -66 43 -100.5t137 -34.5q43 0 89 12t85 39.5t66.5 73.5t35.5 116q-37 23 -112.5 41.5t-149.5 18.5q-80 0 -137 -43t-57 -123z" />
<glyph unicode="&#xe3;" horiz-adv-x="1124" d="M70 274q0 70 24.5 129.5t71.5 104.5t118.5 70.5t168.5 25.5q72 0 149.5 -14.5t142.5 -50.5v123q0 61 -33.5 98t-86 54t-117 18.5t-127 -7t-116.5 -24t-85 -29.5l-35 162q76 39 171.5 55.5t193.5 16.5q90 0 172 -16.5t144.5 -56.5t99.5 -107.5t37 -170.5v-389 q0 -35 1 -61.5t10 -44t29.5 -25.5t61.5 -4l4 -133q-59 -12 -109.5 -15t-88 13t-60.5 56t-25 114q-25 -49 -64.5 -84t-88.5 -57.5t-103.5 -32.5t-105.5 -10q-90 0 -155.5 24.5t-110.5 65.5t-66.5 93t-21.5 109zM217 1274q55 123 141 164t209 -25q27 -16 54.5 -28.5t54 -13.5 t49.5 14.5t39 54.5q29 -14 54.5 -26.5t55.5 -27.5q-43 -123 -129 -163.5t-198 20.5q-29 16 -59.5 29.5t-59.5 13.5t-54.5 -14.5t-45.5 -52.5zM289 289q0 -66 43 -100.5t137 -34.5q43 0 89 12t85 39.5t66.5 73.5t35.5 116q-37 23 -112.5 41.5t-149.5 18.5q-80 0 -137 -43 t-57 -123z" />
<glyph unicode="&#xe4;" horiz-adv-x="1124" d="M70 274q0 70 24.5 129.5t71.5 104.5t118.5 70.5t168.5 25.5q72 0 149.5 -14.5t142.5 -50.5v123q0 61 -33.5 98t-86 54t-117 18.5t-127 -7t-116.5 -24t-85 -29.5l-35 162q76 39 171.5 55.5t193.5 16.5q90 0 172 -16.5t144.5 -56.5t99.5 -107.5t37 -170.5v-389 q0 -35 1 -61.5t10 -44t29.5 -25.5t61.5 -4l4 -133q-59 -12 -109.5 -15t-88 13t-60.5 56t-25 114q-25 -49 -64.5 -84t-88.5 -57.5t-103.5 -32.5t-105.5 -10q-90 0 -155.5 24.5t-110.5 65.5t-66.5 93t-21.5 109zM190 1325q0 55 38 88t94 33q53 0 92 -33t39 -88q0 -53 -39 -86 t-92 -33q-55 0 -93.5 33t-38.5 86zM289 289q0 -66 43 -100.5t137 -34.5q43 0 89 12t85 39.5t66.5 73.5t35.5 116q-37 23 -112.5 41.5t-149.5 18.5q-80 0 -137 -43t-57 -123zM618 1325q0 55 38 88t94 33q55 0 93 -33t38 -88q0 -53 -38 -86t-93 -33t-93.5 33t-38.5 86z" />
<glyph unicode="&#xe5;" horiz-adv-x="1124" d="M70 274q0 70 24.5 129.5t71.5 104.5t118.5 70.5t168.5 25.5q72 0 149.5 -14.5t142.5 -50.5v123q0 61 -33.5 98t-86 54t-117 18.5t-127 -7t-116.5 -24t-85 -29.5l-35 162q76 39 171.5 55.5t193.5 16.5q90 0 172 -16.5t144.5 -56.5t99.5 -107.5t37 -170.5v-389 q0 -35 1 -61.5t10 -44t29.5 -25.5t61.5 -4l4 -133q-59 -12 -109.5 -15t-88 13t-60.5 56t-25 114q-25 -49 -64.5 -84t-88.5 -57.5t-103.5 -32.5t-105.5 -10q-90 0 -155.5 24.5t-110.5 65.5t-66.5 93t-21.5 109zM289 289q0 -66 43 -100.5t137 -34.5q43 0 89 12t85 39.5 t66.5 73.5t35.5 116q-37 23 -112.5 41.5t-149.5 18.5q-80 0 -137 -43t-57 -123zM315 1333q0 66 35 111t88.5 66.5t114.5 21.5t114.5 -21.5t88.5 -66.5t35 -111q0 -68 -35 -111.5t-88.5 -66t-114.5 -22.5t-114.5 22.5t-88.5 66.5t-35 111zM436 1333q0 -49 37 -72.5t80 -23.5 t80 23.5t37 72.5q0 47 -37 70.5t-80 23.5t-80 -23.5t-37 -70.5z" />
<glyph unicode="&#xe6;" horiz-adv-x="1679" d="M70 283q-2 84 25.5 147.5t77.5 106.5t119.5 64.5t149.5 21.5q72 0 147 -13.5t144 -48.5v86q0 55 -23.5 93t-62.5 61.5t-89 33t-103 7.5q-80 -4 -157 -26.5t-120 -45.5l-31 156q68 35 158 58.5t191 23.5q61 0 118.5 -10.5t104.5 -34t81 -63.5t48 -99q45 104 135 155.5 t207 51.5q125 0 211 -45t134 -121t59.5 -176.5t-11.5 -212.5h-663q2 -141 73.5 -216t208.5 -77q86 -4 173 15.5t153 51.5l35 -168q-82 -35 -173.5 -59.5t-183.5 -24.5q-125 2 -223 52.5t-158 154.5q-72 -98 -175 -150t-234 -52q-68 0 -129.5 20t-108.5 59t-76.5 95.5 t-31.5 128.5zM279 299q0 -39 16 -66.5t41.5 -46t58.5 -26.5t68 -8q43 0 88 12t83 34.5t67.5 55.5t41.5 76q-4 20 -7 37.5t-5 40.5q-51 31 -111.5 44t-119.5 13q-43 0 -83 -8t-71 -28.5t-49 -52.5t-18 -77zM924 612h483q4 100 -60.5 161t-168.5 61q-104 2 -170 -57.5 t-84 -164.5z" />
<glyph unicode="&#xe7;" horiz-adv-x="1159" d="M84 498q0 156 65.5 265t167 171.5t223.5 77t232.5 -20.5t195.5 -117.5t113 -214.5h-213q-27 63 -78 102.5t-114.5 50.5t-129 -2t-118.5 -53t-88 -104.5t-35 -154.5q0 -92 35 -159t89 -105.5t119.5 -51t129 2t116 57.5t78.5 114h215q-35 -158 -139 -248t-239 -114l-21 -88 q51 -4 86 -24.5t54.5 -53.5t22.5 -73t-9 -83q-20 -66 -74.5 -99.5t-122 -40.5t-137.5 10.5t-121 51.5l10 123q25 -20 65 -35.5t81 -18.5t74.5 8.5t44.5 45.5q10 33 -4.5 58.5t-40 42t-57.5 24.5t-56 6l35 140q-88 8 -170 45t-145.5 100.5t-101.5 154.5t-38 210z" />
<glyph unicode="&#xe8;" horiz-adv-x="1128" d="M84 514q2 123 45 215t112.5 153.5t162 92.5t192.5 31q129 0 223 -43t149.5 -120t72 -181.5t-8.5 -227.5h-729q0 -68 24.5 -118t68.5 -81.5t102.5 -48t126.5 -16.5q94 0 182 11.5t176 49.5l29 -165q-86 -39 -182.5 -61.5t-190.5 -22.5q-123 -2 -226.5 33.5t-177 104 t-114.5 169t-37 225.5zM303 588h549q2 63 -18.5 109t-56.5 77t-83 45.5t-100 14.5q-111 0 -189.5 -64.5t-101.5 -181.5zM369 1405v18l192 74l152 -283v-20h-174z" />
<glyph unicode="&#xe9;" horiz-adv-x="1128" d="M84 514q2 123 45 215t112.5 153.5t162 92.5t192.5 31q129 0 223 -43t149.5 -120t72 -181.5t-8.5 -227.5h-729q0 -68 24.5 -118t68.5 -81.5t102.5 -48t126.5 -16.5q94 0 182 11.5t176 49.5l29 -165q-86 -39 -182.5 -61.5t-190.5 -22.5q-123 -2 -226.5 33.5t-177 104 t-114.5 169t-37 225.5zM303 588h549q2 63 -18.5 109t-56.5 77t-83 45.5t-100 14.5q-111 0 -189.5 -64.5t-101.5 -181.5zM481 1204v23l150 278l190 -71v-19l-168 -211h-172z" />
<glyph unicode="&#xea;" horiz-adv-x="1128" d="M84 514q2 123 45 215t112.5 153.5t162 92.5t192.5 31q129 0 223 -43t149.5 -120t72 -181.5t-8.5 -227.5h-729q0 -68 24.5 -118t68.5 -81.5t102.5 -48t126.5 -16.5q94 0 182 11.5t176 49.5l29 -165q-86 -39 -182.5 -61.5t-190.5 -22.5q-123 -2 -226.5 33.5t-177 104 t-114.5 169t-37 225.5zM219 1169v23l266 264h209l267 -266v-21h-205l-166 162l-164 -162h-207zM303 588h549q2 63 -18.5 109t-56.5 77t-83 45.5t-100 14.5q-111 0 -189.5 -64.5t-101.5 -181.5z" />
<glyph unicode="&#xeb;" horiz-adv-x="1128" d="M84 514q2 123 45 215t112.5 153.5t162 92.5t192.5 31q129 0 223 -43t149.5 -120t72 -181.5t-8.5 -227.5h-729q0 -68 24.5 -118t68.5 -81.5t102.5 -48t126.5 -16.5q94 0 182 11.5t176 49.5l29 -165q-86 -39 -182.5 -61.5t-190.5 -22.5q-123 -2 -226.5 33.5t-177 104 t-114.5 169t-37 225.5zM225 1321q0 51 35 82t86 31q49 0 86 -31t37 -82q0 -49 -37 -79t-86 -30q-51 0 -86 30t-35 79zM303 588h549q2 63 -18.5 109t-56.5 77t-83 45.5t-100 14.5q-111 0 -189.5 -64.5t-101.5 -181.5zM688 1321q0 51 35 82t86 31t86 -31t35 -82q0 -49 -35 -79 t-86 -30t-86 30t-35 79z" />
<glyph unicode="&#xec;" horiz-adv-x="516" d="M-6 1384v21l199 74l155 -289v-23h-180zM147 0v985h222v-985h-222z" />
<glyph unicode="&#xed;" horiz-adv-x="516" d="M145 1174v22l156 289l197 -76v-18l-172 -217h-181zM147 0v985h222v-985h-222z" />
<glyph unicode="&#xee;" horiz-adv-x="516" d="M-72 1153v25l234 295h184l232 -297v-23h-181l-143 180l-145 -180h-181zM147 0v985h222v-985h-222z" />
<glyph unicode="&#xef;" horiz-adv-x="516" d="M-72 1323q0 55 38 88t93 33q53 0 92 -33t39 -88q0 -53 -39 -86t-92 -33q-55 0 -93 33t-38 86zM147 0v985h222v-985h-222zM326 1323q0 55 37.5 88t93.5 33q55 0 93 -33t38 -88q0 -53 -38 -86t-93 -33t-93 33t-38 86z" />
<glyph unicode="&#xf0;" horiz-adv-x="1212" d="M86 485q0 106 38 195.5t102.5 154t149.5 99.5t179 35q143 0 258 -84q-29 68 -76 132t-94 120l-119 -84l-61 86l117 82q-96 113 -203 196v10h186q74 -49 144 -118l122 84l60 -84l-107 -76q72 -78 134.5 -167t108.5 -184.5t72.5 -195.5t26.5 -201q0 -164 -76.5 -276.5 t-192.5 -169.5t-250 -60.5t-249.5 52t-192.5 168t-77 286.5zM309 485q0 -104 44 -172.5t109.5 -103.5t141.5 -35t141.5 35t109.5 103.5t44 172.5q0 100 -44 167t-109.5 99.5t-141.5 32.5t-141.5 -32.5t-109.5 -99t-44 -167.5z" />
<glyph unicode="&#xf1;" horiz-adv-x="1241" d="M74 844v145q53 10 108.5 14.5t99.5 -10t72.5 -51.5t28.5 -106q20 47 57 79.5t83 53t96.5 30t99.5 9.5q100 0 174 -33t122 -90.5t71.5 -135t23.5 -169.5v-580h-225v580q2 117 -64.5 182t-167.5 67q-53 0 -98 -19t-79 -55t-53.5 -85t-19.5 -109v-561h-225v700q0 43 -2 72 t-12 46.5t-31.5 22.5t-58.5 3zM260 1264q55 123 143.5 166t210.5 -25q27 -16 55.5 -28.5t55.5 -13.5t49.5 14.5t38.5 54.5q29 -14 55.5 -26.5t57.5 -29.5q-45 -123 -132 -165t-200 20q-29 18 -60.5 30.5t-61.5 13.5t-55.5 -13.5t-43.5 -53.5q-27 14 -56.5 28.5t-56.5 27.5z " />
<glyph unicode="&#xf2;" d="M84 498q0 172 77 285.5t193.5 171t250.5 57.5t251 -57.5t193.5 -171t76.5 -285.5t-76.5 -287t-193.5 -172t-251 -57t-250.5 57t-193.5 172t-77 287zM305 498q0 -106 44 -177t110.5 -107t144.5 -36t144.5 36t110.5 106.5t44 177.5q0 106 -44 176.5t-110.5 105.5t-144.5 35 t-144.5 -35t-110.5 -105.5t-44 -176.5zM356 1403v18l191 72l149 -279v-20h-172z" />
<glyph unicode="&#xf3;" d="M84 498q0 172 77 285.5t193.5 171t250.5 57.5t251 -57.5t193.5 -171t76.5 -285.5t-76.5 -287t-193.5 -172t-251 -57t-250.5 57t-193.5 172t-77 287zM305 498q0 -106 44 -177t110.5 -107t144.5 -36t144.5 36t110.5 106.5t44 177.5q0 106 -44 176.5t-110.5 105.5t-144.5 35 t-144.5 -35t-110.5 -105.5t-44 -176.5zM494 1180v22l149 279l191 -72v-18l-168 -211h-172z" />
<glyph unicode="&#xf4;" d="M84 498q0 172 77 285.5t193.5 171t250.5 57.5t251 -57.5t193.5 -171t76.5 -285.5t-76.5 -287t-193.5 -172t-251 -57t-250.5 57t-193.5 172t-77 287zM233 1163v21l265 274h207l262 -276v-19h-203l-164 166l-162 -166h-205zM305 498q0 -106 44 -177t110.5 -107t144.5 -36 t144.5 36t110.5 106.5t44 177.5q0 106 -44 176.5t-110.5 105.5t-144.5 35t-144.5 -35t-110.5 -105.5t-44 -176.5z" />
<glyph unicode="&#xf5;" d="M84 498q0 172 77 285.5t193.5 171t250.5 57.5t251 -57.5t193.5 -171t76.5 -285.5t-76.5 -287t-193.5 -172t-251 -57t-250.5 57t-193.5 172t-77 287zM268 1288q55 123 143.5 166t211.5 -24q27 -16 55.5 -28.5t55 -14t49 14t38.5 54.5q29 -14 55.5 -26.5t57.5 -28.5 q-45 -123 -132 -165t-200 19q-29 18 -60.5 30.5t-61 13.5t-55.5 -13t-44 -53q-27 14 -56.5 28.5t-56.5 26.5zM305 498q0 -106 44 -177t110.5 -107t144.5 -36t144.5 36t110.5 106.5t44 177.5q0 106 -44 176.5t-110.5 105.5t-144.5 35t-144.5 -35t-110.5 -105.5t-44 -176.5z " />
<glyph unicode="&#xf6;" d="M84 498q0 172 77 285.5t193.5 171t250.5 57.5t251 -57.5t193.5 -171t76.5 -285.5t-76.5 -287t-193.5 -172t-251 -57t-250.5 57t-193.5 172t-77 287zM238 1319q0 51 34.5 82t85.5 31q49 0 86 -31t37 -82q0 -49 -37 -79t-86 -30q-51 0 -85.5 30t-34.5 79zM305 498 q0 -106 44 -177t110.5 -107t144.5 -36t144.5 36t110.5 106.5t44 177.5q0 106 -44 176.5t-110.5 105.5t-144.5 35t-144.5 -35t-110.5 -105.5t-44 -176.5zM700 1319q0 51 35 82t86 31t86 -31t35 -82q0 -49 -35 -79t-86 -30t-86 30t-35 79z" />
<glyph unicode="&#xf7;" horiz-adv-x="1101" d="M127 637v188h848v-188h-848zM416 371q0 59 40 93t95 34q57 0 96 -34t39 -93q0 -55 -39 -90t-96 -35q-55 0 -95 34.5t-40 90.5zM416 1096q0 59 40 93t95 34q57 0 96 -34t39 -93q0 -55 -39 -90t-96 -35q-55 0 -95 34.5t-40 90.5z" />
<glyph unicode="&#xf8;" d="M84 498q0 156 65.5 265t167 169.5t222 74t233.5 -21.5l66 129h178l-98 -196q92 -61 150 -167t58 -253q0 -154 -63.5 -262.5t-161.5 -170t-218 -77t-232 15.5l-60 -119h-176l92 183q-98 61 -160.5 168.5t-62.5 261.5zM299 498q0 -86 31.5 -144.5t83.5 -93.5l276 547 q-66 18 -134.5 8t-125.5 -48t-94 -105.5t-37 -163.5zM530 184q63 -16 132 -5t124.5 51t91 107t35.5 161q0 80 -29.5 137t-74.5 92z" />
<glyph unicode="&#xf9;" horiz-adv-x="1222" d="M133 416v571h225v-571q-2 -119 56.5 -186.5t156.5 -67.5q106 0 178 70.5t72 189.5v565h223v-704q0 -45 3.5 -74t13.5 -45.5t31.5 -21.5t56.5 -1l2 -145q-47 -8 -101.5 -13.5t-100.5 7t-75.5 51.5t-29.5 119q-51 -100 -144.5 -138t-197.5 -38q-102 0 -173 33.5t-114 92 t-62.5 137.5t-19.5 169zM356 1399v18l195 74l154 -285v-22h-177z" />
<glyph unicode="&#xfa;" horiz-adv-x="1222" d="M133 416v571h225v-571q-2 -119 56.5 -186.5t156.5 -67.5q106 0 178 70.5t72 189.5v565h223v-704q0 -45 3.5 -74t13.5 -45.5t31.5 -21.5t56.5 -1l2 -145q-47 -8 -101.5 -13.5t-100.5 7t-75.5 51.5t-29.5 119q-51 -100 -144.5 -138t-197.5 -38q-102 0 -173 33.5t-114 92 t-62.5 137.5t-19.5 169zM481 1184v20l154 283l192 -72v-20l-170 -211h-176z" />
<glyph unicode="&#xfb;" horiz-adv-x="1222" d="M133 416v571h225v-571q-2 -119 56.5 -186.5t156.5 -67.5q106 0 178 70.5t72 189.5v565h223v-704q0 -45 3.5 -74t13.5 -45.5t31.5 -21.5t56.5 -1l2 -145q-47 -8 -101.5 -13.5t-100.5 7t-75.5 51.5t-29.5 119q-51 -100 -144.5 -138t-197.5 -38q-102 0 -173 33.5t-114 92 t-62.5 137.5t-19.5 169zM197 1176v22l276 272h215l275 -274v-20h-213l-170 165l-170 -165h-213z" />
<glyph unicode="&#xfc;" horiz-adv-x="1222" d="M133 416v571h225v-571q-2 -119 56.5 -186.5t156.5 -67.5q106 0 178 70.5t72 189.5v565h223v-704q0 -45 3.5 -74t13.5 -45.5t31.5 -21.5t56.5 -1l2 -145q-47 -8 -101.5 -13.5t-100.5 7t-75.5 51.5t-29.5 119q-51 -100 -144.5 -138t-197.5 -38q-102 0 -173 33.5t-114 92 t-62.5 137.5t-19.5 169zM209 1323q0 53 38 85t91 32q51 0 89 -32t38 -85t-38 -85t-89 -32q-53 0 -91 32t-38 85zM698 1323q0 53 37 85t90 32t90 -32t37 -85t-37 -85t-90 -32t-90 32t-37 85z" />
<glyph unicode="&#xfd;" horiz-adv-x="1128" d="M25 963v24h239l146 -344l161 -434h7l149 432l131 346h223v-24l-428 -1047q-43 -109 -91 -202t-113.5 -150.5t-155.5 -68.5t-219 44l26 162q66 -29 116 -29t89 24.5t66.5 70t50.5 106.5l47 121zM432 1165v23l160 299l203 -76v-20l-179 -226h-184z" />
<glyph unicode="&#xfe;" horiz-adv-x="1198" d="M145 -506v1979h224v-539q141 76 275 77t237.5 -60.5t167 -177t63.5 -271.5q0 -154 -63.5 -269.5t-167 -177t-237.5 -61.5t-275 76v-576h-224zM362 264q88 -61 181.5 -75.5t169 17.5t124 106.5t48.5 189.5t-48.5 189.5t-124 106t-168.5 17.5t-182 -76v-475z" />
<glyph unicode="&#xff;" horiz-adv-x="1128" d="M25 963v24h239l146 -344l161 -434h7l149 432l131 346h223v-24l-428 -1047q-43 -109 -91 -202t-113.5 -150.5t-155.5 -68.5t-219 44l26 162q66 -29 116 -29t89 24.5t66.5 70t50.5 106.5l47 121zM180 1319q0 55 38 88t93 33q53 0 92 -33t39 -88q0 -53 -39 -86t-92 -33 q-55 0 -93 33t-38 86zM680 1319q0 55 38 88t93 33t93 -33t38 -88q0 -53 -38 -86t-93 -33t-93 33t-38 86z" />
<glyph unicode="&#x152;" horiz-adv-x="1898" d="M96 713q0 180 56.5 318t155 232.5t232.5 142.5t287 48q102 0 211 -24h731v-199h-573v-395h537v-189h-537v-448h586v-199h-752q-115 -25 -217 -25q-154 0 -285 49.5t-227 143.5t-150.5 231.5t-54.5 313.5zM319 713q0 -133 37 -235.5t104.5 -171t162 -103.5t208.5 -35 q41 0 84 5t84 17v1045q-90 23 -165 22q-115 0 -210.5 -36.5t-163 -106.5t-104.5 -171t-37 -230z" />
<glyph unicode="&#x153;" horiz-adv-x="1826" d="M84 494q0 139 51 242.5t132 168t181.5 90t197.5 10t180 -71.5t130 -155q59 119 158.5 174.5t228.5 55.5q123 0 206 -45t131.5 -122t59.5 -177.5t-11 -210.5h-652q4 -141 77 -212t208 -77q78 -4 163 17.5t150 49.5l35 -172q-86 -39 -175 -59t-175 -18q-68 0 -131.5 14 t-117.5 45t-95 77t-64 111q-43 -104 -123.5 -164.5t-177 -79t-198 4t-183.5 87t-134 169.5t-52 248zM307 494q0 -106 41 -177t101.5 -106t132 -35t132 35t101.5 105.5t41 177.5q0 106 -41 176.5t-101.5 105.5t-132 35t-132 -35t-101.5 -105.5t-41 -176.5zM1081 612h467 q4 100 -55.5 159.5t-159.5 59.5q-98 0 -164.5 -57t-87.5 -162z" />
<glyph unicode="&#x178;" horiz-adv-x="1290" d="M20 1399v35h256l193 -320l172 -330h8l178 340l187 310h254v-35l-504 -817v-582h-238v582zM264 1675q0 55 38 88t93 33q53 0 92 -32.5t39 -88.5q0 -53 -39 -86t-92 -33q-55 0 -93 33t-38 86zM764 1675q0 55 38 88t93 33t93 -32.5t38 -88.5q0 -53 -38 -86t-93 -33t-93 33 t-38 86z" />
<glyph unicode="&#x2c6;" horiz-adv-x="1011" d="M119 1128v23l289 287h225l287 -289v-21h-222l-178 175l-178 -175h-223z" />
<glyph unicode="&#x2dc;" horiz-adv-x="905" d="M109 1274q57 129 151 174t223 -25q29 -18 58.5 -31.5t57.5 -13.5t52.5 15.5t42.5 56.5q31 -14 58.5 -27.5t60.5 -29.5q-47 -129 -138 -174t-214 20q-31 18 -63.5 31.5t-63.5 14.5t-58.5 -14.5t-48.5 -56.5z" />
<glyph unicode="&#x2000;" horiz-adv-x="952" />
<glyph unicode="&#x2001;" horiz-adv-x="1905" />
<glyph unicode="&#x2002;" horiz-adv-x="952" />
<glyph unicode="&#x2003;" horiz-adv-x="1905" />
<glyph unicode="&#x2004;" horiz-adv-x="635" />
<glyph unicode="&#x2005;" horiz-adv-x="476" />
<glyph unicode="&#x2006;" horiz-adv-x="317" />
<glyph unicode="&#x2007;" horiz-adv-x="317" />
<glyph unicode="&#x2008;" horiz-adv-x="238" />
<glyph unicode="&#x2009;" horiz-adv-x="381" />
<glyph unicode="&#x200a;" horiz-adv-x="105" />
<glyph unicode="&#x2010;" horiz-adv-x="952" d="M131 586v192h690v-192h-690z" />
<glyph unicode="&#x2011;" horiz-adv-x="952" d="M131 586v192h690v-192h-690z" />
<glyph unicode="&#x2012;" horiz-adv-x="952" d="M131 586v192h690v-192h-690z" />
<glyph unicode="&#x2013;" horiz-adv-x="1112" d="M131 586v192h850v-192h-850z" />
<glyph unicode="&#x2014;" horiz-adv-x="1292" d="M131 586v192h1030v-192h-1030z" />
<glyph unicode="&#x2018;" horiz-adv-x="489" d="M111 1163q4 33 14 58l70 217h135l-45 -158q41 -12 67.5 -44t26.5 -79q0 -57 -38 -91t-95 -34q-47 0 -82 23.5t-47 64.5q-6 20 -6 43z" />
<glyph unicode="&#x2019;" horiz-adv-x="493" d="M115 1319q0 57 39 91t96 34q45 0 80 -23.5t49 -64.5q2 -10 4 -21.5t0 -21.5q-2 -16 -4 -28.5t-8 -29.5l-70 -217h-135l45 160q-41 10 -68.5 42t-27.5 79z" />
<glyph unicode="&#x201a;" horiz-adv-x="526" d="M129 96q0 57 39 91t96 34q45 0 80 -22.5t47 -63.5q6 -22 6 -45q-2 -16 -5 -28.5t-7 -28.5q-20 -55 -37.5 -110.5t-34.5 -110.5h-135l47 163q-41 10 -68.5 42t-27.5 79z" />
<glyph unicode="&#x201c;" horiz-adv-x="880" d="M113 1161q0 29 12 58l70 219h135l-45 -160q41 -12 68.5 -43t27.5 -78q0 -59 -39 -93t-96 -34q-47 0 -82 23.5t-47 64.5q-6 27 -4 43zM502 1161q2 16 4 29.5t8 28.5l70 219h137l-47 -160q41 -12 68.5 -43t27.5 -78q0 -59 -39 -93t-96 -34q-47 0 -82 23.5t-45 64.5 q-6 20 -6 43z" />
<glyph unicode="&#x201d;" horiz-adv-x="888" d="M115 1319q0 57 39 91t96 34q45 0 80 -23.5t49 -64.5q2 -10 4 -21.5t0 -21.5q-2 -16 -4 -28.5t-8 -29.5l-70 -217h-135l45 160q-41 10 -68.5 42t-27.5 79zM510 1319q0 57 39 91t96 34q45 0 80 -23.5t47 -64.5q6 -23 6 -43q-2 -16 -4 -28.5t-8 -29.5l-70 -217h-137l47 160 q-41 10 -68.5 42t-27.5 79z" />
<glyph unicode="&#x201e;" horiz-adv-x="913" d="M129 96q0 57 39 91t96 34q100 0 129 -86q6 -27 4 -45q0 -16 -4 -28.5t-8 -28.5q-18 -53 -35.5 -108.5t-36.5 -110.5h-135l47 161q-41 10 -68.5 42t-27.5 79zM516 96q0 57 38 91t95 34q47 0 82 -22.5t47 -63.5q6 -22 6 -45q-4 -33 -14 -57q-18 -53 -35.5 -108.5 t-36.5 -110.5h-135l47 161q-41 10 -67.5 42t-26.5 79z" />
<glyph unicode="&#x2022;" horiz-adv-x="849" d="M164 733q0 55 20.5 100.5t56 77t84 49t101.5 17.5t100 -17.5t83 -49t56.5 -77t20.5 -100.5q0 -53 -20.5 -97t-56.5 -77t-83 -50t-100 -17t-101.5 17t-84 50t-56 77t-20.5 97z" />
<glyph unicode="&#x2026;" horiz-adv-x="1499" d="M129 102q0 59 40 94t97 35t97 -34.5t40 -94.5q0 -57 -40 -92t-97 -35t-97 35t-40 92zM608 102q0 59 40 94t97 35t97.5 -34.5t40.5 -94.5q0 -57 -40.5 -92t-97.5 -35t-97 35t-40 92zM1094 102q0 59 41 94t96 35q59 0 99 -34.5t40 -94.5q0 -57 -40 -92t-99 -35 q-55 0 -96 35t-41 92z" />
<glyph unicode="&#x202f;" horiz-adv-x="381" />
<glyph unicode="&#x2039;" horiz-adv-x="655" d="M98 709l293 479l144 -53l-207 -426l207 -422l-144 -54z" />
<glyph unicode="&#x203a;" horiz-adv-x="655" d="M121 287l207 422l-207 426l143 53l293 -479l-293 -476z" />
<glyph unicode="&#x205f;" horiz-adv-x="476" />
<glyph unicode="&#x20ac;" horiz-adv-x="1337" d="M90 512v141h143q-2 35 -1 69t6 69h-148v141h168q33 123 99.5 219t157.5 162.5t201.5 100.5t233.5 34q139 0 267 -47l-72 -189q-88 35 -187 35q-166 2 -283.5 -86t-166.5 -229h483l-47 -141h-475q-4 -35 -5 -69t3 -69h432l-47 -141h-354q45 -143 161.5 -232.5t294.5 -89.5 q127 0 230 54l78 -195q-72 -35 -152 -50t-162 -15q-133 0 -248.5 34.5t-206 102t-151.5 166t-88 225.5h-164z" />
<glyph unicode="&#x2122;" horiz-adv-x="1556" d="M141 1300v136h521v-136h-183v-436h-151v436h-187zM756 864v572h78l241 -269l240 269h78v-572h-152v307l-162 -188h-10l-162 188v-307h-151z" />
</font>
</defs>
</svg>
