<?xml version="1.0" standalone="no"?>
<!DOCTYPE svg PUBLIC "-//W3C//DTD SVG 1.1//EN" "http://www.w3.org/Graphics/SVG/1.1/DTD/svg11.dtd" >
<svg xmlns="http://www.w3.org/2000/svg" xmlns:xlink="http://www.w3.org/1999/xlink" version="1.1">
<metadata>
Created by FontForge 20150107 at Fri Mar 20 15:14:53 2015
 By Michael Corn

</metadata>
<defs>
<font id="TUFontAwesome" horiz-adv-x="1536" >
  <font-face 
    font-family="TUFontAwesome"
    font-weight="400"
    font-stretch="normal"
    units-per-em="1792"
    panose-1="0 0 0 0 0 0 0 0 0 0"
    ascent="1536"
    descent="-256"
    bbox="-16.6865 -336.273 2651.68 1935.57"
    underline-thickness="0"
    underline-position="0"
    stemv="128"
    unicode-range="U+0020-F23A"
  />
<missing-glyph horiz-adv-x="896" 
d="M224 112h448v1312h-448v-1312zM112 0v1536h672v-1536h-672z" />
    <glyph glyph-name=".notdef" horiz-adv-x="896" 
d="M224 112h448v1312h-448v-1312zM112 0v1536h672v-1536h-672z" />
    <glyph glyph-name="space" unicode=" " horiz-adv-x="448" 
 />
    <glyph glyph-name="asterisk" unicode="&#xf069;" horiz-adv-x="1303" 
d="M73 1090l503 -286v576h150v-576l499 286l77 -125l-503 -290l503 -291l-77 -130l-499 291v-581h-150v581l-503 -291l-73 130l503 291l-503 290z" />
    <glyph glyph-name="plus" unicode="&#xf067;" horiz-adv-x="919" 
d="M0 558v156h384v384h150v-390h384v-150h-384v-384h-150v384h-384z" />
    <glyph glyph-name="question" unicode="&#xf128;" horiz-adv-x="1024" 
d="M704 280v-240c0 -22 -18 -40 -40 -40h-240c-22 0 -40 18 -40 40v240c0 22 18 40 40 40h240c22 0 40 -18 40 -40zM1020 880c0 -190 -129 -263 -224 -316c-59 -34 -96 -103 -96 -132v0c0 -22 -17 -48 -40 -48h-240c-22 0 -36 34 -36 56v45c0 121 120 225 208 265
c77 35 109 68 109 132c0 56 -73 106 -154 106c-45 0 -86 -14 -108 -29c-24 -17 -48 -41 -107 -115c-8 -10 -20 -16 -31 -16c-9 0 -17 3 -25 8l-164 125c-17 13 -21 35 -10 53c108 179 260 266 464 266c214 0 454 -171 454 -400z" />
    <glyph glyph-name="minus" unicode="&#xf068;" horiz-adv-x="919" 
d="M0 558v156l918 -6v-150h-918z" />
    <glyph glyph-name="glass" unicode="&#xf000;" horiz-adv-x="1792" 
d="M1699 1350c0 -29 -23 -58 -43 -78l-632 -632v-768h320c35 0 64 -29 64 -64s-29 -64 -64 -64h-896c-35 0 -64 29 -64 64s29 64 64 64h320v768l-632 632c-20 20 -43 49 -43 78c0 49 62 58 99 58h1408c37 0 99 -9 99 -58z" />
    <glyph glyph-name="music" unicode="&#xf001;" 
d="M1536 1312v-1120c0 -141 -211 -192 -320 -192s-320 51 -320 192s211 192 320 192c66 0 132 -12 192 -39v537l-768 -237v-709c0 -141 -211 -192 -320 -192s-320 51 -320 192s211 192 320 192c66 0 132 -12 192 -39v967c0 42 28 79 68 92l832 256c9 3 18 4 28 4
c53 0 96 -43 96 -96z" />
    <glyph glyph-name="search" unicode="&#xf002;" horiz-adv-x="1376" 
d="M1131 227l244 -238l-104 -109l-244 244c14 10 33 27 58 51c20 21 36 39 46 52zM976 1089c110.494 -111.439 166.584 -238.039 166.584 -379.802c0 -8.34678 -0.194444 -16.7461 -0.583677 -25.198c0 -159 -56 -294 -166 -405c-111 -110 -246 -166 -405 -166
s-294 56 -405 166c-111 111 -166 246 -166 405s55 294 166 405c111 110 246 166 405 166c166 0 301 -56 405 -166zM872 383c83 90 124 190 124 301s-41 211 -124 301c-80 80 -180 119 -301 119c-114 0 -215 -39 -301 -119c-80 -87 -120 -187 -120 -301
c0 -121 40 -221 120 -301c90 -83 190 -125 301 -125c117 0 218 42 301 125z" />
    <glyph glyph-name="envelope" unicode="&#xf003;" horiz-adv-x="1547" 
d="M773 390c-14 0 -27 6 -41 16l-727 488c4 48 23 88 57 119c35 31 76 47 125 47h1173c48 0 90 -16 124 -47c35 -31 55 -71 62 -119l-731 -488c-11 -10 -25 -16 -42 -16zM1308 914h-1064l529 -358zM1396 613l150 99v-441c0 -48 -18 -91 -54 -127s-79 -55 -127 -55h-1178
c-52 0 -96 19 -133 55c-36 36 -54 79 -54 127v441l150 -99v-337c0 -24 13 -36 37 -36h1173c24 0 36 12 36 36v337z" />
    <glyph glyph-name="heart" unicode="&#xf004;" horiz-adv-x="1791" 
d="M1624 1276c111 -118 166 -251 166 -400c0 -152 -55 -284 -166 -394l-726 -659l-732 659c-113 101 -166 235 -166 394c0 156 55 289 166 400c111 110 242 166 394 166c125 0 236 -38 333 -115l51 32c32 17 75 35 130 54c56 19 106 29 151 29c148 0 282 -56 399 -166z" />
    <glyph glyph-name="star" unicode="&#xf005;" horiz-adv-x="1545" 
d="M1361 1027c83 0 142 -40 171 -124c8 -23 12 -44 12 -65c0 -51 -25 -95 -74 -132l-254 -192l93 -312c6 -18 9 -36 9 -54c0 -35 -12 -69 -35 -101c-38 -49 -86 -73 -145 -73c-38 0 -73 10 -104 31l-265 187l-264 -187c-31 -21 -64 -31 -99 -31c-59 0 -107 24 -145 73
c-25 31 -37 64 -37 98c0 19 4 38 11 57l93 312l-254 192c-49 37 -74 81 -74 132c0 21 4 42 12 65c31 83 88 124 171 124h317l103 307c32 83 89 124 172 124c79 0 135 -41 166 -124l104 -307h316z" />
    <glyph glyph-name="star_empty" unicode="&#xf006;" horiz-adv-x="1538" 
d="M1252 726h239l-21 -20l-254 -192l93 -312c6 -18 9 -36 9 -54c0 -35 -12 -69 -35 -101c-38 -49 -86 -73 -145 -73c-38 0 -73 10 -104 31l-265 187l-264 -187c-31 -21 -64 -31 -99 -31c-59 0 -107 24 -145 73c-25 31 -37 64 -37 98c0 19 4 38 11 57l93 312l-254 192
c-49 37 -74 81 -74 132c0 21 4 42 12 65c31 83 88 124 171 124h317l103 307c32 83 89 124 172 124c79 0 135 -41 166 -124l104 -307h316c83 0 140 -41 171 -124c4 -7 5 -16 5 -26h-576c-13 0 -24 7 -31 21l-129 389c-4 14 -12 21 -26 21c-18 0 -28 -7 -31 -21l-130 -389
c-4 -14 -14 -21 -31 -21h-400c-14 0 -23 -7 -28 -21c-2 -4 -3 -9 -3 -13c0 -7 3 -13 10 -18l327 -244c6 -6 10 -12 10 -19c0 -4 -2 -8 -5 -12l-114 -389c-1 -6 -2 -10 -2 -15c0 -14 9 -22 28 -22c7 0 12 2 16 6l337 233l16 5c3 0 7 -1 10 -5h5l332 -233c4 -4 9 -6 16 -6
c19 0 28 8 28 22c0 5 -1 9 -2 15l-114 389c-1 3 -2 5 -2 8c0 8 4 15 12 23z" />
    <glyph glyph-name="user" unicode="&#xf007;" horiz-adv-x="1106" 
d="M924 763c121 -114 181 -251 181 -410v-145c0 -56 -20 -104 -59 -146c-40 -41 -88 -62 -143 -62h-701c-100 0 -166 50 -197 150h898c35 0 52 20 52 58v145c0 131 -52 237 -156 316c49 28 90 59 125 94zM150 353v-52h-150v52c0 45 5 92 16 140c45 163 141 282 290 358
c-59 48 -98 112 -119 192c-8 32 -11 63 -11 93c0 81 27 155 83 224c80 96 177 145 291 145c97 0 183 -35 260 -104c55 -52 90 -117 106 -195c5 -28 8 -55 8 -81c0 -48 -9 -95 -26 -139c-31 -69 -78 -125 -140 -166c-63 -42 -132 -62 -208 -62c-111 0 -205 -40 -283 -120
c-78 -79 -117 -174 -117 -285zM337 1183c-6 -23 -9 -44 -9 -65c0 -68 34 -126 103 -174c43 -27 84 -40 125 -40c48 0 94 19 139 56c56 43 83 97 83 161c0 27 -5 57 -15 88c-42 97 -113 145 -213 145c-48 0 -93 -16 -135 -49c-41 -33 -67 -73 -78 -122z" />
    <glyph glyph-name="film" unicode="&#xf008;" horiz-adv-x="1920" 
d="M384 -64v128c0 35 -29 64 -64 64h-128c-35 0 -64 -29 -64 -64v-128c0 -35 29 -64 64 -64h128c35 0 64 29 64 64zM384 320v128c0 35 -29 64 -64 64h-128c-35 0 -64 -29 -64 -64v-128c0 -35 29 -64 64 -64h128c35 0 64 29 64 64zM384 704v128c0 35 -29 64 -64 64h-128
c-35 0 -64 -29 -64 -64v-128c0 -35 29 -64 64 -64h128c35 0 64 29 64 64zM1408 -64v512c0 35 -29 64 -64 64h-768c-35 0 -64 -29 -64 -64v-512c0 -35 29 -64 64 -64h768c35 0 64 29 64 64zM384 1088v128c0 35 -29 64 -64 64h-128c-35 0 -64 -29 -64 -64v-128
c0 -35 29 -64 64 -64h128c35 0 64 29 64 64zM1792 -64v128c0 35 -29 64 -64 64h-128c-35 0 -64 -29 -64 -64v-128c0 -35 29 -64 64 -64h128c35 0 64 29 64 64zM1408 704v512c0 35 -29 64 -64 64h-768c-35 0 -64 -29 -64 -64v-512c0 -35 29 -64 64 -64h768c35 0 64 29 64 64z
M1792 320v128c0 35 -29 64 -64 64h-128c-35 0 -64 -29 -64 -64v-128c0 -35 29 -64 64 -64h128c35 0 64 29 64 64zM1792 704v128c0 35 -29 64 -64 64h-128c-35 0 -64 -29 -64 -64v-128c0 -35 29 -64 64 -64h128c35 0 64 29 64 64zM1792 1088v128c0 35 -29 64 -64 64h-128
c-35 0 -64 -29 -64 -64v-128c0 -35 29 -64 64 -64h128c35 0 64 29 64 64zM1920 1248v-1344c0 -88 -72 -160 -160 -160h-1600c-88 0 -160 72 -160 160v1344c0 88 72 160 160 160h1600c88 0 160 -72 160 -160z" />
    <glyph glyph-name="th_large" unicode="&#xf009;" horiz-adv-x="1664" 
d="M768 512v-384c0 -70 -58 -128 -128 -128h-512c-70 0 -128 58 -128 128v384c0 70 58 128 128 128h512c70 0 128 -58 128 -128zM768 1280v-384c0 -70 -58 -128 -128 -128h-512c-70 0 -128 58 -128 128v384c0 70 58 128 128 128h512c70 0 128 -58 128 -128zM1664 512v-384
c0 -70 -58 -128 -128 -128h-512c-70 0 -128 58 -128 128v384c0 70 58 128 128 128h512c70 0 128 -58 128 -128zM1664 1280v-384c0 -70 -58 -128 -128 -128h-512c-70 0 -128 58 -128 128v384c0 70 58 128 128 128h512c70 0 128 -58 128 -128z" />
    <glyph glyph-name="th" unicode="&#xf00a;" horiz-adv-x="1792" 
d="M512 288v-192c0 -53 -43 -96 -96 -96h-320c-53 0 -96 43 -96 96v192c0 53 43 96 96 96h320c53 0 96 -43 96 -96zM512 800v-192c0 -53 -43 -96 -96 -96h-320c-53 0 -96 43 -96 96v192c0 53 43 96 96 96h320c53 0 96 -43 96 -96zM1152 288v-192c0 -53 -43 -96 -96 -96h-320
c-53 0 -96 43 -96 96v192c0 53 43 96 96 96h320c53 0 96 -43 96 -96zM512 1312v-192c0 -53 -43 -96 -96 -96h-320c-53 0 -96 43 -96 96v192c0 53 43 96 96 96h320c53 0 96 -43 96 -96zM1152 800v-192c0 -53 -43 -96 -96 -96h-320c-53 0 -96 43 -96 96v192c0 53 43 96 96 96
h320c53 0 96 -43 96 -96zM1792 288v-192c0 -53 -43 -96 -96 -96h-320c-53 0 -96 43 -96 96v192c0 53 43 96 96 96h320c53 0 96 -43 96 -96zM1152 1312v-192c0 -53 -43 -96 -96 -96h-320c-53 0 -96 43 -96 96v192c0 53 43 96 96 96h320c53 0 96 -43 96 -96zM1792 800v-192
c0 -53 -43 -96 -96 -96h-320c-53 0 -96 43 -96 96v192c0 53 43 96 96 96h320c53 0 96 -43 96 -96zM1792 1312v-192c0 -53 -43 -96 -96 -96h-320c-53 0 -96 43 -96 96v192c0 53 43 96 96 96h320c53 0 96 -43 96 -96z" />
    <glyph glyph-name="th_list" unicode="&#xf00b;" horiz-adv-x="1792" 
d="M512 288v-192c0 -53 -43 -96 -96 -96h-320c-53 0 -96 43 -96 96v192c0 53 43 96 96 96h320c53 0 96 -43 96 -96zM512 800v-192c0 -53 -43 -96 -96 -96h-320c-53 0 -96 43 -96 96v192c0 53 43 96 96 96h320c53 0 96 -43 96 -96zM1792 288v-192c0 -53 -43 -96 -96 -96h-960
c-53 0 -96 43 -96 96v192c0 53 43 96 96 96h960c53 0 96 -43 96 -96zM512 1312v-192c0 -53 -43 -96 -96 -96h-320c-53 0 -96 43 -96 96v192c0 53 43 96 96 96h320c53 0 96 -43 96 -96zM1792 800v-192c0 -53 -43 -96 -96 -96h-960c-53 0 -96 43 -96 96v192c0 53 43 96 96 96
h960c53 0 96 -43 96 -96zM1792 1312v-192c0 -53 -43 -96 -96 -96h-960c-53 0 -96 43 -96 96v192c0 53 43 96 96 96h960c53 0 96 -43 96 -96z" />
    <glyph glyph-name="ok" unicode="&#xf00c;" horiz-adv-x="1178" 
d="M104 563l197 -192l768 773l109 -104l-825 -830c-11 -14 -28 -21 -52 -21c-21 0 -38 7 -52 21l-249 249z" />
    <glyph glyph-name="remove" unicode="&#xf00d;" horiz-adv-x="758" 
d="M109 258l-109 104l275 275l-275 275l109 104l270 -270l275 270l104 -104l-270 -275l270 -270l-104 -109l-275 275z" />
    <glyph glyph-name="zoom_in" unicode="&#xf00e;" horiz-adv-x="1376" 
d="M649 371h-154l4 235h-239l4 151h231v239l151 -4v-231l235 -4l4 -151h-239zM1131 227l244 -238l-104 -109l-244 244c14 10 33 27 58 51c20 21 36 39 46 52zM976 1089c110.494 -111.439 166.584 -238.039 166.584 -379.802
c0 -8.34678 -0.194444 -16.7461 -0.583677 -25.198c0 -159 -56 -294 -166 -405c-111 -110 -246 -166 -405 -166s-294 56 -405 166c-111 111 -166 246 -166 405s55 294 166 405c111 110 246 166 405 166c166 0 301 -56 405 -166zM872 383c83 90 124 190 124 301
s-41 211 -124 301c-80 80 -180 119 -301 119c-114 0 -215 -39 -301 -119c-80 -87 -120 -187 -120 -301c0 -121 40 -221 120 -301c90 -83 190 -125 301 -125c117 0 218 42 301 125z" />
    <glyph glyph-name="zoom_out" unicode="&#xf010;" horiz-adv-x="1376" 
d="M885 606h-625l4 151h617zM1131 227l244 -238l-104 -109l-244 244c14 10 33 27 58 51c20 21 36 39 46 52zM976 1089c110.494 -111.439 166.584 -238.039 166.584 -379.802c0 -8.34678 -0.194444 -16.7461 -0.583677 -25.198c0 -159 -56 -294 -166 -405
c-111 -110 -246 -166 -405 -166s-294 56 -405 166c-111 111 -166 246 -166 405s55 294 166 405c111 110 246 166 405 166c166 0 301 -56 405 -166zM872 383c83 90 124 190 124 301s-41 211 -124 301c-80 80 -180 119 -301 119c-114 0 -215 -39 -301 -119
c-80 -87 -120 -187 -120 -301c0 -121 40 -221 120 -301c90 -83 190 -125 301 -125c117 0 218 42 301 125z" />
    <glyph glyph-name="off" unicode="&#xf011;" 
d="M1536 640c0 -423 -345 -768 -768 -768s-768 345 -768 768c0 243 112 467 307 613c23.4064 17.6575 50.6912 26.2092 77.6305 26.2092c38.664 0 76.6164 -17.6156 101.37 -51.2092c17.5232 -22.8209 25.9126 -49.7935 25.9126 -76.5866
c0 -38.9543 -17.7335 -77.529 -50.9126 -102.413c-130 -98 -205 -247 -205 -409c0 -282 230 -512 512 -512s512 230 512 512c0 162 -75 311 -205 409c-33.1791 24.8843 -50.9126 63.4591 -50.9126 102.413c0 26.7931 8.38938 53.7657 25.9126 76.5866
c24.7532 33.5936 63.0529 51.2092 101.797 51.2092c26.9954 0 54.2068 -8.55176 77.2025 -26.2092c195 -146 307 -370 307 -613zM896 1408v-640c0 -70 -58 -128 -128 -128s-128 58 -128 128v640c0 70 58 128 128 128s128 -58 128 -128z" />
    <glyph glyph-name="signal" unicode="&#xf012;" horiz-adv-x="1792" 
d="M256 96v-192c0 -18 -14 -32 -32 -32h-192c-18 0 -32 14 -32 32v192c0 18 14 32 32 32h192c18 0 32 -14 32 -32zM640 224v-320c0 -18 -14 -32 -32 -32h-192c-18 0 -32 14 -32 32v320c0 18 14 32 32 32h192c18 0 32 -14 32 -32zM1024 480v-576c0 -18 -14 -32 -32 -32h-192
c-18 0 -32 14 -32 32v576c0 18 14 32 32 32h192c18 0 32 -14 32 -32zM1408 864v-960c0 -18 -14 -32 -32 -32h-192c-18 0 -32 14 -32 32v960c0 18 14 32 32 32h192c18 0 32 -14 32 -32zM1792 1376v-1472c0 -18 -14 -32 -32 -32h-192c-18 0 -32 14 -32 32v1472
c0 18 14 32 32 32h192c18 0 32 -14 32 -32z" />
    <glyph glyph-name="cog" unicode="&#xf013;" 
d="M1024 640c0 141 -115 256 -256 256s-256 -115 -256 -256s115 -256 256 -256s256 115 256 256zM1536 749v-222c0 -15 -12 -33 -28 -36l-185 -28c-11 -32 -23 -62 -39 -91c34 -49 70 -93 107 -138c6 -7 10 -16 10 -25s-3 -16 -9 -23c-24 -32 -159 -179 -193 -179
c-9 0 -18 4 -26 9l-138 108c-29 -15 -60 -28 -91 -38c-7 -61 -13 -126 -29 -186c-4 -16 -18 -28 -36 -28h-222c-18 0 -34 13 -36 30l-28 184c-31 10 -61 22 -90 37l-141 -107c-7 -6 -16 -9 -25 -9s-18 4 -25 11c-53 48 -123 110 -165 168c-5 7 -7 15 -7 23c0 9 3 16 8 23
c34 46 71 90 105 137c-17 32 -31 65 -41 99l-183 27c-17 3 -29 19 -29 36v222c0 15 12 33 27 36l186 28c10 32 23 62 39 92c-34 48 -70 93 -107 138c-6 7 -10 15 -10 24s4 16 9 23c24 33 159 179 193 179c9 0 18 -4 26 -10l138 -107c29 15 60 28 91 38c7 61 13 126 29 186
c4 16 18 28 36 28h222c18 0 34 -13 36 -30l28 -184c31 -10 61 -22 90 -37l142 107c6 6 15 9 24 9s18 -4 25 -10c53 -49 123 -111 165 -170c5 -6 7 -14 7 -22c0 -9 -3 -16 -8 -23c-34 -46 -71 -90 -105 -137c17 -32 31 -65 41 -98l183 -28c17 -3 29 -19 29 -36z" />
    <glyph glyph-name="trash" unicode="&#xf014;" horiz-adv-x="1408" 
d="M512 800v-576c0 -18 -14 -32 -32 -32h-64c-18 0 -32 14 -32 32v576c0 18 14 32 32 32h64c18 0 32 -14 32 -32zM768 800v-576c0 -18 -14 -32 -32 -32h-64c-18 0 -32 14 -32 32v576c0 18 14 32 32 32h64c18 0 32 -14 32 -32zM1024 800v-576c0 -18 -14 -32 -32 -32h-64
c-18 0 -32 14 -32 32v576c0 18 14 32 32 32h64c18 0 32 -14 32 -32zM1152 76v948h-896v-948c0 -48 27 -76 32 -76h832c5 0 32 28 32 76zM480 1152h448l-48 117c-3 4 -12 10 -17 11h-317c-6 -1 -14 -7 -17 -11zM1408 1120v-64c0 -18 -14 -32 -32 -32h-96v-948
c0 -110 -72 -204 -160 -204h-832c-88 0 -160 90 -160 200v952h-96c-18 0 -32 14 -32 32v64c0 18 14 32 32 32h309l70 167c20 49 80 89 133 89h320c53 0 113 -40 133 -89l70 -167h309c18 0 32 -14 32 -32z" />
    <glyph glyph-name="home" unicode="&#xf015;" horiz-adv-x="1905" 
d="M1323 301h-150v150h150v-150zM1904 732l-93 -114l-830 684c-7 7 -18 11 -31 11c-14 0 -23 -4 -26 -11l-504 -415v-700c0 -24 12 -37 37 -37h420v301h145v-301h415c21 0 32 13 32 37v514l150 -125v-389c0 -52 -18 -96 -54 -133c-37 -36 -79 -54 -128 -54h-980
c-52 0 -96 18 -133 54c-36 37 -54 81 -54 133v581l-177 -150l-93 114l825 685c35 27 76 41 125 41c48 0 90 -14 124 -41l280 -234v270h151v-389zM726 301h-150v150h150v-150zM877 721v146h150v-146h-150z" />
    <glyph glyph-name="file_alt" unicode="&#xf016;" horiz-adv-x="1147" 
d="M965 1336c49 0 91 -18 127 -54c37 -36 55 -80 55 -132v-1038c0 -104 -50 -165 -151 -182v1220c0 24 -10 36 -31 36h-431v-176c0 -49 -18 -91 -54 -128c-36 -36 -79 -54 -127 -54h-208v-716c0 -24 12 -37 37 -37h664v-150h-664c-49 0 -91 18 -128 54
c-36 37 -54 81 -54 133v872c0 20 7 38 21 51l280 281c14 14 31 20 52 20h612zM384 1010v176l-208 -208h172c24 0 36 11 36 32z" />
    <glyph glyph-name="time" unicode="&#xf017;" 
d="M716 815v281h151v-400c0 -38 -13 -70 -39 -96s-58 -39 -96 -39h-327v151h311v103zM768 1407c214 0 396 -74 545 -223s223 -331 223 -545s-74 -396 -223 -545s-331 -223 -545 -223c-211 0 -392 75 -542 226c-151 150 -226 331 -226 542s75 392 226 542
c150 151 331 226 542 226zM768 1257c-173 0 -319 -60 -438 -180c-120 -119 -180 -265 -180 -438c0 -170 61 -315 182 -436s266 -182 436 -182s315 61 436 182s182 266 182 436s-61 315 -182 436s-266 182 -436 182z" />
    <glyph glyph-name="road" unicode="&#xf018;" horiz-adv-x="1920" 
d="M1111 540v4l-24 320c-1 18 -17 32 -34 32h-186c-17 0 -33 -14 -34 -32l-24 -320v-4c-1 -16 14 -28 29 -28h244c15 0 30 12 29 28zM1870 73c0 -29 -8 -73 -46 -73h-704c17 0 31 14 30 32l-20 256c-1 18 -17 32 -34 32h-272c-17 0 -33 -14 -34 -32l-20 -256
c-1 -18 13 -32 30 -32h-704c-38 0 -46 44 -46 73c0 40 11 80 26 116l417 1044c10 25 37 47 64 47h339c-17 0 -33 -14 -34 -32l-15 -192c-1 -18 12 -32 30 -32h166c18 0 31 14 30 32l-15 192c-1 18 -17 32 -34 32h339c27 0 54 -22 64 -47l417 -1044c15 -36 26 -76 26 -116z
" />
    <glyph glyph-name="download_alt" unicode="&#xf019;" horiz-adv-x="1479" 
d="M1069 695l-234 -233c-24 -24 -55 -37 -93 -37c-41 0 -74 13 -99 37l-233 233l109 104l145 -145v752h151v-752l145 150zM145 322c0 -21 12 -32 37 -32h482v-150h-482c-49 0 -91 18 -128 54c-36 37 -54 79 -54 128v472h145v-472zM1328 794h151v-472c0 -49 -18 -91 -55 -128
c-36 -36 -78 -54 -127 -54h-482v150h482c21 0 31 11 31 32v472z" />
    <glyph glyph-name="download" unicode="&#xf01a;" 
d="M0 642c0 169.514 51.0273 321.73 153.082 456.649c102.054 134.919 232.648 228.325 391.784 280.217v-160.865c-117.622 -44.9727 -212.757 -119.352 -285.406 -223.136c-72.6484 -103.784 -108.973 -221.405 -108.973 -352.865
c0 -169.514 60.541 -314.812 181.622 -435.893c121.081 -121.081 266.379 -181.622 435.893 -181.622s314.812 60.541 435.893 181.622c121.081 121.081 181.622 266.379 181.622 435.893c0 155.676 -51.8916 292.325 -155.676 409.947
c-103.784 117.622 -231.784 185.081 -384.001 202.378v-633.082l145.298 145.298l108.973 -108.974l-238.703 -228.324c-27.6758 -24.2168 -58.8105 -36.3252 -93.4053 -36.3252s-65.7295 12.1084 -93.4053 36.3252l-233.515 228.324l108.974 108.974l145.298 -145.298
v783.569c13.8379 3.45996 38.0537 5.18945 72.6484 5.18945c214.487 0 396.109 -74.3789 544.866 -223.136s223.136 -330.379 223.136 -544.866c0 -211.027 -75.2432 -391.784 -225.73 -542.271c-150.487 -150.487 -331.244 -225.73 -542.271 -225.73
s-391.784 75.2432 -542.271 225.73c-150.487 150.487 -225.73 331.244 -225.73 542.271z" />
    <glyph glyph-name="upload" unicode="&#xf01b;" 
d="M1536 642c0 -169.514 -51.0273 -321.73 -153.082 -456.649c-102.054 -134.919 -232.648 -228.325 -391.784 -280.217v160.865c117.622 44.9727 212.757 119.352 285.406 223.136c72.6484 103.784 108.973 221.405 108.973 352.865
c0 169.514 -60.541 314.812 -181.622 435.893c-121.081 121.081 -266.379 181.622 -435.893 181.622s-314.812 -60.541 -435.893 -181.622c-121.081 -121.081 -181.622 -266.379 -181.622 -435.893c0 -155.676 51.8916 -292.325 155.676 -409.947
c103.784 -117.622 231.784 -185.081 384.001 -202.378v633.082l-145.298 -145.298l-108.973 108.974l238.703 228.324c27.6758 24.2168 58.8105 36.3252 93.4053 36.3252s65.7295 -12.1084 93.4053 -36.3252l233.515 -228.324l-108.974 -108.974l-145.298 145.298v-783.569
c-13.8379 -3.45996 -38.0537 -5.18945 -72.6484 -5.18945c-214.487 0 -396.109 74.3789 -544.866 223.136c-148.757 148.757 -223.136 330.379 -223.136 544.866c0 211.027 75.2432 391.784 225.73 542.271c150.487 150.487 331.244 225.73 542.271 225.73
s391.784 -75.2432 542.271 -225.73c150.487 -150.487 225.73 -331.244 225.73 -542.271z" />
    <glyph glyph-name="inbox" unicode="&#xf01c;" 
d="M1023 576h316c-2 5 -3 11 -5 16l-212 496h-708l-212 -496c-2 -5 -3 -11 -5 -16h316l95 -192h320zM1536 546v-482c0 -35 -29 -64 -64 -64h-1408c-35 0 -64 29 -64 64v482c0 36 11 89 25 123l238 552c14 33 54 59 89 59h832c35 0 75 -26 89 -59l238 -552
c14 -34 25 -87 25 -123z" />
    <glyph glyph-name="play_circle" unicode="&#xf01d;" 
d="M1184 640c0 -23 -12 -44 -32 -55l-544 -320c-10 -6 -21 -9 -32 -9s-22 3 -32 8c-20 12 -32 33 -32 56v640c0 23 12 44 32 56c9.78251 5.38038 20.7612 8.12908 31.649 8.12908c11.3719 0 22.6444 -2.99858 32.351 -9.12908l544 -320c20 -11 32 -32 32 -55zM1312 640
c0 300 -244 544 -544 544s-544 -244 -544 -544s244 -544 544 -544s544 244 544 544zM1536 640c0 -424 -344 -768 -768 -768s-768 344 -768 768s344 768 768 768s768 -344 768 -768z" />
    <glyph glyph-name="repeat" unicode="&#xf01e;" horiz-adv-x="1616" 
d="M228.325 1181.68c152.217 152.217 332.108 228.325 539.677 228.325c211.027 0 392.649 -76.1084 544.866 -228.325l57.0811 -57.0811l93.4053 -93.4053v207.567h150.487v-326.919c0 -34.5947 -12.9736 -65.7305 -38.9189 -93.4062
c-25.9463 -27.6758 -57.9463 -41.5137 -96.001 -41.5137h-326.919v150.487h207.567l-93.4053 93.4053l-62.2705 62.2705l-25.9463 20.7568c-121.081 103.784 -257.729 155.676 -409.946 155.676c-162.595 0 -307.893 -60.54 -435.893 -181.622
c-117.622 -124.541 -176.433 -269.838 -176.433 -435.893s58.8105 -311.352 176.433 -435.893c121.081 -121.082 266.379 -181.622 435.893 -181.622c131.46 0 249.082 38.0537 352.865 114.162c100.325 69.1895 174.703 162.595 223.136 280.217h160.865
c-55.3516 -162.595 -147.027 -292.325 -275.027 -389.189c-134.919 -103.784 -288.865 -155.677 -461.839 -155.677c-204.108 0 -384.001 74.3789 -539.677 223.136c-152.217 152.217 -228.325 333.839 -228.325 544.866c0 207.568 76.1084 387.46 228.325 539.677z" />
    <glyph glyph-name="refresh" unicode="&#xf021;" horiz-adv-x="1694" 
d="M1281 1083l-26 21c-121 103 -258 155 -409 155c-132 0 -250 -38 -353 -114c-101 -69 -175 -162 -223 -280l-162 1c55 162 147 292 275 389c135 104 289 156 463 156c210 0 392 -76 545 -229l149 -149v207h152v-328c0 -35 -13 -66 -39 -94c-26 -27 -59 -41 -97 -41h-327
v151h206l-92 93zM436 181c121 -104 257 -156 409 -156c132 0 249 38 353 114c100 69 173 163 222 281l163 -1c-56 -163 -148 -293 -275 -390c-136 -103 -290 -155 -462 -155c-212 0 -394 76 -546 228l-150 150v-207h-151v327c0 35 13 66 39 94s58 42 96 42h328v-152h-207
l93 -92z" />
    <glyph glyph-name="list_alt" unicode="&#xf022;" horiz-adv-x="1640" 
d="M1494 1048h146v-861c0 -52 -18 -96 -55 -133c-36 -36 -78 -54 -127 -54h-1271c-52 0 -96 19 -133 57c-36 38 -54 81 -54 130v986c0 48 18 91 54 127c37 36 81 54 133 54h1271c45 0 84 -13 117 -41s53 -64 60 -109h-1448c-24 0 -37 -10 -37 -31v-986c0 -24 13 -37 37 -37
h1271c24 0 36 13 36 37v861zM602 747h742v-145h-742v145zM602 451h742v-150h-742v150zM602 1048h742v-150h-742v150zM301 747h150v-145h-150v145zM301 451h150v-150h-150v150zM301 1048h150v-150h-150v150z" />
    <glyph glyph-name="lock" unicode="&#xf023;" horiz-adv-x="1038" 
d="M150 659v-358h-150v358c0 45 15 85 44 119c30 35 65 56 106 63v218c0 103 37 192 109 264c73 73 161 109 265 109c100 0 187 -36 260 -109c72 -72 109 -161 109 -264v-218c79 -18 128 -68 145 -151h-856c-21 0 -32 -10 -32 -31zM301 1059v-218h441v218
c0 62 -22 115 -65 158s-96 65 -158 65c-59 0 -110 -22 -153 -65s-65 -96 -65 -158zM893 545h145v-358c0 -52 -18 -96 -55 -133c-36 -36 -78 -54 -127 -54h-674c-45 0 -85 15 -120 44c-34 30 -55 65 -62 106h856c24 0 37 13 37 37v358z" />
    <glyph glyph-name="flag" unicode="&#xf024;" horiz-adv-x="1792" 
d="M320 1280c0 -46 -25 -87 -64 -110v-1266c0 -17 -15 -32 -32 -32h-64c-17 0 -32 15 -32 32v1266c-39 23 -64 64 -64 110c0 71 57 128 128 128s128 -57 128 -128zM1792 1216v-763c0 -37 -23 -51 -52 -66c-113 -61 -238 -116 -369 -116c-184 0 -272 140 -490 140
c-159 0 -326 -72 -464 -146c-11 -6 -21 -9 -33 -9c-35 0 -64 29 -64 64v742c0 24 12 41 31 55c24 16 53 30 79 43c126 64 279 120 421 120c157 0 280 -52 419 -117c28 -14 57 -19 88 -19c157 0 326 136 370 136c35 0 64 -29 64 -64z" />
    <glyph glyph-name="headphones" unicode="&#xf025;" horiz-adv-x="1765" 
d="M944 36c163 0 288 71 374 212h171c-48 -107 -121 -194 -218 -262c-97 -67 -205 -101 -327 -101v151zM1489 954c76 0 142 -27 197 -83c52.2667 -51.3333 78.4 -112.249 78.4 -181.934c0 -4.97748 -0.133333 -9.9997 -0.4 -15.0664c0 -76 -27 -141 -83 -195
c-55 -53 -121 -80 -197 -80h-166v550c0 118 -43 220 -130 306c-86 87 -188 130 -306 130c-121 0 -224 -42 -309 -127c-84 -85 -127 -188 -127 -309v-477c0 -49 -26 -73 -78 -73h-88c-76 0 -142 27 -197 80c-55 54 -83 119 -83 195c0 80 25 146 75 200c50 53 114 80 190 80
h31c0 159 57 296 171 410s253 171 415 171c159 0 296 -56 410 -168c114 -113 173 -250 177 -413h20zM296 549v255h-31c-35 0 -63 -13 -83 -39c-21 -26 -32 -56 -32 -91s13 -64 39 -88s57 -37 91 -37h16zM1489 549c35 0 65 13 91 37s39 53 39 88s-13 65 -39 91s-56 39 -91 39
h-20v-255h20z" />
    <glyph glyph-name="volume_off" unicode="&#xf026;" horiz-adv-x="768" 
d="M768 1184v-1088c0 -35 -29 -64 -64 -64c-17 0 -33 7 -45 19l-333 333h-262c-35 0 -64 29 -64 64v384c0 35 29 64 64 64h262l333 333c12 12 28 19 45 19c35 0 64 -29 64 -64z" />
    <glyph glyph-name="volume_down" unicode="&#xf027;" horiz-adv-x="1152" 
d="M768 1184v-1088c0 -35 -29 -64 -64 -64c-17 0 -33 7 -45 19l-333 333h-262c-35 0 -64 29 -64 64v384c0 35 29 64 64 64h262l333 333c12 12 28 19 45 19c35 0 64 -29 64 -64zM1152 640c0 -100 -61 -197 -155 -235c-8 -4 -17 -5 -25 -5c-35 0 -64 28 -64 64
c0 76 116 55 116 176s-116 100 -116 176c0 36 29 64 64 64c8 0 17 -1 25 -5c94 -37 155 -135 155 -235z" />
    <glyph glyph-name="volume_up" unicode="&#xf028;" horiz-adv-x="1664" 
d="M768 1184v-1088c0 -35 -29 -64 -64 -64c-17 0 -33 7 -45 19l-333 333h-262c-35 0 -64 29 -64 64v384c0 35 29 64 64 64h262l333 333c12 12 28 19 45 19c35 0 64 -29 64 -64zM1152 640c0 -100 -61 -197 -155 -235c-8 -4 -17 -5 -25 -5c-35 0 -64 28 -64 64
c0 76 116 55 116 176s-116 100 -116 176c0 36 29 64 64 64c8 0 17 -1 25 -5c94 -37 155 -135 155 -235zM1408 640c0 -203 -122 -392 -310 -471c-8 -3 -17 -5 -25 -5c-36 0 -65 29 -65 64c0 28 16 47 39 59c27 14 52 26 76 44c99 72 157 187 157 309s-58 237 -157 309
c-24 18 -49 30 -76 44c-23 12 -39 31 -39 59c0 35 29 64 64 64c9 0 18 -2 26 -5c188 -79 310 -268 310 -471zM1664 640c0 -307 -183 -585 -465 -706c-8 -3 -17 -5 -26 -5c-35 0 -64 29 -64 64c0 29 15 45 39 59c14 8 30 13 45 21c28 15 56 32 82 51c164 121 261 312 261 516
s-97 395 -261 516c-26 19 -54 36 -82 51c-15 8 -31 13 -45 21c-24 14 -39 30 -39 59c0 35 29 64 64 64c9 0 18 -2 26 -5c282 -121 465 -399 465 -706z" />
    <glyph glyph-name="qrcode" unicode="&#xf029;" horiz-adv-x="1408" 
d="M384 384v-128h-128v128h128zM384 1152v-128h-128v128h128zM1152 1152v-128h-128v128h128zM128 129h384v383h-384v-383zM128 896h384v384h-384v-384zM896 896h384v384h-384v-384zM640 640v-640h-640v640h640zM1152 128v-128h-128v128h128zM1408 128v-128h-128v128h128z
M1408 640v-384h-384v128h-128v-384h-128v640h384v-128h128v128h128zM640 1408v-640h-640v640h640zM1408 1408v-640h-640v640h640z" />
    <glyph glyph-name="barcode" unicode="&#xf02a;" horiz-adv-x="1792" 
d="M63 0h-63v1408h63v-1408zM126 1h-32v1407h32v-1407zM220 1h-31v1407h31v-1407zM377 1h-31v1407h31v-1407zM534 1h-62v1407h62v-1407zM660 1h-31v1407h31v-1407zM723 1h-31v1407h31v-1407zM786 1h-31v1407h31v-1407zM943 1h-63v1407h63v-1407zM1100 1h-63v1407h63v-1407z
M1226 1h-63v1407h63v-1407zM1352 1h-63v1407h63v-1407zM1446 1h-63v1407h63v-1407zM1635 1h-94v1407h94v-1407zM1698 1h-32v1407h32v-1407zM1792 0h-63v1408h63v-1408z" />
    <glyph glyph-name="tag" unicode="&#xf02b;" horiz-adv-x="1558" 
d="M690 1270c-7 7 -14 10 -21 10h-493c-6 0 -13 -3 -20 -10s-11 -14 -11 -21v-493c0 -7 4 -14 11 -21l700 -700c14 -21 28 -21 42 0l410 410l103 -109l-409 -410c-35 -35 -77 -52 -125 -52s-90 17 -125 52l-700 700c-35 35 -52 78 -52 130v493c0 52 17 95 52 130
c34 34 76 52 124 52h499c41 0 83 -18 124 -52l701 -706c38.2244 -38.2244 57.4216 -78.597 57.4216 -121.118c0 -34.2348 -12.4443 -69.8622 -37.4216 -106.882zM296 1130h150v-151h-150v151z" />
    <glyph glyph-name="tags" unicode="&#xf02c;" horiz-adv-x="1858" 
d="M1072 -91l485 485c84.7205 84.7205 125.554 122.916 125.554 159.215c0 37.8237 -44.3362 73.588 -129.554 157.785l-724 720h146c40 0 83 -18 124 -52l701 -706c38.2244 -38.2244 57.4216 -78.597 57.4216 -121.118c0 -34.2348 -12.4443 -69.8622 -37.4216 -106.882
l-518 -519c-35 -35 -77 -52 -125 -52c-40 0 -75 12 -105 35zM690 1270c-7 7 -14 10 -21 10h-493c-6 0 -13 -3 -20 -10s-11 -14 -11 -21v-493c0 -7 4 -14 11 -21l700 -700c14 -21 28 -21 42 0l410 410l103 -109l-409 -410c-35 -35 -77 -52 -125 -52s-90 17 -125 52l-700 700
c-35 35 -52 78 -52 130v493c0 52 17 95 52 130c34 34 76 52 124 52h499c41 0 83 -18 124 -52l701 -706c38.2244 -38.2244 57.4216 -78.597 57.4216 -121.118c0 -34.2348 -12.4443 -69.8622 -37.4216 -106.882zM296 1130h150v-151h-150v151z" />
    <glyph glyph-name="book" unicode="&#xf02d;" horiz-adv-x="1664" 
d="M1639 1058c16.4582 -23.6998 25.1153 -52.167 25.1153 -81.9777c0 -15.4717 -2.33187 -31.3054 -7.11528 -47.0223l-275 -906c-25 -85 -113 -151 -199 -151h-923c-102 0 -211 81 -248 185c-8.26696 23.2508 -12.2625 46.2347 -12.2625 68.2619
c0 20.6046 3.4961 40.3721 10.2625 58.7381c2 20 6 40 7 64c1 16 -8 29 -6 41c4 24 25 41 41 68c30 50 64 131 75 183c1.05662 4.01517 1.44338 8.16432 1.44338 12.3719c0 11.4954 -2.88675 23.4273 -2.88675 34.2561c0 3.96361 0.386751 7.77942 1.44338 11.3719
c5 19 24 33 34 51c27 46 62 135 67 182c0.187083 1.96438 0.269166 3.94625 0.269166 5.93826c0 14.2692 -4.2118 29.0584 -4.2118 41.6599c0 4.44586 0.524242 8.61944 1.94264 12.4018c7 23 29 33 44 53c24 33 64 128 70 181c2 17 -8 34 -5 52c4 19 28 39 44 62
c37.244 54.9793 47.7522 168.935 138.212 168.935c11.5515 0 24.4067 -1.85822 38.7878 -5.93475l-1 -3c17 4 34 9 51 9h761c47 0 89 -21 114 -56c16.9 -23.4 25.35 -51.4475 25.35 -81.1216c0 -15.9784 -2.45 -32.4284 -7.35 -48.8784l-274 -906
c-47 -154 -73 -188 -200 -188h-869c-13 0 -29 -3 -38 -15c-8 -12 -9 -21 -1 -43c20 -58 89 -70 144 -70h923c37 0 80 21 91 57l300 987c4.26061 13.4919 5.49576 27.4881 5.49576 40.9144c0 5.48124 -0.205857 10.8675 -0.495755 16.0856c23 -9 44 -23 59 -43zM575 1056
c-6 -18 4 -32 22 -32h608c17 0 36 14 42 32l21 64c6 18 -4 32 -22 32h-608c-17 0 -36 -14 -42 -32zM492 800c-6 -18 4 -32 22 -32h608c17 0 36 14 42 32l21 64c6 18 -4 32 -22 32h-608c-17 0 -36 -14 -42 -32z" />
    <glyph glyph-name="bookmark" unicode="&#xf02e;" horiz-adv-x="1280" 
d="M1164 1408c15 0 30 -3 44 -9c44 -17 72 -58 72 -103v-1289c0 -45 -28 -86 -72 -103c-14 -6 -29 -8 -44 -8c-31 0 -60 11 -83 32l-441 424l-441 -424c-23 -21 -52 -33 -83 -33c-15 0 -30 3 -44 9c-44 17 -72 58 -72 103v1289c0 45 28 86 72 103c14 6 29 9 44 9h1048z" />
    <glyph glyph-name="print" unicode="&#xf02f;" horiz-adv-x="1365" 
d="M1194 488c44 -4 83 -23 116 -58c33 -34 51 -76 55 -124v-239c0 -45 -15 -84 -44 -117c-30 -32 -65 -52 -107 -59v415c0 21 -12 31 -36 31h-991c-24 0 -37 -10 -37 -31v-239c0 -21 13 -31 37 -31h877v-150h-877c-52 0 -96 18 -133 54c-36 36 -54 79 -54 127v239
c0 48 18 91 54 127c37 36 81 55 133 55h856v716c0 24 -12 36 -36 36h-654c-24 0 -36 -12 -36 -36v-566h-151v566c0 52 19 96 57 132s81 54 130 54h654c52 0 96 -18 132 -54s55 -80 55 -132v-716zM467 638v151h426v-151h-426zM893 1089v-150h-426v150h426z" />
    <glyph glyph-name="camera" unicode="&#xf030;" horiz-adv-x="1920" 
d="M960 864c159 0 288 -129 288 -288s-129 -288 -288 -288s-288 129 -288 288s129 288 288 288zM1664 1280c141 0 256 -115 256 -256v-896c0 -141 -115 -256 -256 -256h-1408c-141 0 -256 115 -256 256v896c0 141 115 256 256 256h224l51 136c25 66 103 120 173 120h512
c70 0 148 -54 173 -120l51 -136h224zM960 128c247 0 448 201 448 448s-201 448 -448 448s-448 -201 -448 -448s201 -448 448 -448z" />
    <glyph glyph-name="font" unicode="&#xf031;" horiz-adv-x="1664" 
d="M725 977l-170 -450c99 -1 198 -4 297 -4c19 0 38 1 57 2c-52 152 -113 307 -184 452zM0 -128l2 79c94 29 196 9 238 117l237 616l280 724h75h53c4 -7 8 -14 11 -21l205 -480c75 -177 144 -356 220 -532c45 -104 80 -211 130 -313c7 -16 21 -46 35 -57
c33 -26 125 -32 172 -50c3 -19 6 -38 6 -57c0 -9 -1 -17 -1 -26c-127 0 -254 16 -381 16c-131 0 -262 -11 -393 -15c0 26 1 52 4 78l131 28c27 6 80 13 80 50c0 36 -129 333 -145 374l-450 2c-26 -58 -127 -320 -127 -358c0 -77 147 -80 204 -88c1 -19 1 -38 1 -58
c0 -9 -1 -18 -2 -27c-116 0 -233 20 -349 20c-14 0 -34 -6 -48 -8c-63 -11 -125 -14 -188 -14z" />
    <glyph glyph-name="bold" unicode="&#xf032;" horiz-adv-x="1408" 
d="M555 15c44 -19 92 -32 140 -32c228 0 376 91 376 335c0 62 -8 127 -41 180c-93 150 -227 158 -388 158c-30 0 -73 0 -101 -10c0 -106 -1 -212 -1 -317c0 -29.5714 -1.65306 -80.8163 -1.65306 -134.292c0 -71.3003 2.93878 -146.566 16.6531 -179.708zM541 761
c36 -6 73 -7 109 -7c206 0 353 58 353 289c0 195 -173 262 -340 262c-44 0 -87 -6 -130 -13c0 -101 8 -202 8 -303c0 -53 -1 -106 -1 -159c0 -23 0 -46 1 -69zM0 -128l2 94c64 16 129 17 191 43c27.2222 45.8889 30.2469 119 30.2469 180.752
c0 17.6433 -0.246914 34.3594 -0.246914 49.2483c0 3.14286 0.0408163 25.3469 0.0408163 61.2391c0 215.353 -1.46939 923.475 -22.0408 963.761c-15 29 -162 36 -195 40l-4 83c238 4 476 21 713 21c45 0 91 -1 136 -1c226 0 475 -108 475 -368c0 -179 -136 -246 -277 -310
c190 -43 359 -172 359 -382c0 -344 -313 -458 -606 -458c-88 0 -176 6 -264 6c-179 0 -360 -16 -538 -23z" />
    <glyph glyph-name="italic" unicode="&#xf033;" horiz-adv-x="1024" 
d="M0 -126l17 85c64 20 133 28 193 59c23 29 34 66 41 101c12.9112 67.5354 228.031 1035.64 228.031 1127.23c0 0.630126 -0.0101805 1.21877 -0.0306775 1.76536v25c-55 30 -122 22 -182 32l19 103c129 -6 260 -16 390 -16c106 0 212 10 318 16c-4 -30 -11 -60 -19 -89
c-69 -24 -142 -35 -210 -62c-22 -54 -27 -113 -37 -170c-48 -259 -112 -518 -165 -775c-9.6094 -46.1251 -55.2316 -231.684 -55.2316 -283.378c0 -2.10123 0.0753788 -3.98129 0.231619 -5.62181l1 -18c61 -14 123 -21 185 -31c-2 -33 -8 -66 -16 -99c-22 0 -43 -3 -65 -3
c-57 0 -116 19 -173 20c-69 1 -138 2 -206 2c-89 0 -176 -15 -264 -20z" />
    <glyph glyph-name="text_height" unicode="&#xf034;" horiz-adv-x="1792" 
d="M1744 128c28.8086 0 44.7566 -12.0032 44.7566 -30.1154c0 -9.55093 -4.43464 -20.8006 -13.7566 -32.8846l-126 -162c-13.5 -17.5 -31.25 -26.25 -49 -26.25s-35.5 8.75 -49 26.25l-126 162c-9.32199 12.0841 -13.7566 23.3337 -13.7566 32.8846
c0 18.1122 15.948 30.1154 44.7566 30.1154h80v1024h-80c-28.8086 0 -44.7566 12.0032 -44.7566 30.1154c0 9.55093 4.43464 20.8006 13.7566 32.8846l126 162c13.5 17.5 31.25 26.25 49 26.25s35.5 -8.75 49 -26.25l126 -162
c9.32199 -12.0841 13.7566 -23.3337 13.7566 -32.8846c0 -18.1122 -15.948 -30.1154 -44.7566 -30.1154h-80v-1024h80zM81 1407l54 -27c7 -3 190 -5 211 -5c88 0 176 4 264 4c72 0 143 -1 215 -1h293c12.8571 0 23.9579 -0.929847 33.9997 -0.929847
c21.1993 0 37.6789 4.14413 56.0003 29.9298l42 1c9 0 19 -1 28 -1c2 -112 2 -224 2 -336c0 -8.75 0.0625 -17.75 0.0625 -26.875c0 -27.375 -0.5625 -55.875 -5.0625 -82.125c-22 -8 -45 -15 -68 -18c-23 40 -39 84 -54 128c-7 20 -31 155 -33 157
c-15.1667 18.7778 -31.3765 21.3858 -50.8899 21.3858c-7.50514 0 -15.499 -0.385802 -24.1101 -0.385802c-38.3158 0 -77.3407 0.709141 -116.403 0.709141c-53.7106 0 -107.492 -1.34072 -159.597 -7.70914c-4.47822 -39.4083 -8.15426 -81.2232 -8.15426 -121.852
c0 -4.7339 0.0499051 -9.45171 0.154261 -14.1477c1 -281 4 -562 4 -843c0 -40.1739 -3.26654 -81.4367 -3.26654 -122.226c0 -37.3902 2.7448 -74.3827 13.2665 -109.774c76 -39 166 -45 244 -80c2 -16 5 -33 5 -50c0 -9 -1 -19 -3 -29l-34 -1
c-11.8333 -0.333333 -23.6528 -0.486111 -35.4612 -0.486111c-129.893 0 -258.455 18.4861 -389.539 18.4861c-101 0 -202 -18 -303 -18c-1 17 -3 35 -3 52v9c38 61 175 62 238 99c17.2857 38.5 19.1378 214.051 19.1378 318.078
c0 28.371 -0.137755 51.422 -0.137755 64.922c0 202 -6 404 -6 606v117c0 7.2 0.64 23.04 0.64 40.352c0 25.968 -1.44 55.248 -8.64 63.648c-10 10.7143 -79.6939 12.2449 -124.898 12.2449c-18.0816 0 -32.2449 -0.244898 -37.102 -0.244898c-37 0 -144 -17 -173 -38
c-48 -33 -48 -233 -108 -237c-18 11 -43 27 -56 44v383z" />
    <glyph glyph-name="text_width" unicode="&#xf035;" 
d="M81 1407l54 -27c7 -3 190 -5 211 -5c88 0 176 4 264 4c151.429 0 303.837 1.95918 456.105 1.95918c114.201 0 228.324 -1.10204 341.895 -4.95918c0.742522 -0.033751 1.48391 -0.0504151 2.22388 -0.0504151c21.1845 0 41.2149 13.6579 53.7761 31.0504l42 1
c9 0 19 -1 28 -1c2 -112 2 -224 2 -336c0 -9 0.0625 -18.125 0.0625 -27.2969c0 -27.5156 -0.5625 -55.4531 -5.0625 -81.7031c-22 -8 -45 -15 -68 -18c-23 40 -39 84 -54 128c-7 20 -32 155 -33 157c-7 9 -16 15 -27 19c-4.8 1.8 -24 2.16 -40.752 2.16
c-11.168 0 -21.248 -0.16 -25.248 -0.16c-61.5 0 -127.75 1.75 -193.75 1.75s-131.75 -1.75 -192.25 -8.75c-4.47822 -39.4083 -8.15426 -81.2232 -8.15426 -121.852c0 -4.7339 0.0499051 -9.45171 0.154261 -14.1477l1 -152v52c1 -163 3 -325 3 -487
c0 -40.1739 -3.26654 -81.4367 -3.26654 -122.226c0 -37.3902 2.7448 -74.3827 13.2665 -109.774c76 -39 166 -45 244 -80c2 -16 5 -33 5 -50c0 -9 -1 -19 -3 -29l-34 -1c-11.8333 -0.333333 -23.6528 -0.486111 -35.4612 -0.486111
c-129.893 0 -258.455 18.4861 -389.539 18.4861c-101 0 -202 -18 -303 -18c-1 17 -3 35 -3 52v9c38 61 175 62 238 99c16.0256 35.8974 18.902 243.146 18.902 410.494c0 93.7147 -0.902038 174.917 -0.902038 206.506c0 14 -5 29 -5 44
c0 19.7931 1.63139 84.799 1.63139 148.664c0 68.4265 -1.87277 135.543 -9.63139 144.336c-10 10.7143 -79.6939 12.2449 -124.898 12.2449c-18.0816 0 -32.2449 -0.244898 -37.102 -0.244898c-42 0 -277 -22 -301 -38c-47 -31 -48 -232 -108 -237c-18 11 -43 27 -56 44
v383zM1310 125c35 0 168 -119 195 -140c15 -12 26 -29 26 -49s-11 -37 -26 -49c-27 -21 -160 -140 -195 -140c-27.1282 0 -32.693 37.2143 -32.693 71.4412c0 23.81 2.69297 46.1742 2.69297 53.5588h-1024c0 -7.38462 2.69297 -29.7488 2.69297 -53.5588
c0 -34.2268 -5.56476 -71.4412 -32.693 -71.4412c-35 0 -168 119 -195 140c-15 12 -26 29 -26 49s11 37 26 49c27 21 160 140 195 140c27.1282 0 32.693 -37.2143 32.693 -71.4412c0 -23.81 -2.69297 -46.1742 -2.69297 -53.5588h1024
c0 7.38462 -2.69297 29.7488 -2.69297 53.5588c0 34.2268 5.56476 71.4412 32.693 71.4412z" />
    <glyph glyph-name="align_left" unicode="&#xf036;" horiz-adv-x="1792" 
d="M1792 192v-128c0 -35 -29 -64 -64 -64h-1664c-35 0 -64 29 -64 64v128c0 35 29 64 64 64h1664c35 0 64 -29 64 -64zM1408 576v-128c0 -35 -29 -64 -64 -64h-1280c-35 0 -64 29 -64 64v128c0 35 29 64 64 64h1280c35 0 64 -29 64 -64zM1664 960v-128
c0 -35 -29 -64 -64 -64h-1536c-35 0 -64 29 -64 64v128c0 35 29 64 64 64h1536c35 0 64 -29 64 -64zM1280 1344v-128c0 -35 -29 -64 -64 -64h-1152c-35 0 -64 29 -64 64v128c0 35 29 64 64 64h1152c35 0 64 -29 64 -64z" />
    <glyph glyph-name="align_center" unicode="&#xf037;" horiz-adv-x="1792" 
d="M1792 192v-128c0 -35 -29 -64 -64 -64h-1664c-35 0 -64 29 -64 64v128c0 35 29 64 64 64h1664c35 0 64 -29 64 -64zM1408 576v-128c0 -35 -29 -64 -64 -64h-896c-35 0 -64 29 -64 64v128c0 35 29 64 64 64h896c35 0 64 -29 64 -64zM1664 960v-128c0 -35 -29 -64 -64 -64
h-1408c-35 0 -64 29 -64 64v128c0 35 29 64 64 64h1408c35 0 64 -29 64 -64zM1280 1344v-128c0 -35 -29 -64 -64 -64h-640c-35 0 -64 29 -64 64v128c0 35 29 64 64 64h640c35 0 64 -29 64 -64z" />
    <glyph glyph-name="align_right" unicode="&#xf038;" horiz-adv-x="1792" 
d="M1792 192v-128c0 -35 -29 -64 -64 -64h-1664c-35 0 -64 29 -64 64v128c0 35 29 64 64 64h1664c35 0 64 -29 64 -64zM1792 576v-128c0 -35 -29 -64 -64 -64h-1280c-35 0 -64 29 -64 64v128c0 35 29 64 64 64h1280c35 0 64 -29 64 -64zM1792 960v-128
c0 -35 -29 -64 -64 -64h-1536c-35 0 -64 29 -64 64v128c0 35 29 64 64 64h1536c35 0 64 -29 64 -64zM1792 1344v-128c0 -35 -29 -64 -64 -64h-1152c-35 0 -64 29 -64 64v128c0 35 29 64 64 64h1152c35 0 64 -29 64 -64z" />
    <glyph glyph-name="align_justify" unicode="&#xf039;" horiz-adv-x="1792" 
d="M1792 192v-128c0 -35 -29 -64 -64 -64h-1664c-35 0 -64 29 -64 64v128c0 35 29 64 64 64h1664c35 0 64 -29 64 -64zM1792 576v-128c0 -35 -29 -64 -64 -64h-1664c-35 0 -64 29 -64 64v128c0 35 29 64 64 64h1664c35 0 64 -29 64 -64zM1792 960v-128
c0 -35 -29 -64 -64 -64h-1664c-35 0 -64 29 -64 64v128c0 35 29 64 64 64h1664c35 0 64 -29 64 -64zM1792 1344v-128c0 -35 -29 -64 -64 -64h-1664c-35 0 -64 29 -64 64v128c0 35 29 64 64 64h1664c35 0 64 -29 64 -64z" />
    <glyph glyph-name="list" unicode="&#xf03a;" horiz-adv-x="1792" 
d="M256 224v-192c0 -17 -15 -32 -32 -32h-192c-17 0 -32 15 -32 32v192c0 17 15 32 32 32h192c17 0 32 -15 32 -32zM256 608v-192c0 -17 -15 -32 -32 -32h-192c-17 0 -32 15 -32 32v192c0 17 15 32 32 32h192c17 0 32 -15 32 -32zM256 992v-192c0 -17 -15 -32 -32 -32h-192
c-17 0 -32 15 -32 32v192c0 17 15 32 32 32h192c17 0 32 -15 32 -32zM1792 224v-192c0 -17 -15 -32 -32 -32h-1344c-17 0 -32 15 -32 32v192c0 17 15 32 32 32h1344c17 0 32 -15 32 -32zM256 1376v-192c0 -17 -15 -32 -32 -32h-192c-17 0 -32 15 -32 32v192
c0 17 15 32 32 32h192c17 0 32 -15 32 -32zM1792 608v-192c0 -17 -15 -32 -32 -32h-1344c-17 0 -32 15 -32 32v192c0 17 15 32 32 32h1344c17 0 32 -15 32 -32zM1792 992v-192c0 -17 -15 -32 -32 -32h-1344c-17 0 -32 15 -32 32v192c0 17 15 32 32 32h1344
c17 0 32 -15 32 -32zM1792 1376v-192c0 -17 -15 -32 -32 -32h-1344c-17 0 -32 15 -32 32v192c0 17 15 32 32 32h1344c17 0 32 -15 32 -32z" />
    <glyph glyph-name="indent_left" unicode="&#xf03b;" horiz-adv-x="1792" 
d="M384 992v-576c0 -17 -15 -32 -32 -32c-8 0 -17 3 -23 9l-288 288c-6 6 -9 15 -9 23s3 17 9 23l288 288c6 6 15 9 23 9c17 0 32 -15 32 -32zM1792 224v-192c0 -17 -15 -32 -32 -32h-1728c-17 0 -32 15 -32 32v192c0 17 15 32 32 32h1728c17 0 32 -15 32 -32zM1792 608
v-192c0 -17 -15 -32 -32 -32h-1088c-17 0 -32 15 -32 32v192c0 17 15 32 32 32h1088c17 0 32 -15 32 -32zM1792 992v-192c0 -17 -15 -32 -32 -32h-1088c-17 0 -32 15 -32 32v192c0 17 15 32 32 32h1088c17 0 32 -15 32 -32zM1792 1376v-192c0 -17 -15 -32 -32 -32h-1728
c-17 0 -32 15 -32 32v192c0 17 15 32 32 32h1728c17 0 32 -15 32 -32z" />
    <glyph glyph-name="indent_right" unicode="&#xf03c;" horiz-adv-x="1792" 
d="M352 704c0 -8 -3 -17 -9 -23l-288 -288c-6 -6 -15 -9 -23 -9c-17 0 -32 15 -32 32v576c0 17 15 32 32 32c8 0 17 -3 23 -9l288 -288c6 -6 9 -15 9 -23zM1792 224v-192c0 -17 -15 -32 -32 -32h-1728c-17 0 -32 15 -32 32v192c0 17 15 32 32 32h1728c17 0 32 -15 32 -32z
M1792 608v-192c0 -17 -15 -32 -32 -32h-1088c-17 0 -32 15 -32 32v192c0 17 15 32 32 32h1088c17 0 32 -15 32 -32zM1792 992v-192c0 -17 -15 -32 -32 -32h-1088c-17 0 -32 15 -32 32v192c0 17 15 32 32 32h1088c17 0 32 -15 32 -32zM1792 1376v-192c0 -17 -15 -32 -32 -32
h-1728c-17 0 -32 15 -32 32v192c0 17 15 32 32 32h1728c17 0 32 -15 32 -32z" />
    <glyph glyph-name="facetime_video" unicode="&#xf03d;" horiz-adv-x="1792" 
d="M1792 1184v-1088c0 -26 -16 -49 -39 -59c-8 -3 -17 -5 -25 -5c-17 0 -33 6 -45 19l-403 403v-166c0 -159 -129 -288 -288 -288h-704c-159 0 -288 129 -288 288v704c0 159 129 288 288 288h704c159 0 288 -129 288 -288v-165l403 402c12 13 28 19 45 19c8 0 17 -2 25 -5
c23 -10 39 -33 39 -59z" />
    <glyph glyph-name="picture" unicode="&#xf03e;" horiz-adv-x="1920" 
d="M640 960c0 -106 -86 -192 -192 -192s-192 86 -192 192s86 192 192 192s192 -86 192 -192zM1664 576v-448h-1408v192l320 320l160 -160l512 512zM1760 1280h-1600c-17 0 -32 -15 -32 -32v-1216c0 -17 15 -32 32 -32h1600c17 0 32 15 32 32v1216c0 17 -15 32 -32 32z
M1920 1248v-1216c0 -88 -72 -160 -160 -160h-1600c-88 0 -160 72 -160 160v1216c0 88 72.0806 156.891 160 160l1414 50l186 -50c88 0 160 -72 160 -160z" />
    <glyph glyph-name="pencil" unicode="&#xf040;" horiz-adv-x="1142" 
d="M0 0v311l317 -311h-317zM1090 1012c34 -38 52 -82 52 -132c0 -51 -18 -93 -52 -128l-664 -664l-52 52c-16 19 -24 37.5 -24 55.625s8 35.875 24 53.375l607 607c7 4 10 11 10 21s-3 19 -10 26l-73 78c-17 17 -34 17 -52 0l-607 -607c-14 -14 -31 -21 -52 -21
s-38 7 -52 21l-52 52l659 659c35 38 77 57 128 57c50 0 94 -19 132 -57z" />
    <glyph glyph-name="map_marker" unicode="&#xf041;" horiz-adv-x="1153" 
d="M1152 870c0 -277 -123 -560 -368 -851c-21 21 -56 59 -104 114c218 256 327 502 327 737c0 118 -41 218 -122 301c-82 83 -183 125 -304 125s-223 -41 -306 -122c-83 -82 -125 -183 -125 -304c0 -114 25 -228 73 -342c49 -115 97 -204 145 -268c49 -64 112 -137 190 -220
s118 -128 122 -135l-47 -47c-17 -17 -35 -26 -52 -26c-21 0 -40 9 -57 26c-190 197 -325 372 -405 524c-79 152 -119 315 -119 488c0 159 57 296 171 410c111 111 246 166 405 166c163 0 299 -55 410 -166s166 -247 166 -410zM576 1145c80 0 147 -28 202 -83
c56 -55 83 -121 83 -197c0 -80 -28 -147 -85 -203c-57 -55 -124 -83 -200 -83s-142 28 -197 83c-56 56 -83 123 -83 203c0 79 27 146 83 200c55 53 121 80 197 80zM576 730c38 0 70 13 96 39s39 58 39 96s-13 70 -39 96s-58 39 -96 39c-35 0 -66 -13 -93 -39
c-28 -26 -42 -58 -42 -96s13 -70 39 -96s58 -39 96 -39z" />
    <glyph glyph-name="adjust" unicode="&#xf042;" 
d="M768 96v1088c-300 0 -544 -244 -544 -544s244 -544 544 -544zM1536 640c0 -424 -344 -768 -768 -768s-768 344 -768 768s344 768 768 768s768 -344 768 -768z" />
    <glyph glyph-name="tint" unicode="&#xf043;" horiz-adv-x="1024" 
d="M512 384c0 25 -8 49 -20 69c-13 20 -66 88 -87 155c-3 11 -13 16 -21 16s-18 -5 -21 -16c-21 -67 -74 -135 -87 -155c-12 -20 -20 -44 -20 -69c0 -71 57 -128 128 -128s128 57 128 128zM1024 512c0 -283 -229 -512 -512 -512s-512 229 -512 512c0 101 31 195 81 275
c51 80 265 351 346 621c13 43 53 64 85 64s73 -21 85 -64c81 -270 295 -541 346 -621s81 -174 81 -275z" />
    <glyph glyph-name="edit" unicode="&#xf044;" horiz-adv-x="1609" 
d="M1609 1053l-587 -586l-109 104l587 591zM747 296l47 187l140 -141zM1147 182l-5 197l150 150v-347c0 -49 -18 -91 -54 -128c-37 -36 -79 -54 -128 -54h-923c-59 0 -106 21 -140 62c-31 38 -47 78 -47 120v1037c0 59 26 109 78 151c34 24 71 36 109 36h923
c56 0 101 -22 135 -67c32 -31 47 -71 47 -120v-51l-150 -151v202c0 11 -2 18 -6 21c-13 7 -22 11 -26 11h-923c-7 0 -12 -2 -16 -6c-10 -3 -15 -12 -15 -26v-1037c0 -4 3 -12 10 -26c7 -7 14 -11 21 -11h923c25 0 37 12 37 37z" />
    <glyph glyph-name="share" unicode="&#xf045;" horiz-adv-x="1248" 
d="M1198.71 1250.38l-228.325 233.514l-108.973 -103.784l150.486 -150.486h-342.486c-51.8926 0 -96.001 -18.1621 -132.325 -54.4863c-36.3242 -36.3252 -54.4863 -78.7031 -54.4863 -127.136v-596.758h150.486v596.758c0 20.7568 12.1084 31.1348 36.3252 31.1348
h342.486l-150.486 -145.297l108.973 -103.784l228.325 228.324c65.7295 65.7305 65.7295 129.73 0 192.001zM970.38 617.296v-264.648c0 -20.7568 -12.1074 -31.1357 -36.3242 -31.1357h-752.434c-20.7568 0 -31.1357 10.3789 -31.1357 31.1357v695.353
c0 20.7568 10.3789 31.1348 31.1357 31.1348h150.486c10.3789 65.7305 29.4062 115.893 57.0811 150.487h-207.567c-48.4326 0 -90.8115 -18.1621 -127.136 -54.4863c-36.3242 -36.3252 -54.4863 -78.7031 -54.4863 -127.136v-695.353
c0 -51.8926 17.2969 -96.001 51.8916 -132.325s77.8379 -54.4863 129.73 -54.4863h752.434c48.4326 0 91.6758 18.1621 129.73 54.4863c38.0537 36.3242 57.0811 80.4326 57.0811 132.325v415.136z" />
    <glyph glyph-name="check" unicode="&#xf046;" horiz-adv-x="1664" 
d="M1408 606v-318c0 -159 -129 -288 -288 -288h-832c-159 0 -288 129 -288 288v832c0 159 129 288 288 288h832c40 0 80 -8 117 -25c9 -4 16 -13 18 -23c2 -11 -1 -21 -9 -29l-49 -49c-6 -6 -15 -10 -23 -10c-3 0 -6 1 -9 2c-15 4 -30 6 -45 6h-832
c-88 0 -160 -72 -160 -160v-832c0 -88 72 -160 160 -160h832c88 0 160 72 160 160v254c0 8 3 16 9 22l64 64c7 7 15 10 23 10c4 0 8 -1 12 -3c12 -5 20 -16 20 -29zM1639 1095l-814 -814c-32 -32 -82 -32 -114 0l-430 430c-32 32 -32 82 0 114l110 110c32 32 82 32 114 0
l263 -263l647 647c32 32 82 32 114 0l110 -110c32 -32 32 -82 0 -114z" />
    <glyph glyph-name="move" unicode="&#xf047;" horiz-adv-x="1792" 
d="M1792 640c0 -17 -7 -33 -19 -45l-256 -256c-12 -12 -28 -19 -45 -19c-35 0 -64 29 -64 64v128h-384v-384h128c35 0 64 -29 64 -64c0 -17 -7 -33 -19 -45l-256 -256c-12 -12 -28 -19 -45 -19s-33 7 -45 19l-256 256c-12 12 -19 28 -19 45c0 35 29 64 64 64h128v384h-384
v-128c0 -35 -29 -64 -64 -64c-17 0 -33 7 -45 19l-256 256c-12 12 -19 28 -19 45s7 33 19 45l256 256c12 12 28 19 45 19c35 0 64 -29 64 -64v-128h384v384h-128c-35 0 -64 29 -64 64c0 17 7 33 19 45l256 256c12 12 28 19 45 19s33 -7 45 -19l256 -256
c12 -12 19 -28 19 -45c0 -35 -29 -64 -64 -64h-128v-384h384v128c0 35 29 64 64 64c17 0 33 -7 45 -19l256 -256c12 -12 19 -28 19 -45z" />
    <glyph glyph-name="step_backward" unicode="&#xf048;" horiz-adv-x="826" 
d="M731.677 1139.24l-129.729 -129.729l-259.461 -259.46c-31.1348 -31.1357 -46.7021 -67.46 -46.7021 -108.974c0 -48.4326 15.5674 -84.7568 46.7021 -108.974l5.18945 -5.18848l384.001 -389.19c13.8379 -17.2969 32.8652 -20.7568 57.0811 -10.3779
c24.2168 10.3779 36.3242 27.6758 36.3242 51.8916v923.678c0 24.2158 -12.1074 40.6484 -36.3242 49.2969c-24.2158 8.64941 -43.2432 4.3252 -57.0811 -12.9727zM0 1160h150.486v-1037.84h-150.486v1037.84z" />
    <glyph glyph-name="fast_backward" unicode="&#xf049;" horiz-adv-x="1500" 
d="M731.678 1139.24l-389.19 -389.189c-31.1348 -31.1357 -46.7021 -67.46 -46.7021 -108.974c0 -48.4326 15.5674 -84.7568 46.7021 -108.974l5.18945 -5.18848l384.001 -389.19c17.2969 -13.8379 37.1895 -16.4326 59.6758 -7.7832
c22.4863 8.64844 33.7295 25.0811 33.7295 49.2969v923.678c0 24.2158 -11.2432 40.6484 -33.7295 49.2969c-22.4863 8.64941 -42.3789 4.3252 -59.6758 -12.9727zM1406.27 1139.24l-129.729 -129.729l-264.649 -259.46
c-27.6758 -34.5947 -41.5137 -70.9199 -41.5137 -108.974c0 -44.9727 13.8379 -81.2979 41.5137 -108.974l10.3779 -5.18848l384.001 -389.19c17.2979 -17.2969 37.1895 -20.7568 59.6758 -10.3779c22.4863 10.3779 33.7305 27.6758 33.7305 51.8916v923.678
c0 24.2158 -11.2441 40.6484 -33.7305 49.2969c-22.4863 8.64941 -42.3779 4.3252 -59.6758 -12.9727zM0 1160h150.487v-1037.84h-150.487v1037.84z" />
    <glyph glyph-name="backward" unicode="&#xf04a;" horiz-adv-x="1331" 
d="M562.893 1139.24l-389.19 -389.189c-31.1348 -31.1357 -46.7021 -67.46 -46.7021 -108.974c0 -48.4326 15.5674 -84.7568 46.7021 -108.974l5.18945 -5.18848l384.001 -389.19c17.2969 -13.8379 37.1895 -16.4326 59.6758 -7.7832
c22.4863 8.64844 33.7295 25.0811 33.7295 49.2969v923.678c0 24.2158 -11.2432 40.6484 -33.7295 49.2969c-22.4863 8.64941 -42.3789 4.3252 -59.6758 -12.9727zM1237.49 1139.24l-129.729 -129.729l-264.649 -259.46
c-27.6758 -34.5947 -41.5137 -70.9199 -41.5137 -108.974c0 -44.9727 13.8379 -81.2979 41.5137 -108.974l10.3779 -5.18848l384.001 -389.19c17.2979 -17.2969 37.1895 -20.7568 59.6758 -10.3779c22.4863 10.3779 33.7305 27.6758 33.7305 51.8916v923.678
c0 24.2158 -11.2441 40.6484 -33.7305 49.2969c-22.4863 8.64941 -42.3779 4.3252 -59.6758 -12.9727z" />
    <glyph glyph-name="play" unicode="&#xf04b;" horiz-adv-x="1408" 
d="M1384 609l-1328 -738c-31 -17 -56 -2 -56 33v1472c0 35 25 50 56 33l1328 -738c31 -17 31 -45 0 -62z" />
    <glyph glyph-name="pause" unicode="&#xf04c;" 
d="M1536 1344v-1408c0 -35 -29 -64 -64 -64h-512c-35 0 -64 29 -64 64v1408c0 35 29 64 64 64h512c35 0 64 -29 64 -64zM640 1344v-1408c0 -35 -29 -64 -64 -64h-512c-35 0 -64 29 -64 64v1408c0 35 29 64 64 64h512c35 0 64 -29 64 -64z" />
    <glyph glyph-name="stop" unicode="&#xf04d;" 
d="M1536 1344v-1408c0 -35 -29 -64 -64 -64h-1408c-35 0 -64 29 -64 64v1408c0 35 29 64 64 64h1408c35 0 64 -29 64 -64z" />
    <glyph glyph-name="forward" unicode="&#xf04e;" horiz-adv-x="1314" 
d="M768.002 142.917l124.541 129.729l264.649 259.46c31.1348 31.1357 46.7021 67.46 46.7021 108.974s-15.5674 77.8379 -46.7021 108.974l-389.19 389.189c-17.2969 17.2979 -37.1895 21.6221 -59.6758 12.9727c-22.4863 -8.64844 -33.7295 -25.0811 -33.7295 -49.2969
v-923.678c-3.45996 -24.2158 6.91895 -40.6484 31.1348 -49.2969c24.2168 -8.64941 44.9736 -4.3252 62.2705 12.9727zM93.4062 142.917l389.189 389.189c31.1357 31.1357 46.7031 67.46 46.7031 108.974s-15.5674 77.8379 -46.7031 108.974l-389.189 389.189
c-17.2979 17.2979 -37.1895 21.6221 -59.6758 12.9727c-22.4863 -8.64844 -33.7305 -25.0811 -33.7305 -49.2969v-923.678c0 -24.2158 11.2441 -40.6484 33.7305 -49.2969c22.4863 -8.64941 42.3779 -4.3252 59.6758 12.9727z" />
    <glyph glyph-name="fast_forward" unicode="&#xf050;" horiz-adv-x="1500" 
d="M768.002 142.917l124.541 129.729l264.649 259.46c31.1348 31.1357 46.7021 67.46 46.7021 108.974s-15.5674 77.8379 -46.7021 108.974l-389.19 389.189c-17.2969 17.2979 -37.1895 21.6221 -59.6758 12.9727c-22.4863 -8.64844 -33.7295 -25.0811 -33.7295 -49.2969
v-923.678c-3.45996 -24.2158 6.91895 -40.6484 31.1348 -49.2969c24.2168 -8.64941 44.9736 -4.3252 62.2705 12.9727zM93.4062 142.917l389.189 389.189c31.1357 31.1357 46.7031 67.46 46.7031 108.974s-15.5674 77.8379 -46.7031 108.974l-389.189 389.189
c-17.2979 17.2979 -37.1895 21.6221 -59.6758 12.9727c-22.4863 -8.64844 -33.7305 -25.0811 -33.7305 -49.2969v-923.678c0 -24.2158 11.2441 -40.6484 33.7305 -49.2969c22.4863 -8.64941 42.3779 -4.3252 59.6758 12.9727zM1349.19 1160h150.487v-1037.84h-150.487
v1037.84z" />
    <glyph glyph-name="step_forward" unicode="&#xf051;" horiz-adv-x="826" 
d="M93.4053 142.917l129.729 129.729l259.461 259.46c31.1348 31.1357 46.7021 67.46 46.7021 108.974s-15.5674 77.8379 -46.7021 108.974l-5.18945 5.18848l-384.001 384.001c-17.2979 17.2979 -37.1895 21.6221 -59.6758 12.9727
c-22.4863 -8.64844 -33.7295 -25.0811 -33.7295 -49.2969v-923.678c0 -24.2158 11.2432 -40.6484 33.7295 -49.2969c22.4863 -8.64941 42.3779 -4.3252 59.6758 12.9727zM674.596 1160h150.486v-1037.84h-150.486v1037.84z" />
    <glyph glyph-name="eject" unicode="&#xf052;" horiz-adv-x="1538" 
d="M14 557l710 710c25 25 65 25 90 0l710 -710c25 -25 16 -45 -19 -45h-1472c-35 0 -44 20 -19 45zM1473 0h-1408c-35 0 -64 29 -64 64v256c0 35 29 64 64 64h1408c35 0 64 -29 64 -64v-256c0 -35 -29 -64 -64 -64z" />
    <glyph glyph-name="chevron_left" unicode="&#xf053;" horiz-adv-x="1280" 
d="M1171 1235l-531 -531l531 -531c25 -25 25 -65 0 -90l-166 -166c-25 -25 -65 -25 -90 0l-742 742c-25 25 -25 65 0 90l742 742c25 25 65 25 90 0l166 -166c25 -25 25 -65 0 -90z" />
    <glyph glyph-name="chevron_right" unicode="&#xf054;" horiz-adv-x="1280" 
d="M1107 659l-742 -742c-25 -25 -65 -25 -90 0l-166 166c-25 25 -25 65 0 90l531 531l-531 531c-25 25 -25 65 0 90l166 166c25 25 65 25 90 0l742 -742c25 -25 25 -65 0 -90z" />
    <glyph glyph-name="plus_sign" unicode="&#xf055;" 
d="M1216 576v128c0 35 -29 64 -64 64h-256v256c0 35 -29 64 -64 64h-128c-35 0 -64 -29 -64 -64v-256h-256c-35 0 -64 -29 -64 -64v-128c0 -35 29 -64 64 -64h256v-256c0 -35 29 -64 64 -64h128c35 0 64 29 64 64v256h256c35 0 64 29 64 64zM1536 640
c0 -424 -344 -768 -768 -768s-768 344 -768 768s344 768 768 768s768 -344 768 -768z" />
    <glyph glyph-name="minus_sign" unicode="&#xf056;" 
d="M1216 576v128c0 35 -29 64 -64 64h-768c-35 0 -64 -29 -64 -64v-128c0 -35 29 -64 64 -64h768c35 0 64 29 64 64zM1536 640c0 -424 -344 -768 -768 -768s-768 344 -768 768s344 768 768 768s768 -344 768 -768z" />
    <glyph glyph-name="remove_sign" unicode="&#xf057;" 
d="M768.002 1408c-211.027 0 -391.784 -75.2441 -542.271 -225.73c-150.486 -150.487 -225.73 -331.244 -225.73 -542.271s75.2441 -391.784 225.73 -542.271c150.487 -150.486 331.244 -225.73 542.271 -225.73c214.487 0 396.109 74.3789 544.866 223.136
s223.136 330.379 223.136 544.866s-74.3789 396.109 -223.136 544.866s-330.379 223.136 -544.866 223.136zM1146.81 364.973l-103.784 -103.784l-275.027 269.838l-269.839 -269.838l-108.973 103.784l275.027 275.027l-275.027 269.839l108.973 108.973l275.028 -275.027
l269.838 275.027l108.974 -108.973l-275.027 -269.839z" />
    <glyph glyph-name="ok_sign" unicode="&#xf058;" 
d="M1284 802c0 17 -6 34 -18 46l-91 90c-12 12 -28 19 -45 19s-33 -7 -45 -19l-408 -407l-226 226c-12 12 -28 19 -45 19s-33 -7 -45 -19l-91 -90c-12 -12 -18 -29 -18 -46s6 -33 18 -45l362 -362c12 -12 29 -19 45 -19c17 0 34 7 46 19l543 543c12 12 18 28 18 45z
M1536 640c0 -424 -344 -768 -768 -768s-768 344 -768 768s344 768 768 768s768 -344 768 -768z" />
    <glyph glyph-name="question_sign" unicode="&#xf059;" 
d="M896 160v192c0 18 -14 32 -32 32h-192c-18 0 -32 -14 -32 -32v-192c0 -18 14 -32 32 -32h192c18 0 32 14 32 32zM1152 832c0 183 -192 320 -364 320c-163 0 -285 -70 -371 -213c-9 -14 -5 -32 8 -42l132 -100c5 -4 12 -6 19 -6c9 0 19 4 25 12c47 60 67 78 86 92
c17 12 50 24 86 24c64 0 123 -41 123 -85c0 -52 -27 -78 -88 -106c-71 -32 -168 -115 -168 -212v-36c0 -18 14 -32 32 -32h192c18 0 32 14 32 32v0c0 23 29 72 76 99c76 43 180 101 180 253zM1536 640c0 -424 -344 -768 -768 -768s-768 344 -768 768s344 768 768 768
s768 -344 768 -768z" />
    <glyph glyph-name="info_sign" unicode="&#xf05a;" horiz-adv-x="1535" 
d="M690.163 1030.38v-150.487h150.487v150.487h-150.487zM1359.57 148.214c124.541 148.757 182.487 322.596 173.838 521.515c-8.64844 198.919 -82.1621 367.568 -220.541 505.947c-148.757 152.216 -329.515 228.324 -542.271 228.324
s-393.515 -76.1084 -542.271 -228.324c-152.216 -148.757 -228.324 -329.515 -228.324 -542.271s76.1084 -393.515 228.324 -542.271c138.379 -138.379 307.028 -211.893 505.947 -220.541c198.919 -8.64941 372.758 49.2969 521.515 173.838l-108.973 103.784
c-117.622 -93.4053 -255.137 -135.784 -412.542 -127.136c-157.405 8.64941 -291.46 68.3252 -402.163 179.027c-117.622 117.622 -176.433 262.92 -176.433 435.894c0 172.974 58.8105 318.271 176.433 435.893c117.622 117.622 262.919 176.433 435.893 176.433
c172.974 0 318.271 -58.8105 435.894 -176.433c110.702 -110.703 170.378 -244.758 179.027 -402.163c8.64844 -157.405 -33.7305 -294.92 -127.136 -412.542zM690.163 251.998h155.677v477.406h-155.677v-477.406z" />
    <glyph glyph-name="screenshot" unicode="&#xf05b;" 
d="M1197 512h-109c-35 0 -64 29 -64 64v128c0 35 29 64 64 64h109c-43 144 -157 258 -301 301v-109c0 -35 -29 -64 -64 -64h-128c-35 0 -64 29 -64 64v109c-144 -43 -258 -157 -301 -301h109c35 0 64 -29 64 -64v-128c0 -35 -29 -64 -64 -64h-109c43 -144 157 -258 301 -301
v109c0 35 29 64 64 64h128c35 0 64 -29 64 -64v-109c144 43 258 157 301 301zM1536 704v-128c0 -35 -29 -64 -64 -64h-143c-49 -215 -218 -384 -433 -433v-143c0 -35 -29 -64 -64 -64h-128c-35 0 -64 29 -64 64v143c-215 49 -384 218 -433 433h-143c-35 0 -64 29 -64 64v128
c0 35 29 64 64 64h143c49 215 218 384 433 433v143c0 35 29 64 64 64h128c35 0 64 -29 64 -64v-143c215 -49 384 -218 433 -433h143c35 0 64 -29 64 -64z" />
    <glyph glyph-name="remove_circle" unicode="&#xf05c;" horiz-adv-x="1512" 
d="M1286.92 1173.52c-145.297 148.757 -322.595 223.136 -531.893 223.136c-209.298 0 -388.325 -74.3789 -537.082 -223.136c-138.379 -138.379 -211.027 -305.298 -217.946 -500.758c-6.91895 -195.46 50.1621 -367.568 171.243 -516.325l103.784 108.973
c-93.4053 117.622 -134.919 253.406 -124.541 407.353c10.3789 153.946 69.1895 284.541 176.433 391.784c117.622 117.622 260.325 176.433 428.109 176.433c167.784 0 310.487 -58.8105 428.109 -176.433c121.081 -117.621 181.622 -260.324 181.622 -428.108
c0 -167.784 -60.541 -310.487 -181.622 -428.109c-107.244 -107.243 -237.839 -165.189 -391.785 -173.838c-153.946 -8.64844 -289.73 32 -407.352 121.946l-108.974 -103.784c148.757 -121.081 320.865 -177.298 516.325 -168.649
c195.46 8.64941 362.379 82.1631 500.758 220.541c145.298 148.757 217.946 326.92 217.946 534.488c0 207.567 -74.3779 385.73 -223.136 534.487zM482.596 260.217l269.838 275.028l275.027 -275.028l103.784 108.974l-269.838 275.027l269.838 269.839l-103.784 108.973
l-275.027 -275.027l-269.838 269.839l-108.974 -103.784l275.027 -275.027l-275.027 -269.839z" />
    <glyph glyph-name="ok_circle" unicode="&#xf05d;" horiz-adv-x="1583" 
d="M508.541 809.272l-103.784 -103.784l249.082 -249.082c10.3779 -13.8379 27.6758 -20.7568 51.8916 -20.7568c20.7568 0 38.0547 6.91895 51.8926 20.7568l825.082 819.894l-108.973 108.974l-768.002 -768.002zM1255.79 741.812
c3.45898 -13.8379 5.18945 -32.8652 5.18945 -57.0811c0 -152.217 -54.4873 -282.812 -163.46 -391.784c-108.974 -108.974 -239.568 -163.46 -391.785 -163.46c-152.216 0 -282.812 54.4863 -391.784 163.46c-108.974 108.973 -163.46 239.567 -163.46 391.784
c0 152.217 54.4863 282.812 163.46 391.784c108.973 108.974 239.568 163.46 391.784 163.46c110.703 0 216.217 -32.8643 316.541 -98.5947l103.784 108.974c-121.081 93.4053 -261.189 140.108 -420.325 140.108c-193.729 0 -359.784 -69.1895 -498.163 -207.568
c-138.379 -138.379 -207.567 -304.433 -207.567 -498.163s69.1885 -359.784 207.567 -498.163c138.379 -138.379 304.434 -207.568 498.163 -207.568c193.73 0 359.785 69.1895 498.163 207.568c138.379 138.379 207.568 304.433 207.568 498.163
c0 76.1084 -8.64844 138.379 -25.9463 186.812z" />
    <glyph glyph-name="ban_circle" unicode="&#xf05e;" 
d="M1312 643c0 109 -32 210 -87 295l-754 -753c86 -56 188 -89 297 -89c300 0 544 245 544 547zM313 344l755 754c-86 58 -189 91 -300 91c-300 0 -544 -245 -544 -546c0 -111 33 -213 89 -299zM1536 643c0 -426 -344 -771 -768 -771s-768 345 -768 771
c0 425 344 770 768 770s768 -345 768 -770z" />
    <glyph glyph-name="arrow_left" unicode="&#xf060;" horiz-adv-x="1563" 
d="M711.65 703.729h669.407c20.7568 0 31.1348 -10.3779 31.1348 -31.1348v-197.189c0 -20.7568 -10.3779 -31.1357 -31.1348 -31.1357h-446.271v-150.486h446.271c48.4326 0 90.8105 18.1621 127.135 54.4863s54.4873 78.7031 54.4873 127.136v197.189
c0 48.4326 -18.1631 90.8105 -54.4873 127.135c-36.3242 36.3252 -78.7021 54.4873 -127.135 54.4873h-742.056v-72.6494c0 -51.8916 24.2158 -77.8379 72.6484 -77.8379zM125.271 423.513l534.488 -534.487c20.7568 -20.7568 46.7021 -25.0811 77.8379 -12.9727
c31.1348 12.1074 46.7021 33.7295 46.7021 64.8643v503.353h-72.6484c-20.7568 0 -38.0537 -7.7832 -51.8916 -23.3516c-13.8379 -15.5674 -20.7568 -32 -20.7568 -49.2969v-249.082l-409.947 409.947c-34.5947 27.6758 -34.5947 55.3516 0 83.0273l555.244 560.434
l-103.783 103.783l-555.245 -555.244c-41.5137 -41.5137 -62.2705 -91.6758 -62.2705 -150.486c0 -58.8115 20.7568 -108.974 62.2705 -150.487z" />
    <glyph glyph-name="arrow_right" unicode="&#xf061;" horiz-adv-x="1568" 
d="M851.029 444.054h-669.407c-24.2158 0 -36.3242 10.3779 -36.3242 31.1348v197.189c0 20.7568 12.1084 31.1357 36.3242 31.1357h446.271v150.486h-446.271c-48.4326 0 -90.8105 -18.1621 -127.135 -54.4863s-54.4873 -78.7031 -54.4873 -127.136v-197.189
c0 -48.4326 18.1631 -90.8105 54.4873 -127.135c36.3242 -36.3252 78.7021 -54.4873 127.135 -54.4873h742.056v72.6494c0 51.8916 -24.2158 77.8379 -72.6484 77.8379zM1437.41 724.271l-534.488 534.487c-24.2158 20.7568 -51.8916 25.0811 -83.0264 12.9727
c-31.1357 -12.1074 -46.7031 -33.7295 -46.7031 -64.8643v-503.353h77.8379c20.7568 0 38.0537 7.7832 51.8916 23.3516c13.8379 15.5674 20.7568 32 20.7568 49.2969v249.082l409.947 -409.947c27.6758 -27.6758 27.6758 -57.0811 0 -88.2158l-560.434 -555.245
l108.973 -103.783l555.245 555.244c41.5137 41.5137 62.2705 91.6758 62.2705 150.486c0 58.8115 -20.7568 108.974 -62.2705 150.487z" />
    <glyph glyph-name="arrow_up" unicode="&#xf062;" horiz-adv-x="1511" 
d="M887.677 756.946v-669.407c0 -20.7568 -10.3779 -31.1348 -31.1348 -31.1348h-197.189c-20.7568 0 -31.1357 10.3779 -31.1357 31.1348v446.271h-150.486v-441.082c0 -51.8916 18.1621 -96 54.4863 -132.324s78.7031 -54.4873 127.136 -54.4873h197.189
c48.4326 0 90.8105 19.0273 127.135 57.082c36.3252 38.0537 54.4873 81.2969 54.4873 129.729v742.056h-72.6494c-20.7568 0 -38.9189 -7.78418 -54.4863 -23.3516c-15.5674 -15.5674 -23.3516 -33.7295 -23.3516 -54.4863zM612.649 1348.51l-534.487 -539.677
c-24.2168 -20.7568 -30.2705 -46.7021 -18.1621 -77.8379c12.1074 -31.1348 35.459 -46.7021 70.0537 -46.7021h498.163v72.6484c0 48.4326 -24.2158 72.6484 -72.6484 72.6484h-249.082l409.947 409.947c27.6758 31.1348 57.0811 31.1348 88.2158 0l555.245 -555.244
l103.783 103.783l-555.244 560.434c-41.5137 38.0547 -91.6758 57.082 -150.486 57.082c-58.8115 0 -107.244 -19.0273 -145.298 -57.082z" />
    <glyph glyph-name="arrow_down" unicode="&#xf063;" horiz-adv-x="1520" 
d="M628.001 560.324v664.218c0 24.2158 12.1084 36.3242 36.3252 36.3242h192c24.2158 0 36.3242 -12.1084 36.3242 -36.3242v-441.082h145.298v441.082c0 48.4326 -17.2979 90.8105 -51.8926 127.135c-34.5938 36.3242 -77.8379 54.4873 -129.729 54.4873h-197.189
c-48.4326 0 -90.8115 -18.1631 -127.136 -54.4873s-54.4863 -78.7021 -54.4863 -127.135v-742.056h72.6484c51.8926 0 77.8379 25.9453 77.8379 77.8379zM908.218 -31.2451l534.488 534.488c24.2158 24.2158 29.4053 51.8916 15.5674 83.0264
c-13.8379 31.1357 -36.3242 46.7031 -67.46 46.7031h-503.353v-77.8379c0 -48.4326 25.9463 -72.6484 77.8389 -72.6484h243.892l-404.757 -404.758c-31.1357 -31.1357 -60.541 -31.1357 -88.2168 0l-555.244 555.244l-108.974 -108.973l560.434 -555.245
c38.0547 -41.5137 86.4863 -62.2705 145.298 -62.2705c58.8105 0 108.973 20.7568 150.486 62.2705z" />
    <glyph glyph-name="share_alt" unicode="&#xf064;" horiz-adv-x="1792" 
d="M1792 896c0 -17 -7 -33 -19 -45l-512 -512c-12 -12 -28 -19 -45 -19c-35 0 -64 29 -64 64v256h-224c-431 0 -714 -83 -714 -560c0 -41 2 -82 5 -123c1 -16 5 -34 5 -50c0 -19 -12 -35 -32 -35c-14 0 -21 7 -28 17c-15 21 -26 53 -37 76c-57 128 -127 311 -127 451
c0 112 11 227 53 333c139 345 547 403 875 403h224v256c0 35 29 64 64 64c17 0 33 -7 45 -19l512 -512c12 -12 19 -28 19 -45z" />
    <glyph glyph-name="resize_full" unicode="&#xf065;" 
d="M755 480c0 -8 -4 -17 -10 -23l-332 -332l144 -144c12 -12 19 -28 19 -45c0 -35 -29 -64 -64 -64h-448c-35 0 -64 29 -64 64v448c0 35 29 64 64 64c17 0 33 -7 45 -19l144 -144l332 332c6 6 15 10 23 10s17 -4 23 -10l114 -114c6 -6 10 -15 10 -23zM1536 1344v-448
c0 -35 -29 -64 -64 -64c-17 0 -33 7 -45 19l-144 144l-332 -332c-6 -6 -15 -10 -23 -10s-17 4 -23 10l-114 114c-6 6 -10 15 -10 23s4 17 10 23l332 332l-144 144c-12 12 -19 28 -19 45c0 35 29 64 64 64h448c35 0 64 -29 64 -64z" />
    <glyph glyph-name="resize_small" unicode="&#xf066;" 
d="M768 576v-448c0 -35 -29 -64 -64 -64c-17 0 -33 7 -45 19l-144 144l-332 -332c-6 -6 -15 -10 -23 -10s-17 4 -23 10l-114 114c-6 6 -10 15 -10 23s4 17 10 23l332 332l-144 144c-12 12 -19 28 -19 45c0 35 29 64 64 64h448c35 0 64 -29 64 -64zM1523 1248
c0 -8 -4 -17 -10 -23l-332 -332l144 -144c12 -12 19 -28 19 -45c0 -35 -29 -64 -64 -64h-448c-35 0 -64 29 -64 64v448c0 35 29 64 64 64c17 0 33 -7 45 -19l144 -144l332 332c6 6 15 10 23 10s17 -4 23 -10l114 -114c6 -6 10 -15 10 -23z" />
    <glyph glyph-name="exclamation_sign" unicode="&#xf06a;" horiz-adv-x="1535" 
d="M1359.57 129.81c124.541 148.757 182.486 322.595 173.838 521.515c-8.64844 198.919 -82.1621 367.568 -220.541 505.947c-148.757 152.216 -329.514 228.324 -542.271 228.324c-212.757 0 -393.514 -76.1084 -542.271 -228.324
c-152.216 -148.758 -228.324 -329.515 -228.324 -542.271c0 -212.758 76.1084 -393.515 228.324 -542.271c138.379 -138.379 307.028 -211.893 505.947 -220.541c198.92 -8.64844 372.758 49.2969 521.515 173.838l-108.973 103.784
c-117.622 -93.4053 -255.136 -135.784 -412.542 -127.136c-157.405 8.64941 -291.46 68.3252 -402.163 179.027c-117.622 117.622 -176.433 262.92 -176.433 435.894c0 172.973 58.8105 318.271 176.433 435.893c117.622 117.622 262.92 176.433 435.893 176.433
c172.974 0 318.271 -58.8105 435.894 -176.433c110.702 -110.703 170.378 -244.758 179.027 -402.163c8.64844 -157.406 -33.7305 -294.92 -127.136 -412.542zM845.84 1001.59h-150.487v-477.406h150.487v477.406zM845.84 223.215v150.487h-150.487v-150.487h150.487z" />
    <glyph glyph-name="gift" unicode="&#xf06b;" 
d="M928 180v56v468v192h-320v-192v-468v-56c0 -35 29 -52 64 -52h192c35 0 64 17 64 52zM472 1024h195l-126 161c-11 13 -35 31 -69 31c-53 0 -96 -43 -96 -96s43 -96 96 -96zM1160 1120c0 53 -43 96 -96 96c-34 0 -58 -18 -69 -31l-125 -161h194c53 0 96 43 96 96z
M1536 864v-320c0 -18 -14 -32 -32 -32h-96v-416c0 -53 -43 -96 -96 -96h-1088c-53 0 -96 43 -96 96v416h-96c-18 0 -32 14 -32 32v320c0 18 14 32 32 32h440c-124 0 -224 100 -224 224s100 224 224 224c67 0 129 -28 168 -77l128 -165l128 165c39 49 101 77 168 77
c124 0 224 -100 224 -224s-100 -224 -224 -224h440c18 0 32 -14 32 -32z" />
    <glyph glyph-name="leaf" unicode="&#xf06c;" horiz-adv-x="1792" 
d="M1280 832c0 35 -29 64 -64 64c-354 0 -582 -148 -813 -403c-12 -13 -19 -27 -19 -45c0 -35 29 -64 64 -64c18 0 32 7 45 19c49 44 93 92 141 137c181 163 336 228 582 228c35 0 64 29 64 64zM1792 1030c0 -64 -7 -129 -20 -193c-64 -311 -264 -513 -542 -651
c-135 -68 -286 -108 -438 -108c-96 0 -195 16 -286 47c-48 16 -144 79 -184 79c-50 0 -110 -204 -197 -204c-63 0 -82 31 -109 77c-9 17 -16 23 -16 44c0 104 198 185 198 243c0 9 -26 62 -30 82c-6 34 -9 69 -9 104c0 318 253 545 537 639c205 68 641 -11 780 121
c55 51 82 98 166 98c113 0 150 -293 150 -378z" />
    <glyph glyph-name="fire" unicode="&#xf06d;" horiz-adv-x="1408" 
d="M1408 -160v-64c0 -17 -15 -32 -32 -32h-1344c-17 0 -32 15 -32 32v64c0 17 15 32 32 32h1344c17 0 32 -15 32 -32zM1152 896c0 -383 -448 -417 -448 -672c0 -70 35 -163 67 -224l-4 1l1 -1c-276 127 -512 302 -512 640c0 383 448 417 448 672c0 70 -35 163 -66 224l3 -1
l-1 1c276 -127 512 -302 512 -640z" />
    <glyph glyph-name="eye_open" unicode="&#xf06e;" horiz-adv-x="1786" 
d="M889.948 133.918c-307.893 0 -579.461 188.541 -814.704 565.623c-10.3789 -10.3789 -22.4863 -25.9463 -36.3242 -46.7031s-22.4873 -32.8652 -25.9463 -36.3242c-8.64941 -13.8379 -12.9736 -27.6758 -12.9736 -41.5137s4.32422 -27.6758 12.9736 -41.5137
c238.703 -363.244 532.758 -544.866 882.164 -544.866c266.379 0 505.082 114.163 716.109 342.487c-6.91895 13.8379 -20.7568 34.5947 -41.5137 62.2705s-34.5947 48.4326 -41.5137 62.2705c-193.729 -214.487 -406.487 -321.73 -638.271 -321.73zM1185.73 575
c0 79.5674 -29.4053 148.757 -88.2158 207.568c-58.8115 58.8105 -128.001 88.2158 -207.568 88.2158c-79.5674 0 -147.892 -29.4053 -204.974 -88.2158c-57.0811 -58.8115 -85.6211 -128.001 -85.6211 -207.568s28.54 -148.757 85.6211 -207.568
c57.082 -58.8105 125.406 -88.2158 204.974 -88.2158c79.5674 0 148.757 29.4053 207.568 88.2158c58.8105 58.8115 88.2158 128.001 88.2158 207.568zM744.65 575c0 41.5137 14.7031 76.1084 44.1084 103.784c29.4053 27.6758 63.1357 41.5137 101.189 41.5137
c41.5137 0 76.1084 -13.8379 103.784 -41.5137c27.6758 -27.6758 41.5137 -62.2705 41.5137 -103.784s-13.8379 -76.1084 -41.5137 -103.784c-27.6758 -27.6758 -62.2705 -41.5137 -103.784 -41.5137c-38.0537 0 -71.7842 13.8379 -101.189 41.5137
c-29.4053 27.6758 -44.1084 62.2705 -44.1084 103.784zM1772.11 616.514c-245.622 363.244 -539.677 544.866 -882.164 544.866c-266.379 0 -505.082 -114.163 -716.109 -342.487c41.5137 -69.1895 69.1895 -110.703 83.0273 -124.541
c193.729 211.027 404.758 316.541 633.082 316.541c110.703 0 218.812 -25.9453 324.325 -77.8379c105.514 -51.8916 193.73 -115.892 264.649 -192c70.9189 -76.1084 122.811 -136.649 155.676 -181.622c32.8652 -44.9736 57.9463 -83.0273 75.2432 -114.163
c6.91895 10.3789 17.2979 25.082 31.1357 44.1084c13.8379 19.0273 24.2158 33.7305 31.1348 44.1084c8.64844 13.8379 12.9736 27.6758 12.9736 41.5137s-4.3252 27.6758 -12.9736 41.5137z" />
    <glyph glyph-name="eye_close" unicode="&#xf070;" horiz-adv-x="1792" 
d="M555 201l78 141c-116 84 -185 219 -185 362c0 79 21 157 61 225c-156 -80 -286 -206 -381 -353c104 -161 251 -296 427 -375zM944 960c0 26 -22 48 -48 48c-167 0 -304 -137 -304 -304c0 -26 22 -48 48 -48s48 22 48 48c0 115 94 208 208 208c26 0 48 22 48 48z
M1307 1151c0 -2 0 -7 -1 -9c-211 -377 -420 -756 -631 -1133l-49 -89c-6 -10 -17 -16 -28 -16c-18 0 -113 58 -134 70c-10 6 -16 16 -16 28c0 16 34 70 44 87c-194 88 -357 238 -472 418c-13 20 -20 44 -20 69c0 24 7 49 20 69c198 304 507 507 876 507c60 0 121 -6 180 -17
l54 97c6 10 16 16 28 16c18 0 112 -58 133 -70c10 -6 16 -16 16 -27zM1344 704c0 -186 -115 -352 -288 -418l280 502c5 -28 8 -56 8 -84zM1792 576c0 -26 -7 -47 -20 -69c-31 -51 -70 -100 -109 -145c-196 -225 -466 -362 -767 -362l74 132c291 25 538 202 694 444
c-74 115 -169 216 -282 294l63 112c124 -83 249 -208 327 -337c13 -22 20 -43 20 -69z" />
    <glyph glyph-name="warning_sign" unicode="&#xf071;" horiz-adv-x="1596" 
d="M1561.95 1258.16c-3.45996 6.91895 -7.78418 12.9727 -12.9727 18.1621c-5.18945 5.18945 -7.78418 9.51367 -7.78418 12.9727l-674.596 -1162.38c-10.3789 -27.6758 -34.5947 -41.5127 -72.6494 -41.5127c-31.1348 0 -55.3516 13.8369 -72.6484 41.5127
l-560.434 970.381c-6.91895 20.7568 -10.3789 36.3242 -10.3789 46.7031c0 55.3516 27.6758 83.0264 83.0273 83.0264h1094.92l88.2158 150.487h-1183.14c-65.7295 0 -121.081 -22.4863 -166.054 -67.46c-44.9736 -44.9727 -67.46 -100.324 -67.46 -166.054
c0 -48.4326 12.1084 -89.9463 36.3242 -124.541l555.244 -965.191c44.9736 -79.5674 112.434 -119.352 202.379 -119.352c89.9463 0 157.406 39.7842 202.379 119.352l565.623 975.569c44.9727 72.6494 44.9727 148.758 0 228.325zM871.785 1076.54h-150.486v-368.434
h150.486v368.434zM871.785 407.133v150.487h-150.486v-150.487h150.486z" />
    <glyph glyph-name="plane" unicode="&#xf072;" horiz-adv-x="1408" 
d="M1376 1376c64 -64 0 -224 -96 -320l-161 -161l160 -696c3 -12 -2 -25 -12 -33l-128 -96c-5 -4 -12 -6 -19 -6c-2 0 -4 0 -7 1c-9 2 -17 7 -21 16l-279 508l-259 -259l53 -194c3 -11 0 -22 -8 -31l-96 -96c-6 -6 -15 -9 -23 -9h-2c-10 1 -18 5 -24 13l-189 252l-252 189
c-8 5 -12 14 -13 23s3 18 9 25l96 97c6 6 15 9 23 9c3 0 6 0 8 -1l194 -53l259 259l-508 279c-9 5 -15 14 -17 24c-1 9 2 20 9 27l128 128c8 7 20 11 30 8l665 -159l160 160c96 96 256 160 320 96z" />
    <glyph glyph-name="calendar" unicode="&#xf073;" horiz-adv-x="1664" 
d="M128 -128h288v288h-288v-288zM480 -128h320v288h-320v-288zM128 224h288v320h-288v-320zM480 224h320v320h-320v-320zM128 608h288v288h-288v-288zM864 -128h320v288h-320v-288zM480 608h320v288h-320v-288zM1248 -128h288v288h-288v-288zM864 224h320v320h-320v-320z
M512 1088v288c0 17 -15 32 -32 32h-64c-17 0 -32 -15 -32 -32v-288c0 -17 15 -32 32 -32h64c17 0 32 15 32 32zM1248 224h288v320h-288v-320zM864 608h320v288h-320v-288zM1248 608h288v288h-288v-288zM1280 1088v288c0 17 -15 32 -32 32h-64c-17 0 -32 -15 -32 -32v-288
c0 -17 15 -32 32 -32h64c17 0 32 15 32 32zM1664 1152v-1280c0 -70 -58 -128 -128 -128h-1408c-70 0 -128 58 -128 128v1280c0 70 58 128 128 128h128v96c0 88 72 160 160 160h64c88 0 160 -72 160 -160v-96h384v96c0 88 72 160 160 160h64c88 0 160 -72 160 -160v-96h128
c70 0 128 -58 128 -128z" />
    <glyph glyph-name="random" unicode="&#xf074;" horiz-adv-x="1792" 
d="M666 1055c-56 -86 -97 -179 -137 -273c-58 121 -122 242 -273 242h-224c-18 0 -32 14 -32 32v192c0 18 14 32 32 32h224c178 0 309 -83 410 -225zM1792 256c0 -8 -3 -17 -9 -23l-320 -320c-6 -6 -15 -9 -23 -9c-17 0 -32 15 -32 32v192c-297 0 -480 -35 -665 225
c55 86 96 179 136 273c58 -121 122 -242 273 -242h256v192c0 18 14 32 32 32c9 0 17 -4 24 -10l319 -319c6 -6 9 -15 9 -23zM1792 1152c0 -8 -3 -17 -9 -23l-320 -320c-6 -6 -15 -9 -23 -9c-17 0 -32 14 -32 32v192h-256c-133 0 -196 -91 -252 -199
c-29 -56 -54 -114 -78 -171c-111 -258 -241 -526 -566 -526h-224c-18 0 -32 14 -32 32v192c0 18 14 32 32 32h224c133 0 196 91 252 199c29 56 54 114 78 171c111 258 241 526 566 526h256v192c0 18 14 32 32 32c9 0 17 -4 24 -10l319 -319c6 -6 9 -15 9 -23z" />
    <glyph glyph-name="comment" unicode="&#xf075;" horiz-adv-x="1792" 
d="M1792 640c0 -354 -401 -640 -896 -640c-49 0 -98 3 -145 8c-131 -116 -287 -198 -460 -242c-36 -10 -75 -17 -114 -22c-22 -2 -43 14 -48 38v1c-5 25 12 40 27 58c63 71 135 131 182 298c-206 117 -338 298 -338 501c0 353 401 640 896 640s896 -286 896 -640z" />
    <glyph glyph-name="magnet" unicode="&#xf076;" 
d="M1536 704v-128c0 -408 -323 -704 -768 -704s-768 296 -768 704v128c0 35 29 64 64 64h384c35 0 64 -29 64 -64v-128c0 -183 213 -192 256 -192s256 9 256 192v128c0 35 29 64 64 64h384c35 0 64 -29 64 -64zM512 1344v-384c0 -35 -29 -64 -64 -64h-384
c-35 0 -64 29 -64 64v384c0 35 29 64 64 64h384c35 0 64 -29 64 -64zM1536 1344v-384c0 -35 -29 -64 -64 -64h-384c-35 0 -64 29 -64 64v384c0 35 29 64 64 64h384c35 0 64 -29 64 -64z" />
    <glyph glyph-name="chevron_up" unicode="&#xf077;" horiz-adv-x="1792" 
d="M1683 205l-166 -165c-25 -25 -65 -25 -90 0l-531 531l-531 -531c-25 -25 -65 -25 -90 0l-166 165c-25 25 -25 66 0 91l742 741c25 25 65 25 90 0l742 -741c25 -25 25 -66 0 -91z" />
    <glyph glyph-name="chevron_down" unicode="&#xf078;" horiz-adv-x="1792" 
d="M1683 728l-742 -741c-25 -25 -65 -25 -90 0l-742 741c-25 25 -25 66 0 91l166 165c25 25 65 25 90 0l531 -531l531 531c25 25 65 25 90 0l166 -165c25 -25 25 -66 0 -91z" />
    <glyph glyph-name="retweet" unicode="&#xf079;" horiz-adv-x="1920" 
d="M1280 32c0 -17 -15 -32 -32 -32h-960c-37 0 -32 39 -32 64v160v416h-192c-35 0 -64 29 -64 64c0 15 5 30 15 41l320 384c12 14 30 22 49 22s37 -8 49 -22l320 -384c10 -11 15 -26 15 -41c0 -35 -29 -64 -64 -64h-192v-384h576c9 0 19 -4 25 -11l160 -192
c4 -6 7 -14 7 -21zM1920 448c0 -15 -5 -30 -15 -41l-320 -384c-12 -14 -30 -23 -49 -23s-37 9 -49 23l-320 384c-10 11 -15 26 -15 41c0 35 29 64 64 64h192v384h-576c-9 0 -19 4 -25 12l-160 192c-4 5 -7 13 -7 20c0 17 15 32 32 32h960c37 0 32 -39 32 -64v-160v-416h192
c35 0 64 -29 64 -64z" />
    <glyph glyph-name="shopping_cart" unicode="&#xf07a;" horiz-adv-x="1607" 
d="M1100.11 -91.5156h150.486v150.486h-150.486v-150.486zM492.974 -91.5156h145.298v150.486h-145.298v-150.486zM1567.14 1174.65c-38.0547 51.8926 -89.9463 77.8379 -155.677 77.8379h-1411.46v-150.486h1416.65c10.3789 0 20.7568 -5.18945 31.1348 -15.5674
c3.45996 -6.91895 5.18945 -19.0273 5.18945 -36.3242l-119.352 -363.244c-6.91895 -17.2979 -19.0273 -25.9463 -36.3242 -25.9463h-908.11v290.595h-150.486v-555.244c0 -51.8916 18.1621 -96 54.4863 -132.324s80.4326 -54.4863 132.325 -54.4863h825.082v150.486
h-825.082c-24.2168 0 -36.3252 12.1084 -36.3252 36.3242v114.162h908.11c89.9463 0 148.757 43.2441 176.433 129.73l119.352 363.244c24.2168 62.2705 15.5674 119.352 -25.9453 171.243z" />
    <glyph glyph-name="folder_close" unicode="&#xf07b;" horiz-adv-x="1664" 
d="M1664 928v-704c0 -123 -101 -224 -224 -224h-1216c-123 0 -224 101 -224 224v960c0 123 101 224 224 224h320c123 0 224 -101 224 -224v-32h672c123 0 224 -101 224 -224z" />
    <glyph glyph-name="folder_open" unicode="&#xf07c;" horiz-adv-x="1920" 
d="M1879 584c0 -24 -15 -48 -31 -66l-336 -396c-58 -68 -176 -122 -264 -122h-1088c-36 0 -87 11 -87 56c0 24 15 48 31 66l336 396c58 68 176 122 264 122h1088c36 0 87 -11 87 -56zM1536 928v-160h-832c-125 0 -280 -71 -361 -167l-337 -396l-5 -6c0 8 -1 17 -1 25v960
c0 123 101 224 224 224h320c123 0 224 -101 224 -224v-32h544c123 0 224 -101 224 -224z" />
    <glyph glyph-name="resize_vertical" unicode="&#xf07d;" horiz-adv-x="660" 
d="M404.758 142.539v1068.97l145.298 -145.297l108.974 103.783l-233.515 233.515c-27.6758 27.6758 -59.6758 41.5137 -96 41.5137s-68.3242 -13.8379 -96 -41.5137l-233.515 -233.515l108.974 -103.783l145.298 145.297v-1068.97l-145.298 145.297l-108.974 -108.973
l233.515 -228.325c62.2705 -65.7295 126.271 -65.7295 192 0l233.515 228.325l-108.974 108.973z" />
    <glyph glyph-name="resize_horizontal" unicode="&#xf07e;" 
d="M233.515 563.757h1068.97l-145.297 -145.298l108.973 -103.784l233.514 233.515c24.2168 27.6748 36.3252 58.8105 36.3252 93.4053c0 34.5947 -12.1084 65.7295 -36.3252 93.4053l-233.514 233.515l-108.973 -108.974l145.297 -145.298h-1068.97l145.297 145.298
l-103.783 108.974l-233.515 -233.515c-27.6758 -27.6758 -41.5137 -59.6758 -41.5137 -96s13.8379 -68.3242 41.5137 -96l233.515 -233.515l108.973 108.974z" />
    <glyph glyph-name="bar_chart" unicode="&#xf080;" horiz-adv-x="2048" 
d="M640 640v-512h-256v512h256zM1024 1152v-1024h-256v1024h256zM2048 0v-128h-2048v1536h128v-1408h1920zM1408 896v-768h-256v768h256zM1792 1280v-1152h-256v1152h256z" />
    <glyph glyph-name="twitter_sign" unicode="&#xf081;" 
d="M1280 926c-38 -17 -78 -28 -121 -34c44 26 77 68 93 117c-41 -24 -86 -42 -134 -51c-38 41 -93 66 -153 66c-116 0 -210 -94 -210 -210c0 -16 1 -33 5 -48c-175 9 -330 92 -434 220c-18 -31 -29 -68 -29 -106c0 -73 34 -137 91 -175c-35 1 -68 11 -100 26v-2
c0 -102 77 -187 173 -206c-18 -5 -32 -8 -51 -8c-13 0 -26 2 -39 4c27 -83 104 -144 196 -146c-72 -56 -162 -90 -261 -90c-17 0 -34 1 -50 3c93 -59 203 -94 322 -94c386 0 598 320 598 598c0 9 0 18 -1 27c41 29 77 66 105 109zM1536 1120v-960
c0 -159 -129 -288 -288 -288h-960c-159 0 -288 129 -288 288v960c0 159 129 288 288 288h960c159 0 288 -129 288 -288z" />
    <glyph glyph-name="facebook_sign" unicode="&#xf082;" 
d="M1248 1408c159 0 288 -129 288 -288v-960c0 -159 -129 -288 -288 -288h-188v595h199l30 232h-229v148c0 67 18 112 115 112l122 1v207c-21 3 -94 9 -178 9c-177 0 -299 -108 -299 -306v-171h-200v-232h200v-595h-532c-159 0 -288 129 -288 288v960c0 159 129 288 288 288
h960z" />
    <glyph glyph-name="camera_retro" unicode="&#xf083;" horiz-adv-x="1792" 
d="M928 704c0 18 -14 32 -32 32c-88 0 -160 -72 -160 -160c0 -18 14 -32 32 -32s32 14 32 32c0 53 43 96 96 96c18 0 32 14 32 32zM1152 574c0 -141 -115 -256 -256 -256s-256 115 -256 256s115 256 256 256s256 -115 256 -256zM128 0h1536v128h-1536v-128zM1280 574
c0 212 -172 384 -384 384s-384 -172 -384 -384s172 -384 384 -384s384 172 384 384zM256 1216h384v128h-384v-128zM128 1024h1536v118v138h-828l-64 -128h-644v-128zM1792 1280v-1280c0 -71 -57 -128 -128 -128h-1536c-71 0 -128 57 -128 128v1280c0 71 57 128 128 128h1536
c71 0 128 -57 128 -128z" />
    <glyph glyph-name="key" unicode="&#xf084;" horiz-adv-x="1095" 
d="M674.597 1190.32h-259.46v-150.487h259.46v150.487zM1094.92 1112.49c0 117.621 -53.6221 217.946 -160.865 300.974c-107.244 83.0264 -236.974 124.54 -389.19 124.54c-152.217 0 -281.081 -41.5137 -386.596 -124.54
c-105.514 -83.0273 -158.271 -183.353 -158.271 -300.974c0 -176.434 107.244 -302.704 321.73 -378.812v-716.11c0 -48.4326 18.1621 -91.6758 54.4873 -129.729c36.3242 -38.0547 80.4326 -57.0811 132.324 -57.0811h77.8379c44.9727 0 84.7568 14.7021 119.352 44.1074
c34.5947 29.4062 55.3516 66.5947 62.2705 111.568h166.055v150.486h-311.353v-119.352c0 -24.2158 -12.1074 -36.3242 -36.3242 -36.3242h-77.8379c-27.6758 0 -41.5137 12.1084 -41.5137 36.3242v762.812c0 41.5137 -17.2969 65.7305 -51.8916 72.6494
c-79.5684 20.7568 -143.568 54.4863 -192.001 101.189c-48.4326 46.7021 -72.6484 99.459 -72.6484 158.271c0 76.1074 38.9189 140.973 116.757 194.595s170.379 80.4326 277.622 80.4326c110.703 0 204.974 -26.8105 282.812 -80.4326s116.757 -118.487 116.757 -194.595
c0 -55.3516 -24.2158 -107.244 -72.6484 -155.677c-48.4326 -48.4326 -112.433 -83.0264 -192.001 -103.783c-38.0537 -10.3789 -57.0811 -34.5947 -57.0811 -72.6494v-492.974h311.353v150.486h-160.865v285.406c96.8652 38.0537 174.703 91.6758 233.514 160.865
c58.8105 69.1895 88.2168 145.298 88.2168 228.325z" />
    <glyph glyph-name="cogs" unicode="&#xf085;" horiz-adv-x="1749" 
d="M851.028 750.245l108.974 114.162l-103.784 103.784l-108.974 -108.974c-41.5137 27.6758 -88.2158 46.7031 -140.108 57.0811v155.677h-150.486v-155.677c-48.4326 -10.3779 -95.1357 -29.4053 -140.108 -57.0811l-108.974 108.974l-103.784 -103.784l108.974 -114.162
c-31.1348 -41.5137 -51.8916 -86.4873 -62.2705 -134.92h-150.486v-150.486h150.486c10.3789 -51.8916 31.1357 -98.5947 62.2705 -140.108l-108.974 -108.974l103.784 -108.973l108.974 108.973c44.9727 -27.6758 91.6758 -46.7021 140.108 -57.0811v-155.676h150.486
v155.676c48.4326 10.3789 95.1357 29.4053 140.108 57.0811l108.974 -108.973l108.973 108.973l-114.162 108.974c31.1357 41.5137 51.8926 88.2168 62.2705 140.108h150.487v150.486h-155.677c-13.8379 55.3516 -32.8643 100.325 -57.0811 134.92zM534.487 303.974
c-65.7295 0 -121.946 22.4863 -168.649 67.46c-46.7021 44.9727 -70.0537 100.324 -70.0537 166.054c0 65.7305 23.3516 121.946 70.0537 168.649c46.7031 46.7031 102.92 70.0537 168.649 70.0537c62.2705 0 116.757 -23.3506 163.46 -70.0537
c46.7021 -46.7031 70.0537 -102.919 70.0537 -168.649c0 -65.7295 -23.3516 -121.081 -70.0537 -166.054c-46.7031 -44.9736 -101.189 -67.46 -163.46 -67.46zM1619.03 879.975c6.91895 27.6758 6.91895 64 0 108.974l129.729 77.8379l-77.8379 129.729l-129.729 -77.8379
c-27.6758 27.6758 -60.541 46.7031 -98.5947 57.0811v150.487h-150.487v-145.298c-48.4326 -20.7568 -81.2969 -39.7832 -98.5947 -57.0811l-129.729 72.6484l-77.8389 -129.729l129.73 -72.6484c-6.91895 -38.0547 -6.91895 -76.1084 0 -114.163l-129.73 -77.8379
l77.8389 -129.729l129.729 77.8379c27.6758 -27.6758 60.541 -46.7031 98.5947 -57.0811v-155.677h150.487v150.487c48.4326 20.7568 81.2969 39.7842 98.5947 57.0811l129.729 -72.6484l77.8379 129.729l-129.729 72.6494v5.18848zM1442.6 859.218
c-41.5137 -41.5137 -86.4873 -46.7021 -134.92 -15.5674c-38.0537 27.6758 -51.8916 64 -41.5137 108.974c6.91895 48.4326 32.8652 76.1074 77.8389 83.0264c55.3506 13.8379 95.1348 -3.45898 119.352 -51.8916c24.2158 -44.9727 17.2969 -86.4863 -20.7568 -124.541z" />
    <glyph glyph-name="comments" unicode="&#xf086;" horiz-adv-x="1792" 
d="M1408 768c0 -283 -315 -512 -704 -512c-61 0 -120 6 -176 16c-83 -59 -177 -102 -278 -128c-27 -7 -56 -12 -86 -16h-3c-15 0 -29 12 -32 29v0c-4 19 9 31 20 44c39 44 83 83 117 166c-162 94 -266 239 -266 401c0 283 315 512 704 512s704 -229 704 -512zM1792 512
c0 -163 -104 -307 -266 -401c34 -83 78 -122 117 -166c11 -13 24 -25 20 -44v0c-4 -18 -19 -31 -35 -29c-30 4 -59 9 -86 16c-101 26 -195 69 -278 128c-56 -10 -115 -16 -176 -16c-181 0 -347 50 -472 132c29 -2 59 -4 88 -4c215 0 418 62 573 174c167 122 259 287 259 466
c0 52 -8 103 -23 152c169 -93 279 -241 279 -408z" />
    <glyph glyph-name="thumbs_up_alt" unicode="&#xf087;" horiz-adv-x="1516" 
d="M1463.35 653.839c-17.2979 24.2168 -17.2979 44.9736 0 62.2705c34.5947 38.0547 51.8916 83.8926 51.8916 137.514c0 53.6221 -17.2969 99.46 -51.8916 137.515c-41.5137 34.5947 -86.4873 51.8916 -134.92 51.8916h-202.378
c10.3779 107.243 -13.8379 216.217 -72.6494 326.92c-72.6484 110.702 -155.676 164.324 -249.081 160.865c-96.8652 -6.91895 -162.596 -57.082 -197.189 -150.487c-13.8379 -41.5137 -15.5684 -88.2158 -5.18945 -140.108
c3.45898 -17.2969 14.7021 -40.6484 33.7295 -70.0537c19.0273 -29.4062 30.2705 -52.7568 33.7295 -70.0547c3.45996 -44.9727 -24.2158 -89.9463 -83.0264 -134.919c-69.1895 -48.4326 -117.622 -86.4863 -145.298 -114.162
c-27.6758 79.5674 -84.7568 119.352 -171.244 119.352h-88.2158c-96.8652 0 -157.406 -48.4326 -181.622 -145.298h269.838c20.7568 0 31.1357 -12.1084 31.1357 -36.3242v-612.326c0 -24.2158 -10.3789 -36.3242 -31.1357 -36.3242h-88.2158
c-24.2168 0 -36.3242 12.1084 -36.3242 36.3242v498.163h-145.298v-498.163c0 -48.4326 17.2969 -90.8105 51.8916 -127.135c34.5947 -36.3252 77.8379 -54.4873 129.73 -54.4873h88.2158c48.4326 0 90.8115 17.2979 127.136 51.8926s54.4863 77.8379 54.4863 129.729
v358.055c0 79.5684 34.5947 153.946 103.784 223.136c17.2979 13.8379 49.2979 38.0547 96 72.6494c46.7031 34.5947 80.4326 64 101.189 88.2158c62.2705 69.1895 83.0273 145.298 62.2705 228.325c-6.91895 27.6758 -25.9463 64 -57.0811 108.973
c-24.2158 31.1357 -25.9463 62.2705 -5.18945 93.4062c24.2168 31.1348 51.8926 41.5137 83.0273 31.1348c24.2168 -3.45898 51.8926 -27.6758 83.0273 -72.6484c58.8105 -96.8652 74.3789 -202.379 46.7031 -316.541c-10.3789 -58.8115 13.8379 -89.9463 72.6484 -93.4062
h290.595c10.3789 0 19.0273 -3.45898 25.9463 -10.3779c27.6758 -20.7568 27.6758 -41.5137 0 -62.2705c-38.0537 -34.5947 -57.0811 -79.5674 -57.0811 -134.919s19.0273 -100.325 57.0811 -134.92c24.2168 -24.2158 24.2168 -44.9727 0 -62.2705
c-38.0537 -38.0537 -57.0811 -83.8916 -57.0811 -137.514c0 -53.6211 19.0273 -97.7295 57.0811 -132.324c24.2168 -24.2168 24.2168 -44.9727 0 -62.2705c-3.45898 -10.3779 -12.1084 -15.5674 -25.9463 -15.5674h-441.081c-38.0547 0 -70.9199 14.7021 -98.5957 44.1084
c-27.6758 29.4053 -41.5127 63.1348 -41.5127 101.189h-145.298c0 -79.5684 27.6758 -147.893 83.0273 -204.974s122.811 -85.6221 202.379 -85.6221h441.081c51.8926 0 96.8652 19.0273 134.92 57.0811c34.5947 34.5947 51.8916 78.7031 51.8916 132.325
c0 53.6211 -17.2969 99.459 -51.8916 137.514c-20.7568 20.7568 -20.7568 41.5137 0 62.2705c34.5947 34.5947 51.8916 77.8379 51.8916 129.729c0 51.8926 -17.2969 96.8652 -51.8916 134.919z" />
    <glyph glyph-name="thumbs_down_alt" unicode="&#xf088;" horiz-adv-x="1516" 
d="M1463.35 876.976c-17.2979 -24.2168 -17.2979 -44.9736 0 -62.2705c34.5947 -38.0547 51.8916 -83.8926 51.8916 -137.514c0 -53.6221 -17.2969 -99.46 -51.8916 -137.515c-41.5137 -34.5947 -86.4873 -51.8916 -134.92 -51.8916h-202.378
c10.3779 -107.243 -13.8379 -216.217 -72.6494 -326.92c-72.6484 -110.702 -155.676 -164.324 -249.081 -160.865c-96.8652 6.91895 -162.596 57.082 -197.189 150.487c-13.8379 41.5137 -15.5684 88.2158 -5.18945 140.108
c3.45898 17.2969 14.7021 40.6484 33.7295 70.0537c19.0273 29.4062 30.2705 52.7568 33.7295 70.0547c3.45996 44.9727 -24.2158 89.9463 -83.0264 134.919c-69.1895 48.4326 -117.622 86.4863 -145.298 114.162c-27.6758 -79.5674 -84.7568 -119.352 -171.244 -119.352
h-88.2158c-96.8652 0 -157.406 48.4326 -181.622 145.298h269.838c20.7568 0 31.1357 12.1084 31.1357 36.3242v612.326c0 24.2158 -10.3789 36.3242 -31.1357 36.3242h-88.2158c-24.2168 0 -36.3242 -12.1084 -36.3242 -36.3242v-498.163h-145.298v498.163
c0 48.4326 17.2969 90.8105 51.8916 127.135c34.5947 36.3252 77.8379 54.4873 129.73 54.4873h88.2158c48.4326 0 90.8115 -17.2979 127.136 -51.8926c36.3242 -34.5947 54.4863 -77.8379 54.4863 -129.729v-358.055c0 -79.5684 34.5947 -153.946 103.784 -223.136
c17.2979 -13.8379 49.2979 -38.0547 96 -72.6494c46.7031 -34.5947 80.4326 -64 101.189 -88.2158c62.2705 -69.1895 83.0273 -145.298 62.2705 -228.325c-6.91895 -27.6758 -25.9463 -64 -57.0811 -108.973c-24.2158 -31.1357 -25.9463 -62.2705 -5.18945 -93.4062
c24.2168 -31.1348 51.8926 -41.5137 83.0273 -31.1348c24.2168 3.45898 51.8926 27.6758 83.0273 72.6484c58.8105 96.8652 74.3789 202.379 46.7031 316.541c-10.3789 58.8115 13.8379 89.9463 72.6484 93.4062h290.595c10.3789 0 19.0273 3.45898 25.9463 10.3779
c27.6758 20.7568 27.6758 41.5137 0 62.2705c-38.0537 34.5947 -57.0811 79.5674 -57.0811 134.919s19.0273 100.325 57.0811 134.92c24.2168 24.2158 24.2168 44.9727 0 62.2705c-38.0537 38.0537 -57.0811 83.8916 -57.0811 137.514
c0 53.6211 19.0273 97.7295 57.0811 132.324c24.2168 24.2168 24.2168 44.9727 0 62.2705c-3.45898 10.3779 -12.1084 15.5674 -25.9463 15.5674h-441.081c-38.0547 0 -70.9199 -14.7021 -98.5957 -44.1084c-27.6758 -29.4053 -41.5127 -63.1348 -41.5127 -101.189h-145.298
c0 79.5684 27.6758 147.893 83.0273 204.974s122.811 85.6221 202.379 85.6221h441.081c51.8926 0 96.8652 -19.0273 134.92 -57.0811c34.5947 -34.5947 51.8916 -78.7031 51.8916 -132.325c0 -53.6211 -17.2969 -99.459 -51.8916 -137.514
c-20.7568 -20.7568 -20.7568 -41.5137 0 -62.2705c34.5947 -34.5947 51.8916 -77.8379 51.8916 -129.729c0 -51.8926 -17.2969 -96.8652 -51.8916 -134.919z" />
    <glyph glyph-name="star_half" unicode="&#xf089;" horiz-adv-x="770" 
d="M774.674 1458.11c-83.0273 0 -140.108 -41.5137 -171.243 -124.541l-103.784 -306.163h-316.541c-83.0273 0 -140.108 -41.5127 -171.244 -124.54c-7.90723 -22.7344 -11.8613 -44.3379 -11.8613 -64.8125c0 -51.1865 24.7109 -95.3115 74.1318 -132.377
l254.271 -192.001l-93.4053 -311.352c-7.32617 -19.5361 -10.9893 -38.6406 -10.9893 -57.3154c0 -34.2354 12.3115 -67.0225 36.9355 -98.3613c38.0537 -48.4316 86.4863 -72.6484 145.297 -72.6484c34.5947 0 67.46 10.3789 98.5947 31.1357l264.649 186.811z" />
    <glyph glyph-name="heart_empty" unicode="&#xf08a;" horiz-adv-x="1791" 
d="M1624.22 1275.57c-117.622 110.703 -250.812 166.055 -399.568 166.055c-44.9736 0 -95.1357 -9.51367 -150.487 -28.541s-98.5947 -37.1895 -129.729 -54.4863l-51.8926 -31.1357c-96.8652 76.1084 -207.568 114.163 -332.108 114.163
c-152.217 0 -283.677 -55.3516 -394.38 -166.055c-110.702 -110.703 -166.054 -243.893 -166.054 -399.568c0 -159.136 55.3516 -290.596 166.054 -394.379l508.542 -456.65l108.974 103.784l-513.731 461.839c-79.5674 79.5674 -119.352 174.703 -119.352 285.406
c0 114.162 39.7842 211.027 119.352 290.595c76.1084 83.0273 172.974 124.541 290.596 124.541c96.8652 0 178.162 -27.6758 243.893 -83.0273l83.0264 -57.0811l83.0273 51.8916c86.4873 58.8115 171.244 88.2168 254.271 88.2168
c117.621 0 214.486 -41.5137 290.595 -124.541c79.5674 -79.5674 119.352 -176.433 119.352 -290.595s-38.0537 -209.298 -114.162 -285.406l-409.947 -368.434l-326.919 -295.784l114.162 -103.784l726.488 659.029c110.702 110.702 166.054 242.162 166.054 394.379
c0 148.757 -55.3516 281.946 -166.054 399.568z" />
    <glyph glyph-name="signout" unicode="&#xf08b;" horiz-adv-x="1500" 
d="M373.623 859.812l-108.974 108.974l-228.324 -233.515c-24.2168 -27.6758 -36.3252 -60.541 -36.3252 -98.5947c0 -38.0537 12.1084 -69.1895 36.3252 -93.4053l233.514 -233.514l103.784 108.973l-145.298 145.298h295.784v-472.218
c0 -51.8916 18.1621 -96 54.4873 -132.324c36.3242 -36.3242 80.4326 -54.4863 132.324 -54.4863h492.974v150.486h-498.163c-20.7568 0 -31.1348 12.1084 -31.1348 36.3242v472.218h529.298v150.486h-975.569zM1318.06 1378.73h-612.326
c-48.4326 0 -90.8105 -18.1621 -127.135 -54.4863c-36.3252 -36.3242 -54.4873 -80.4326 -54.4873 -132.324v-326.92h150.487v326.92c0 24.2158 10.3779 36.3242 31.1348 36.3242h612.326c20.7568 0 31.1348 -12.1084 31.1348 -36.3242v-1281.73
c44.9736 6.91895 81.2979 27.6748 108.974 62.2695c27.6758 34.5947 41.5137 74.3789 41.5137 119.352v1100.11c0 51.8916 -17.2979 96 -51.8926 132.324c-34.5947 36.3242 -77.8379 54.4863 -129.729 54.4863z" />
    <glyph glyph-name="linkedin_sign" unicode="&#xf08c;" 
d="M237 122h231v694h-231v-694zM483 1030c-1 68 -50 120 -129 120s-131 -52 -131 -120c0 -66 50 -120 128 -120h1v0c81 0 131 54 131 120zM1068 122h231v398c0 213 -114 312 -266 312c-124 0 -179 -69 -209 -117h2v101h-231s3 -65 0 -694v0h231v388c0 20 1 41 7 56
c17 41 55 84 119 84c83 0 116 -63 116 -157v-371zM1536 1120v-960c0 -159 -129 -288 -288 -288h-960c-159 0 -288 129 -288 288v960c0 159 129 288 288 288h960c159 0 288 -129 288 -288z" />
    <glyph glyph-name="pushpin" unicode="&#xf08d;" horiz-adv-x="1168" 
d="M985.948 664.488h-88.2168l-36.3242 264.649h15.5674c41.5137 0 76.1084 14.7031 103.784 44.1084c27.6758 29.4053 41.5137 63.1348 41.5137 101.189v134.919c0 51.8926 -17.2969 96 -51.8916 132.325c-34.5947 36.3242 -77.8379 54.4863 -129.73 54.4863h-518.92
c-48.4326 0 -90.8105 -18.1621 -127.136 -54.4863c-36.3242 -36.3252 -54.4863 -80.4326 -54.4863 -132.325v-134.919c0 -38.0547 14.7031 -71.7842 44.1084 -101.189c29.4053 -29.4053 64.8652 -44.1084 106.379 -44.1084h15.5674l-31.1357 -264.649h-93.4053
c-48.4326 0 -90.8105 -18.1621 -127.136 -54.4863c-36.3242 -36.3242 -54.4863 -78.7031 -54.4863 -127.136v-129.729c0 -48.4326 17.2979 -90.8115 51.8926 -127.136s77.8379 -54.4863 129.729 -54.4863h326.92v-347.677c0 -20.7568 7.7832 -38.9189 23.3516 -54.4863
c15.5674 -15.5674 33.7295 -23.3516 54.4863 -23.3516c17.2969 0 33.7295 7.78418 49.2969 23.3516c15.5684 15.5674 23.3516 33.7295 23.3516 54.4863v498.163h-477.406c-20.7568 0 -31.1348 10.3789 -31.1348 31.1357v129.729c0 20.7568 10.3779 31.1357 31.1348 31.1357
h228.325l62.2705 565.623h-181.622v129.729c0 24.2168 10.3779 36.3242 31.1348 36.3242h518.92c20.7568 0 31.1357 -12.1074 31.1357 -36.3242v-129.729h-181.622l83.0273 -565.623h212.757c20.7568 0 31.1348 -10.3789 31.1348 -31.1357v-129.729
c0 -20.7568 -10.3779 -31.1357 -31.1348 -31.1357h-176.433v-150.486h176.433c48.4326 0 90.8105 18.1621 127.136 54.4863c36.3242 36.3242 54.4863 78.7031 54.4863 127.136v129.729c0 48.4326 -18.1621 90.8115 -54.4863 127.136
c-36.3252 36.3242 -78.7031 54.4863 -127.136 54.4863z" />
    <glyph glyph-name="external_link" unicode="&#xf08e;" horiz-adv-x="1792" 
d="M1408 608v-320c0 -159 -129 -288 -288 -288h-832c-159 0 -288 129 -288 288v832c0 159 129 288 288 288h704c18 0 32 -14 32 -32v-64c0 -18 -14 -32 -32 -32h-704c-88 0 -160 -72 -160 -160v-832c0 -88 72 -160 160 -160h832c88 0 160 72 160 160v320c0 18 14 32 32 32
h64c18 0 32 -14 32 -32zM1792 1472v-512c0 -35 -29 -64 -64 -64c-17 0 -33 7 -45 19l-176 176l-652 -652c-6 -6 -15 -10 -23 -10s-17 4 -23 10l-114 114c-6 6 -10 15 -10 23s4 17 10 23l652 652l-176 176c-12 12 -19 28 -19 45c0 35 29 64 64 64h512c35 0 64 -29 64 -64z
" />
    <glyph glyph-name="signin" unicode="&#xf090;" horiz-adv-x="1433" 
d="M861.407 309.758l233.514 233.514c24.2158 27.6758 36.3242 59.6758 36.3242 96s-12.1084 68.3242 -36.3242 96l-233.514 233.515l-103.784 -108.974l145.298 -145.298h-902.921v-150.486h456.649v-472.218c0 -51.8916 18.1621 -96 54.4863 -132.324
c36.3252 -36.3242 78.7031 -54.4863 127.136 -54.4863h492.974v150.486h-492.974c-20.7568 0 -31.1357 12.1084 -31.1357 36.3242v472.218h295.785l-145.298 -145.298zM1250.6 1378.73h-612.325c-48.4326 0 -90.8105 -18.1621 -127.136 -54.4863
c-36.3242 -36.3242 -54.4863 -80.4326 -54.4863 -132.324v-326.92h150.486v326.92c0 24.2158 10.3789 36.3242 31.1357 36.3242h612.325c20.7568 0 31.1357 -12.1084 31.1357 -36.3242v-1281.73c44.9727 6.91895 81.2969 27.6748 108.973 62.2695
c27.6758 34.5947 41.5137 74.3789 41.5137 119.352v1100.11c0 48.4326 -18.1621 91.6758 -54.4863 129.729c-36.3242 38.0537 -78.7031 57.0811 -127.136 57.0811z" />
    <glyph glyph-name="trophy" unicode="&#xf091;" horiz-adv-x="1664" 
d="M458 653c-42 92 -74 214 -74 371h-256v-96c0 -98 133 -234 330 -275zM1536 928v96h-256c0 -157 -32 -279 -74 -371c197 41 330 177 330 275zM1664 1056v-128c0 -190 -230 -400 -542 -415c-40 -51 -77 -81 -95 -95c-53 -48 -67 -98 -67 -162s32 -128 128 -128
s192 -64 192 -160v-64c0 -18 -14 -32 -32 -32h-832c-18 0 -32 14 -32 32v64c0 96 96 160 192 160s128 64 128 128s-14 114 -67 162c-18 14 -55 44 -95 95c-312 15 -542 225 -542 415v128c0 53 43 96 96 96h288v96c0 88 72 160 160 160h576c88 0 160 -72 160 -160v-96h288
c53 0 96 -43 96 -96z" />
    <glyph glyph-name="github_sign" unicode="&#xf092;" 
d="M394 184c-4 -5 -13 -4 -20 3c-7 6 -9 15 -4 19c4 5 13 4 20 -3c6 -6 8 -15 4 -19zM352 245c5 -7 5 -15 0 -19v0c-4 -3 -12 0 -17 7s-5 15 0 18c5 4 13 1 17 -6zM291 305c-2 -3 -8 -5 -13 -2c-6 3 -9 8 -7 12c2 3 7 4 13 2c6 -3 9 -8 7 -12zM322 271c-4 -4 -11 -2 -16 3
c-5 6 -6 13 -2 16c4 4 11 2 16 -3c5 -6 6 -13 2 -16zM451 159c-2 -6 -11 -9 -19 -6c-9 2 -15 9 -13 15s11 9 19 7c9 -3 15 -10 13 -16zM514 154c0 -6 -7 -11 -16 -11c-10 -1 -17 4 -17 11c0 6 7 11 16 11c9 1 17 -4 17 -11zM572 164c1 -6 -5 -12 -14 -14s-17 2 -18 8
c-1 7 5 13 14 15c9 1 17 -3 18 -9zM1536 1120v-960c0 -159 -129 -288 -288 -288h-224c-32 0 -65 0 -65 48v239c0 72 -24 118 -52 142c171 19 351 84 351 379c0 84 -30 153 -79 206c8 20 34 98 -8 204c-64 20 -211 -79 -211 -79c-61 17 -127 26 -192 26s-131 -9 -192 -26
c0 0 -147 99 -212 79c-41 -106 -15 -184 -7 -204c-49 -53 -79 -122 -79 -206c0 -294 179 -360 350 -379c-22 -20 -42 -53 -49 -103c-44 -20 -156 -54 -223 64c-42 73 -118 79 -118 79c-75 1 -5 -47 -5 -47c50 -23 85 -112 85 -112c45 -137 259 -91 259 -91
c0 -64 1 -153 1 -171c0 -48 -34 -48 -66 -48h-224c-159 0 -288 129 -288 288v960c0 159 129 288 288 288h960c159 0 288 -129 288 -288z" />
    <glyph glyph-name="upload_alt" unicode="&#xf093;" horiz-adv-x="1479" 
d="M145.298 322.783v472.217h-145.298v-472.217c0 -48.4326 18.1621 -90.8115 54.4863 -127.136s78.7031 -54.4863 127.136 -54.4863h482.596v150.486h-482.596c-24.2168 0 -36.3242 10.3789 -36.3242 31.1357zM814.704 426.566v747.245l145.298 -145.298l108.974 108.974
l-233.515 228.324c-27.6758 27.6758 -58.8105 41.5137 -93.4053 41.5137c-41.5137 0 -74.3789 -13.8379 -98.5947 -41.5137l-233.515 -228.324l108.974 -108.974l145.298 145.298v-747.245h150.486zM1328.44 795v-472.217c0 -20.7568 -10.3789 -31.1357 -31.1357 -31.1357
h-482.596v-150.486h482.596c48.4326 0 90.8115 18.1621 127.136 54.4863c36.3242 36.3242 54.4863 78.7031 54.4863 127.136v472.217h-150.486z" />
    <glyph glyph-name="lemon" unicode="&#xf094;" 
d="M1407 710c0 47 -9 170 -25 210c-19 48 -30 75 -30 129c0 46 10 91 10 136c0 19 -1 39 -10 55c-4 1 -9 1 -13 1c-39 0 -78 -9 -117 -9c-119 0 -232 48 -351 48c-93 0 -183 -35 -269 -69c-68 -27 -143 -59 -202 -103c-202 -153 -272 -433 -272 -674c0 -81 25 -160 25 -241
c0 -46 -22 -88 -22 -132c0 -28 16 -51 46 -51c49 0 96 22 146 22c114 0 225 -31 339 -31c89 0 201 7 284 36c263 93 461 397 461 673zM1535 712c0 -333 -231 -684 -547 -796c-99 -35 -222 -44 -326 -44c-114 0 -226 29 -339 29c-48 0 -96 -29 -146 -29
c-99 0 -174 89 -174 184c0 47 22 89 22 135c0 81 -25 160 -25 242c0 284 87 598 323 777c68 52 153 89 232 120c102 41 205 78 316 78c119 0 232 -48 349 -48c38 0 76 10 115 10c114 0 155 -81 155 -185c0 -45 -10 -91 -10 -136c0 -36 9 -50 21 -82c23 -58 34 -191 34 -255z
" />
    <glyph glyph-name="phone" unicode="&#xf095;" horiz-adv-x="1408" 
d="M1408 296c0 -36 -16 -106 -31 -139c-21 -49 -77 -81 -122 -106c-59 -32 -119 -51 -186 -51c-93 0 -177 38 -262 69c-61 22 -120 49 -175 83c-170 105 -375 310 -480 480c-34 55 -61 114 -83 175c-31 85 -69 169 -69 262c0 67 19 127 51 186c25 45 57 101 106 122
c33 15 103 31 139 31c7 0 14 0 21 -3c21 -7 43 -56 53 -76c32 -57 63 -115 96 -171c16 -26 46 -58 46 -89c0 -61 -181 -150 -181 -204c0 -27 25 -62 39 -86c101 -182 227 -308 409 -409c24 -14 59 -39 86 -39c54 0 143 181 204 181c31 0 63 -30 89 -46
c56 -33 114 -64 171 -96c20 -10 69 -32 76 -53c3 -7 3 -14 3 -21z" />
    <glyph glyph-name="check_empty" unicode="&#xf096;" horiz-adv-x="1408" 
d="M1120 1280h-832c-88 0 -160 -72 -160 -160v-832c0 -88 72 -160 160 -160h832c88 0 160 72 160 160v832c0 88 -72 160 -160 160zM1408 1120v-832c0 -159 -129 -288 -288 -288h-832c-159 0 -288 129 -288 288v832c0 159 129 288 288 288h832v0c159 0 288 -129 288 -288z
" />
    <glyph glyph-name="bookmark_empty" unicode="&#xf097;" horiz-adv-x="1280" 
d="M1152 1280h-1024v-1242l423 406l89 85l89 -85l423 -406v1242zM1164 1408c15 0 30 -3 44 -9c44 -17 72 -58 72 -103v-1289c0 -45 -28 -86 -72 -103c-14 -6 -29 -8 -44 -8c-31 0 -60 11 -83 32l-441 424l-441 -424c-23 -21 -52 -33 -83 -33c-15 0 -30 3 -44 9
c-44 17 -72 58 -72 103v1289c0 45 28 86 72 103c14 6 29 9 44 9h1048z" />
    <glyph glyph-name="phone_sign" unicode="&#xf098;" 
d="M1280 343c0 5 0 11 -2 16c-6 18 -152 92 -180 108c-19 11 -42 33 -65 33c-44 0 -109 -131 -148 -131c-20 0 -45 18 -63 28c-132 74 -223 165 -297 297c-10 18 -28 43 -28 63c0 39 131 104 131 148c0 23 -22 46 -33 65c-16 28 -90 174 -108 180c-5 2 -11 2 -16 2
c-26 0 -77 -12 -101 -22c-66 -30 -114 -156 -114 -225c0 -67 27 -128 50 -190c80 -219 318 -457 537 -537c62 -23 123 -50 190 -50c69 0 195 48 225 114c10 24 22 75 22 101zM1536 1120v-960c0 -159 -129 -288 -288 -288h-960c-159 0 -288 129 -288 288v960
c0 159 129 288 288 288h960c159 0 288 -129 288 -288z" />
    <glyph glyph-name="twitter" unicode="&#xf099;" horiz-adv-x="1664" 
d="M1620 1128c-44 -64 -99 -121 -162 -167c1 -14 1 -28 1 -42c0 -427 -325 -919 -919 -919c-183 0 -353 53 -496 145c26 -3 51 -4 78 -4c151 0 290 51 401 138c-142 3 -261 96 -302 224c20 -3 40 -5 61 -5c29 0 58 4 85 11c-148 30 -259 160 -259 317v4
c43 -24 93 -39 146 -41c-87 58 -144 157 -144 269c0 60 16 115 44 163c159 -196 398 -324 666 -338c-5 24 -8 49 -8 74c0 178 144 323 323 323c93 0 177 -39 236 -102c73 14 143 41 205 78c-24 -75 -75 -138 -142 -178c65 7 128 25 186 50z" />
    <glyph glyph-name="facebook" unicode="&#xf09a;" horiz-adv-x="1024" 
d="M959 1524v-264h-157c-123 0 -146 -59 -146 -144v-189h293l-39 -296h-254v-759h-306v759h-255v296h255v218c0 253 155 391 381 391c108 0 201 -8 228 -12z" />
    </font>
</defs>
</svg>
